Georama-ExtraLightItalic.ufo
<glyph name="exclam" format="2">
  <advance width="204.29800000000003"/>
  <unicode hex="0021"/>
  <outline>
    <contour>
      <point x="83.82399999999998" y="263.55" type="line"/>
      <point x="116.152" y="263.55" type="line"/>
      <point x="192.988" y="740.0" type="line"/>
      <point x="157.87" y="740.0" type="line"/>
    </contour>
    <contour>
      <point x="37.718" y="15.562" type="curve" smooth="yes"/>
      <point x="36.80800000000001" y="3.04"/>
      <point x="41.42000000000001" y="-0.8999999999999999"/>
      <point x="57.222" y="-0.8999999999999999" type="curve" smooth="yes"/>
      <point x="80.736" y="-0.8999999999999999"/>
      <point x="84.93400000000001" y="6.435999999999999"/>
      <point x="87.664" y="34.51199999999999" type="curve" smooth="yes"/>
      <point x="88.574" y="47.58"/>
      <point x="82.87" y="50.974"/>
      <point x="67.65" y="50.974" type="curve" smooth="yes"/>
      <point x="45.156000000000006" y="50.974"/>
      <point x="40.448" y="43.565999999999995"/>
    </contour>
  </outline>
</glyph>
<glyph name="numbersign" format="2">
  <advance width="573.3560000000001"/>
  <unicode hex="0023"/>
  <outline>
    <contour>
      <point x="136.028" y="474.128" type="line"/>
      <point x="233.09199999999998" y="474.128" type="line"/>
      <point x="151.93200000000002" y="220.816" type="line"/>
      <point x="61.67600000000001" y="220.816" type="line"/>
      <point x="56.442" y="190.382" type="line"/>
      <point x="142.83800000000002" y="190.382" type="line"/>
      <point x="82.122" y="0.0" type="line"/>
      <point x="117.08600000000001" y="0.0" type="line"/>
      <point x="176.89200000000002" y="190.382" type="line"/>
      <point x="321.71799999999996" y="190.382" type="line"/>
      <point x="261.912" y="0.0" type="line"/>
      <point x="296.276" y="0.0" type="line"/>
      <point x="356.082" y="190.382" type="line"/>
      <point x="456.112" y="190.382" type="line"/>
      <point x="460.764" y="220.816" type="line"/>
      <point x="365.612" y="220.816" type="line"/>
      <point x="446.336" y="474.128" type="line"/>
      <point x="535.116" y="474.128" type="line"/>
      <point x="540.2220000000001" y="504.598" type="line"/>
      <point x="455.794" y="504.598" type="line"/>
      <point x="518.602" y="700.0" type="line"/>
      <point x="484.184" y="700.0" type="line"/>
      <point x="421.376" y="504.598" type="line"/>
      <point x="276.54999999999995" y="504.598" type="line"/>
      <point x="339.358" y="700.0" type="line"/>
      <point x="304.99399999999997" y="700.0" type="line"/>
      <point x="242.186" y="504.598" type="line"/>
      <point x="141.09799999999998" y="504.598" type="line"/>
    </contour>
    <contour>
      <point x="267.456" y="474.128" type="line"/>
      <point x="412.28200000000004" y="474.128" type="line"/>
      <point x="331.176" y="220.816" type="line"/>
      <point x="186.35000000000002" y="220.816" type="line"/>
    </contour>
  </outline>
</glyph>
<glyph name="dollar" format="2">
  <advance width="573.3560000000001"/>
  <unicode hex="0024"/>
  <outline>
    <contour>
      <point x="528.4879999999999" y="681.028" type="line"/>
      <point x="503.91999999999996" y="690.896"/>
      <point x="451.828" y="707.844"/>
      <point x="381.64000000000004" y="709.7479999999999" type="curve"/>
      <point x="397.04" y="804.892" type="line"/>
      <point x="366.08000000000004" y="804.892" type="line"/>
      <point x="350.336" y="708.4279999999999" type="line"/>
      <point x="234.116" y="702.136"/>
      <point x="123.99200000000002" y="628.3159999999999"/>
      <point x="123.99200000000002" y="514.2959999999999" type="curve" smooth="yes"/>
      <point x="123.99200000000002" y="332.768"/>
      <point x="444.84000000000003" y="336.652"/>
      <point x="444.84000000000003" y="180.64799999999997" type="curve" smooth="yes"/>
      <point x="444.84000000000003" y="77.864"/>
      <point x="326.636" y="23.712000000000003"/>
      <point x="235.01600000000002" y="23.712000000000003" type="curve" smooth="yes"/>
      <point x="158.924" y="23.712000000000003"/>
      <point x="73.264" y="46.428"/>
      <point x="41.104" y="60.54" type="curve"/>
      <point x="26.336000000000002" y="27.88" type="line"/>
      <point x="62.843999999999994" y="14.216"/>
      <point x="138.268" y="-7.951999999999999"/>
      <point x="220.136" y="-9.64" type="curve"/>
      <point x="205.136" y="-105.0" type="line"/>
      <point x="236.05999999999997" y="-105.0" type="line"/>
      <point x="251.05999999999997" y="-8.751999999999999" type="line"/>
      <point x="371.52000000000004" y="-2.2080000000000006"/>
      <point x="482.94800000000004" y="68.628"/>
      <point x="482.94800000000004" y="186.46800000000002" type="curve" smooth="yes"/>
      <point x="482.94800000000004" y="365.868"/>
      <point x="161.988" y="360.93600000000004"/>
      <point x="161.988" y="518.4280000000001" type="curve" smooth="yes"/>
      <point x="161.988" y="617.3919999999999"/>
      <point x="274.876" y="676.8040000000001"/>
      <point x="361.44" y="676.8040000000001" type="curve" smooth="yes"/>
      <point x="433.02" y="676.8040000000001"/>
      <point x="479.12800000000004" y="663.488"/>
      <point x="514.5360000000001" y="649.352" type="curve"/>
    </contour>
  </outline>
</glyph>
<glyph name="ampersand" format="2">
  <advance width="625.0280000000001"/>
  <unicode hex="0026"/>
  <outline>
    <contour>
      <point x="233.882" y="-10.0" type="curve" smooth="yes"/>
      <point x="374.004" y="-10.0"/>
      <point x="497.44599999999997" y="115.51199999999999"/>
      <point x="512.85" y="289.71" type="curve"/>
      <point x="481.458" y="293.56" type="line"/>
      <point x="470.27000000000004" y="140.232"/>
      <point x="355.94599999999997" y="21.773999999999994"/>
      <point x="237.44" y="21.773999999999994" type="curve" smooth="yes"/>
      <point x="129.722" y="21.773999999999994"/>
      <point x="73.672" y="73.448"/>
      <point x="73.672" y="151.312" type="curve" smooth="yes"/>
      <point x="73.672" y="295.642"/>
      <point x="202.71399999999997" y="375.608"/>
      <point x="337.9" y="375.608" type="curve" smooth="yes"/>
      <point x="349.756" y="375.608" type="line"/>
      <point x="354.112" y="403.67800000000005" type="line"/>
      <point x="345.782" y="404.038" type="line" smooth="yes"/>
      <point x="254.226" y="405.22600000000006"/>
      <point x="193.47199999999998" y="451.934"/>
      <point x="193.47199999999998" y="537.5959999999999" type="curve" smooth="yes"/>
      <point x="193.47199999999998" y="612.242"/>
      <point x="246.84199999999998" y="680.3480000000001"/>
      <point x="340.32000000000005" y="680.3480000000001" type="curve" smooth="yes"/>
      <point x="391.67" y="680.3480000000001"/>
      <point x="441.586" y="661.282"/>
      <point x="476.152" y="628.542" type="curve"/>
      <point x="495.122" y="654.254" type="line"/>
      <point x="458.968" y="688.4499999999999"/>
      <point x="399.18999999999994" y="710.0"/>
      <point x="339.488" y="710.0" type="curve" smooth="yes"/>
      <point x="222.866" y="710.0"/>
      <point x="157.22400000000002" y="629.8539999999999"/>
      <point x="157.22400000000002" y="539.348" type="curve" smooth="yes"/>
      <point x="157.22400000000002" y="462.266"/>
      <point x="205.92200000000003" y="408.732"/>
      <point x="274.8260000000001" y="393.62" type="curve"/>
      <point x="138.866" y="376.06"/>
      <point x="36.992" y="286.142"/>
      <point x="36.992" y="148.102" type="curve" smooth="yes"/>
      <point x="36.992" y="54.028"/>
      <point x="101.154" y="-10.0"/>
    </contour>
    <contour>
      <point x="349.86" y="246.38" type="line"/>
      <point x="354.15000000000003" y="283.694"/>
      <point x="380.398" y="301.648"/>
      <point x="411.30999999999995" y="301.648" type="curve" smooth="yes"/>
      <point x="468.01399999999995" y="301.648"/>
      <point x="492.912" y="274.088"/>
      <point x="553.958" y="274.088" type="curve" smooth="yes"/>
      <point x="604.0699999999999" y="274.088"/>
      <point x="636.7560000000001" y="309.038"/>
      <point x="640.4280000000001" y="355.80400000000003" type="curve"/>
      <point x="613.778" y="360.718" type="line"/>
      <point x="609.848" y="324.408"/>
      <point x="585.1560000000001" y="301.806"/>
      <point x="546.4560000000001" y="301.806" type="curve" smooth="yes"/>
      <point x="495.16" y="301.806"/>
      <point x="463.228" y="329.798"/>
      <point x="408.584" y="329.798" type="curve" smooth="yes"/>
      <point x="364.54400000000004" y="329.798"/>
      <point x="330.69800000000004" y="301.858"/>
      <point x="324.224" y="255.98200000000003" type="curve"/>
    </contour>
  </outline>
</glyph>
<glyph name="quotesingle" format="2">
  <advance width="147.028"/>
  <unicode hex="0027"/>
  <outline>
    <contour>
      <point x="83.83200000000001" y="427.0" type="line"/>
      <point x="110.854" y="427.0" type="line"/>
      <point x="158.39399999999998" y="700.0" type="line"/>
      <point x="122.634" y="700.0" type="line"/>
    </contour>
  </outline>
</glyph>
<glyph name="parenleft" format="2">
  <advance width="286.798"/>
  <unicode hex="0028"/>
  <outline>
    <contour>
      <point x="66.748" y="41.88" type="curve" smooth="yes"/>
      <point x="66.748" y="-90.356"/>
      <point x="101.95800000000001" y="-193.556"/>
      <point x="183.014" y="-220.0" type="curve"/>
      <point x="193.59799999999998" y="-190.42" type="line"/>
      <point x="134.046" y="-170.62400000000002"/>
      <point x="98.378" y="-81.068"/>
      <point x="98.378" y="46.942" type="curve" smooth="yes"/>
      <point x="98.378" y="266.814"/>
      <point x="197.35" y="666.256"/>
      <point x="335.564" y="717.948" type="curve"/>
      <point x="335.12" y="749.4540000000001" type="line"/>
      <point x="150.714" y="685.644"/>
      <point x="66.748" y="269.844"/>
    </contour>
  </outline>
</glyph>
<glyph name="parenright" format="2">
  <advance width="286.798"/>
  <unicode hex="0029"/>
  <outline>
    <contour>
      <point x="217.55999999999997" y="487.392" type="curve" smooth="yes"/>
      <point x="217.55999999999997" y="621.9920000000001"/>
      <point x="182.16799999999998" y="723.5559999999999"/>
      <point x="100.748" y="750.0" type="curve"/>
      <point x="91.256" y="717.874" type="line"/>
      <point x="155.54" y="694.074"/>
      <point x="185.92999999999998" y="605.7919999999999"/>
      <point x="185.92999999999998" y="489.24799999999993" type="curve" smooth="yes"/>
      <point x="185.92999999999998" y="271.92400000000004"/>
      <point x="88.96000000000001" y="-134.982"/>
      <point x="-52.53000000000001" y="-188.31199999999998" type="curve"/>
      <point x="-51.54" y="-220.0" type="line"/>
      <point x="118.306" y="-155.174"/>
      <point x="217.55999999999997" y="243.044"/>
    </contour>
  </outline>
</glyph>
<glyph name="asterisk" format="2">
  <advance width="298.456"/>
  <unicode hex="002A"/>
  <outline>
    <contour>
      <point x="92.22400000000002" y="363.23" type="line"/>
      <point x="181.962" y="480.526" type="line"/>
      <point x="233.032" y="363.77599999999995" type="line"/>
      <point x="253.262" y="377.008" type="line"/>
      <point x="203.97199999999998" y="500.49399999999997" type="line"/>
      <point x="324.598" y="550.8439999999999" type="line"/>
      <point x="320.188" y="573.086" type="line"/>
      <point x="202.04" y="528.186" type="line"/>
      <point x="224.13" y="675.394" type="line"/>
      <point x="200.742" y="675.394" type="line"/>
      <point x="176.45600000000002" y="528.732" type="line"/>
      <point x="71.696" y="573.632" type="line"/>
      <point x="61.382" y="551.936" type="line"/>
      <point x="165.154" y="501.58599999999996" type="line"/>
      <point x="75.10600000000001" y="377.736" type="line"/>
    </contour>
  </outline>
</glyph>
<glyph name="plus" format="2">
  <advance width="419.61800000000005"/>
  <unicode hex="002B"/>
  <outline>
    <contour>
      <point x="162.738" y="77.454" type="line"/>
      <point x="195.756" y="77.454" type="line"/>
      <point x="226.898" y="275.584" type="line"/>
      <point x="371.262" y="275.584" type="line"/>
      <point x="376.566" y="308.53000000000003" type="line"/>
      <point x="232.202" y="308.53000000000003" type="line"/>
      <point x="263.744" y="507.17" type="line"/>
      <point x="230.798" y="507.17" type="line"/>
      <point x="199.18400000000003" y="308.53000000000003" type="line"/>
      <point x="54.382000000000005" y="308.53000000000003" type="line"/>
      <point x="49.077999999999996" y="275.584" type="line"/>
      <point x="193.952" y="275.584" type="line"/>
    </contour>
  </outline>
</glyph>
<glyph name="comma" format="2">
  <advance width="151.016"/>
  <unicode hex="002C"/>
  <outline>
    <contour>
      <point x="21.684" y="38.746" type="line"/>
      <point x="23.596" y="25.4"/>
      <point x="23.964" y="11.377999999999998"/>
      <point x="23.658" y="-1.1440000000000006" type="curve" smooth="yes"/>
      <point x="22.668" y="-65.14800000000001"/>
      <point x="-15.865999999999998" y="-149.666"/>
      <point x="-70.264" y="-183.246" type="curve"/>
      <point x="-50.980000000000004" y="-200.39600000000002" type="line"/>
      <point x="25.28" y="-153.938"/>
      <point x="59.64" y="-50.646"/>
      <point x="59.64" y="7.146" type="curve" smooth="yes"/>
      <point x="59.64" y="20.384"/>
      <point x="58.458000000000006" y="32.657999999999994"/>
      <point x="55.438" y="45.934" type="curve"/>
    </contour>
  </outline>
</glyph>
<glyph name="hyphen" format="2">
  <advance width="296.644"/>
  <unicode hex="002D"/>
  <outline>
    <contour>
      <point x="37.660000000000004" y="251.298" type="line"/>
      <point x="251.466" y="251.298" type="line"/>
      <point x="257.53200000000004" y="285.47200000000004" type="line"/>
      <point x="43.726" y="285.47200000000004" type="line"/>
    </contour>
  </outline>
</glyph>
<glyph name="period" format="2">
  <advance width="151.484"/>
  <unicode hex="002E"/>
  <outline>
    <contour>
      <point x="11.074" y="15.723999999999998" type="curve" smooth="yes"/>
      <point x="10.164" y="3.148"/>
      <point x="14.722000000000003" y="-0.738"/>
      <point x="30.578" y="-0.738" type="curve" smooth="yes"/>
      <point x="54.092" y="-0.738"/>
      <point x="58.236000000000004" y="6.598000000000001"/>
      <point x="60.965999999999994" y="34.782" type="curve" smooth="yes"/>
      <point x="61.876000000000005" y="47.796"/>
      <point x="56.226" y="51.136"/>
      <point x="41.006" y="51.136" type="curve" smooth="yes"/>
      <point x="18.458000000000002" y="51.136"/>
      <point x="13.804" y="43.728"/>
    </contour>
  </outline>
</glyph>
<glyph name="slash" format="2">
  <advance width="303.44"/>
  <unicode hex="002F"/>
  <outline>
    <contour>
      <point x="-67.534" y="-210.0" type="line"/>
      <point x="-34.434" y="-210.0" type="line"/>
      <point x="367.97400000000005" y="740.0" type="line"/>
      <point x="334.73" y="740.0" type="line"/>
    </contour>
  </outline>
</glyph>
<glyph name="zero" format="2">
  <advance width="573.5720000000001"/>
  <unicode hex="0030"/>
  <outline>
    <contour>
      <point x="256.02400000000006" y="-10.36" type="curve" smooth="yes"/>
      <point x="451.444" y="-10.36"/>
      <point x="556.82" y="272.352"/>
      <point x="556.82" y="483.25999999999993" type="curve" smooth="yes"/>
      <point x="556.82" y="637.7959999999999"/>
      <point x="484.096" y="710.18"/>
      <point x="340.236" y="710.18" type="curve" smooth="yes"/>
      <point x="142.868" y="710.18"/>
      <point x="39.588" y="427.224"/>
      <point x="39.588" y="217.39600000000002" type="curve" smooth="yes"/>
      <point x="39.588" y="63.04"/>
      <point x="112.82000000000001" y="-10.36"/>
    </contour>
    <contour>
      <point x="257.464" y="23.220000000000002" type="curve" smooth="yes"/>
      <point x="137.076" y="23.220000000000002"/>
      <point x="76.276" y="86.3"/>
      <point x="76.76799999999999" y="217.264" type="curve" smooth="yes"/>
      <point x="77.752" y="417.44399999999996"/>
      <point x="169.784" y="676.7800000000001"/>
      <point x="338.796" y="676.7800000000001" type="curve" smooth="yes"/>
      <point x="459.84" y="676.7800000000001"/>
      <point x="520.132" y="614.7159999999999"/>
      <point x="519.64" y="483.752" type="curve" smooth="yes"/>
      <point x="518.656" y="284.26000000000005"/>
      <point x="425.78799999999995" y="23.220000000000002"/>
    </contour>
  </outline>
</glyph>
<glyph name="one" format="2">
  <advance width="573.3560000000001"/>
  <unicode hex="0031"/>
  <outline>
    <contour>
      <point x="34.15200000000001" y="0.0" type="line"/>
      <point x="492.344" y="0.0" type="line"/>
      <point x="497.666" y="33.676" type="line"/>
      <point x="302.42800000000005" y="33.676" type="line"/>
      <point x="409.086" y="703.64" type="line"/>
      <point x="389.608" y="703.64" type="line"/>
      <point x="108.176" y="552.8919999999999" type="line"/>
      <point x="116.532" y="521.398" type="line"/>
      <point x="364.46" y="653.1640000000001" type="line"/>
      <point x="266.206" y="33.676" type="line"/>
      <point x="39.42" y="33.676" type="line"/>
    </contour>
  </outline>
</glyph>
<glyph name="two" format="2">
  <advance width="573.5720000000001"/>
  <unicode hex="0032"/>
  <outline>
    <contour>
      <point x="43.736000000000004" y="27.979999999999997" type="curve"/>
      <point x="42.74" y="0.0" type="line"/>
      <point x="474.42800000000005" y="0.0" type="line"/>
      <point x="478.784" y="32.86" type="line"/>
      <point x="101.984" y="32.86" type="line"/>
      <point x="353.776" y="220.07600000000002"/>
      <point x="479.848" y="391.15600000000006"/>
      <point x="479.848" y="562.252" type="curve" smooth="yes"/>
      <point x="479.848" y="659.9879999999999"/>
      <point x="410.064" y="710.0"/>
      <point x="313.428" y="710.0" type="curve" smooth="yes"/>
      <point x="250.532" y="710.0"/>
      <point x="182.58800000000002" y="688.772"/>
      <point x="131.428" y="650.904" type="curve"/>
      <point x="143.208" y="622.5840000000001" type="line"/>
      <point x="194.40399999999997" y="657.504"/>
      <point x="250.38799999999998" y="676.176"/>
      <point x="304.636" y="676.176" type="curve" smooth="yes"/>
      <point x="384.15200000000004" y="676.176"/>
      <point x="442.668" y="634.42"/>
      <point x="442.668" y="552.0959999999999" type="curve" smooth="yes"/>
      <point x="442.176" y="402.124"/>
      <point x="314.32800000000003" y="227.04"/>
    </contour>
  </outline>
</glyph>
<glyph name="three" format="2">
  <advance width="573.8999999999999"/>
  <unicode hex="0033"/>
  <outline>
    <contour>
      <point x="2.160000000000001" y="53.56" type="line"/>
      <point x="59.52" y="11.459999999999999"/>
      <point x="133.88000000000002" y="-10.0"/>
      <point x="229.98" y="-10.0" type="curve" smooth="yes"/>
      <point x="383.71999999999997" y="-10.0"/>
      <point x="492.54" y="77.11999999999999"/>
      <point x="492.54" y="220.08" type="curve" smooth="yes"/>
      <point x="492.54" y="312.82"/>
      <point x="445.61999999999995" y="358.28"/>
      <point x="377.06" y="371.18" type="curve"/>
      <point x="444.14" y="389.15999999999997"/>
      <point x="507.34000000000003" y="450.62"/>
      <point x="507.34000000000003" y="550.36" type="curve" smooth="yes"/>
      <point x="507.34000000000003" y="645.9"/>
      <point x="436.79999999999995" y="710.0"/>
      <point x="309.2" y="710.0" type="curve" smooth="yes"/>
      <point x="255.88000000000002" y="710.0"/>
      <point x="185.18" y="700.46"/>
      <point x="130.64000000000001" y="671.6600000000001" type="curve"/>
      <point x="142.52" y="642.6999999999999" type="line"/>
      <point x="196.08" y="669.34"/>
      <point x="254.54000000000002" y="676.6"/>
      <point x="303.7" y="676.6" type="curve" smooth="yes"/>
      <point x="405.2" y="676.6"/>
      <point x="470.88000000000005" y="627.66"/>
      <point x="470.88000000000005" y="545.7" type="curve" smooth="yes"/>
      <point x="470.88000000000005" y="437.88"/>
      <point x="390.72" y="382.49999999999994"/>
      <point x="304.38" y="382.49999999999994" type="curve" smooth="yes"/>
      <point x="187.98" y="382.49999999999994" type="line"/>
      <point x="182.82000000000002" y="352.26" type="line"/>
      <point x="304.84" y="352.26" type="line" smooth="yes"/>
      <point x="402.32" y="352.26"/>
      <point x="454.44000000000005" y="311.88"/>
      <point x="454.44000000000005" y="217.07999999999998" type="curve" smooth="yes"/>
      <point x="454.44000000000005" y="96.0"/>
      <point x="362.66" y="23.58"/>
      <point x="233.52" y="23.58" type="curve" smooth="yes"/>
      <point x="142.12" y="23.58"/>
      <point x="78.11999999999999" y="42.67999999999999"/>
      <point x="21.919999999999998" y="80.52" type="curve"/>
    </contour>
  </outline>
</glyph>
<glyph name="four" format="2">
  <advance width="573.8999999999999"/>
  <unicode hex="0034"/>
  <outline>
    <contour>
      <point x="35.32" y="186.73999999999998" type="line"/>
      <point x="366.9800000000001" y="186.73999999999998" type="line"/>
      <point x="336.78" y="-2.64" type="line"/>
      <point x="373.96" y="-2.64" type="line"/>
      <point x="403.34" y="186.73999999999998" type="line"/>
      <point x="518.9" y="186.73999999999998" type="line"/>
      <point x="523.88" y="219.52" type="line"/>
      <point x="408.5" y="219.52" type="line"/>
      <point x="484.32000000000005" y="697.36" type="line"/>
      <point x="456.48" y="703.64" type="line"/>
      <point x="35.66" y="215.26000000000002" type="line"/>
    </contour>
    <contour>
      <point x="77.86" y="219.52" type="line"/>
      <point x="440.54" y="642.06" type="line"/>
      <point x="372.5" y="219.52" type="line"/>
    </contour>
  </outline>
</glyph>
<glyph name="five" format="2">
  <advance width="573.5720000000001"/>
  <unicode hex="0035"/>
  <outline>
    <contour>
      <point x="21.884" y="55.512" type="line"/>
      <point x="70.66800000000002" y="13.74"/>
      <point x="132.256" y="-10.0"/>
      <point x="225.568" y="-10.0" type="curve" smooth="yes"/>
      <point x="426.888" y="-10.0"/>
      <point x="498.57200000000006" y="132.48000000000002"/>
      <point x="498.57200000000006" y="248.60399999999998" type="curve" smooth="yes"/>
      <point x="498.57200000000006" y="344.436"/>
      <point x="444.68800000000005" y="396.812"/>
      <point x="330.184" y="396.81200000000007" type="curve" smooth="yes"/>
      <point x="145.35999999999999" y="396.81200000000007" type="line"/>
      <point x="212.5" y="665.5679999999999" type="line"/>
      <point x="526.46" y="665.5679999999999" type="line"/>
      <point x="532.1280000000003" y="700.0" type="line"/>
      <point x="188.61599999999999" y="700.0" type="line"/>
      <point x="105.70399999999998" y="374.67199999999997" type="line"/>
      <point x="113.68800000000002" y="363.99999999999994" type="line"/>
      <point x="315.132" y="363.99999999999994" type="line" smooth="yes"/>
      <point x="418.124" y="363.99999999999994"/>
      <point x="461.27600000000007" y="322.864"/>
      <point x="461.27600000000007" y="241.56" type="curve" smooth="yes"/>
      <point x="461.27600000000007" y="146.384"/>
      <point x="387.38000000000005" y="23.4"/>
      <point x="229.56799999999998" y="23.4" type="curve" smooth="yes"/>
      <point x="140.57999999999998" y="23.4"/>
      <point x="84.53200000000002" y="50.02400000000001"/>
      <point x="41.056000000000004" y="83.88000000000001" type="curve"/>
    </contour>
  </outline>
</glyph>
<glyph name="six" format="2">
  <advance width="573.9"/>
  <unicode hex="0036"/>
  <note>
14
</note>
  <outline>
    <contour>
      <point x="293.06" y="-10.0" type="curve" smooth="yes"/>
      <point x="434.41999999999996" y="-10.0"/>
      <point x="528.36" y="84.66"/>
      <point x="528.36" y="232.42000000000002" type="curve" smooth="yes"/>
      <point x="528.36" y="361.15999999999997"/>
      <point x="455.91999999999996" y="418.86"/>
      <point x="329.09999999999997" y="418.86" type="curve" smooth="yes"/>
      <point x="246.26" y="418.86"/>
      <point x="148.76" y="389.48"/>
      <point x="89.66" y="320.36" type="curve"/>
      <point x="85.66" y="279.09999999999997" type="line"/>
      <point x="140.78" y="349.88"/>
      <point x="231.74" y="386.35999999999996"/>
      <point x="323.16" y="386.35999999999996" type="curve" smooth="yes"/>
      <point x="439.4" y="386.35999999999996"/>
      <point x="492.62" y="333.06"/>
      <point x="492.62" y="228.08000000000004" type="curve" smooth="yes"/>
      <point x="492.62" y="105.46"/>
      <point x="413.12" y="23.040000000000003"/>
      <point x="294.32" y="23.040000000000003" type="curve" smooth="yes"/>
      <point x="161.42" y="23.040000000000003"/>
      <point x="91.02" y="95.72"/>
      <point x="91.02" y="243.16" type="curve" smooth="yes"/>
      <point x="91.02" y="391.88"/>
      <point x="130.86" y="511.1"/>
      <point x="200.70000000000002" y="585.58" type="curve" smooth="yes"/>
      <point x="255.08" y="644.6"/>
      <point x="326.91999999999996" y="676.24"/>
      <point x="411.66" y="676.24" type="curve" smooth="yes"/>
      <point x="464.32" y="676.24"/>
      <point x="511.03999999999996" y="666.24"/>
      <point x="554.3199999999999" y="644.14" type="curve"/>
      <point x="569.72" y="674.4599999999999" type="line"/>
      <point x="525.62" y="697.92"/>
      <point x="471.28" y="710.0"/>
      <point x="410.86" y="710.0" type="curve" smooth="yes"/>
      <point x="193.54000000000002" y="710.0"/>
      <point x="55.459999999999994" y="532.02"/>
      <point x="55.459999999999994" y="238.88" type="curve" smooth="yes"/>
      <point x="55.459999999999994" y="74.63999999999999"/>
      <point x="137.98" y="-10.0"/>
    </contour>
  </outline>
</glyph>
<glyph name="seven" format="2">
  <advance width="573.3560000000001"/>
  <unicode hex="0037"/>
  <note>
9
</note>
  <outline>
    <contour>
      <point x="154.238" y="0.0" type="curve"/>
      <point x="193.162" y="0.0" type="line"/>
      <point x="214.506" y="130.178"/>
      <point x="262.71200000000005" y="230.102"/>
      <point x="388.2060000000001" y="421.886" type="curve" smooth="yes"/>
      <point x="551.014" y="670.99" type="line"/>
      <point x="555.868" y="700.0" type="line"/>
      <point x="112.534" y="700.0" type="line"/>
      <point x="107.15800000000002" y="664.898" type="line"/>
      <point x="507.202" y="664.898" type="line"/>
      <point x="356.132" y="438.81" type="line" smooth="yes"/>
      <point x="235.344" y="258.10200000000003"/>
      <point x="178.35000000000002" y="152.37000000000003"/>
    </contour>
  </outline>
</glyph>
<glyph name="eight" format="2">
  <advance width="573.9"/>
  <unicode hex="0038"/>
  <outline>
    <contour>
      <point x="260.04" y="-10.0" type="curve" smooth="yes"/>
      <point x="413.66" y="-10.0"/>
      <point x="518.8199999999999" y="61.64000000000001"/>
      <point x="518.8199999999999" y="197.98000000000002" type="curve" smooth="yes"/>
      <point x="518.8199999999999" y="435.91999999999996"/>
      <point x="143.1" y="333.28"/>
      <point x="143.1" y="535.02" type="curve" smooth="yes"/>
      <point x="143.1" y="624.1800000000001"/>
      <point x="231.82" y="677.5"/>
      <point x="345.98" y="677.5" type="curve" smooth="yes"/>
      <point x="462.78" y="677.5"/>
      <point x="517.2" y="626.56"/>
      <point x="517.2" y="555.88" type="curve" smooth="yes"/>
      <point x="517.2" y="459.35999999999996"/>
      <point x="460.62" y="403.32"/>
      <point x="366.09999999999997" y="356.2" type="curve"/>
      <point x="395.18" y="342.34" type="line"/>
      <point x="487.02" y="389.9"/>
      <point x="552.76" y="452.28000000000003"/>
      <point x="552.76" y="559.3" type="curve" smooth="yes"/>
      <point x="552.76" y="645.84"/>
      <point x="488.2" y="710.0"/>
      <point x="347.24" y="710.0" type="curve" smooth="yes"/>
      <point x="210.9" y="710.0"/>
      <point x="107.0" y="646.8199999999999"/>
      <point x="107.0" y="528.4" type="curve" smooth="yes"/>
      <point x="107.0" y="307.97999999999996"/>
      <point x="481.64000000000004" y="409.84"/>
      <point x="481.64000000000004" y="194.28" type="curve" smooth="yes"/>
      <point x="481.64000000000004" y="80.55999999999999"/>
      <point x="392.3" y="21.599999999999998"/>
      <point x="262.84" y="21.599999999999998" type="curve" smooth="yes"/>
      <point x="131.5" y="21.599999999999998"/>
      <point x="57.16" y="81.0"/>
      <point x="57.16" y="168.96" type="curve" smooth="yes"/>
      <point x="57.16" y="268.46"/>
      <point x="135.58" y="345.26"/>
      <point x="242.64" y="384.84" type="curve"/>
      <point x="212.2" y="399.78" type="line"/>
      <point x="103.0" y="356.56"/>
      <point x="20.34" y="275.56"/>
      <point x="20.34" y="161.98" type="curve" smooth="yes"/>
      <point x="20.34" y="59.440000000000005"/>
      <point x="104.0" y="-10.0"/>
    </contour>
  </outline>
</glyph>
<glyph name="nine" format="2">
  <advance width="573.9"/>
  <unicode hex="0039"/>
  <outline>
    <contour>
      <point x="305.84" y="710.0" type="curve" smooth="yes"/>
      <point x="164.48000000000002" y="710.0"/>
      <point x="70.54" y="615.34"/>
      <point x="70.54" y="467.58" type="curve" smooth="yes"/>
      <point x="70.54" y="338.84000000000003"/>
      <point x="142.98" y="281.14"/>
      <point x="269.8" y="281.14" type="curve" smooth="yes"/>
      <point x="352.64000000000004" y="281.14"/>
      <point x="450.14" y="310.52000000000004"/>
      <point x="509.24000000000007" y="379.64" type="curve"/>
      <point x="513.24" y="420.9" type="line"/>
      <point x="458.12" y="350.12"/>
      <point x="367.15999999999997" y="313.64000000000004"/>
      <point x="275.74" y="313.64000000000004" type="curve" smooth="yes"/>
      <point x="159.49999999999997" y="313.64000000000004"/>
      <point x="106.28" y="366.94"/>
      <point x="106.28" y="471.91999999999996" type="curve" smooth="yes"/>
      <point x="106.28" y="594.54"/>
      <point x="185.78" y="676.96"/>
      <point x="304.58000000000004" y="676.96" type="curve" smooth="yes"/>
      <point x="437.48" y="676.96"/>
      <point x="507.87999999999994" y="604.28"/>
      <point x="507.87999999999994" y="456.84000000000003" type="curve" smooth="yes"/>
      <point x="507.87999999999994" y="308.12"/>
      <point x="468.58" y="188.35999999999999"/>
      <point x="398.73999999999995" y="113.88" type="curve" smooth="yes"/>
      <point x="344.35999999999996" y="54.86"/>
      <point x="272.52000000000004" y="23.22"/>
      <point x="187.78" y="23.22" type="curve" smooth="yes"/>
      <point x="135.12" y="23.22"/>
      <point x="87.85999999999999" y="33.76"/>
      <point x="44.58" y="55.86" type="curve"/>
      <point x="29.18" y="25.54" type="line"/>
      <point x="73.28" y="2.08"/>
      <point x="127.61999999999999" y="-10.0"/>
      <point x="188.04" y="-10.0" type="curve" smooth="yes"/>
      <point x="405.36" y="-10.0"/>
      <point x="543.44" y="167.98000000000002"/>
      <point x="543.44" y="461.11999999999995" type="curve" smooth="yes"/>
      <point x="543.44" y="625.36"/>
      <point x="460.91999999999996" y="710.0"/>
    </contour>
  </outline>
</glyph>
<glyph name="less" format="2">
  <advance width="420.258"/>
  <unicode hex="003C"/>
  <outline>
    <contour>
      <point x="341.394" y="80.29799999999999" type="line"/>
      <point x="346.536" y="115.29" type="line"/>
      <point x="82.24000000000001" y="291.286" type="line"/>
      <point x="402.71400000000006" y="467.846" type="line"/>
      <point x="407.856" y="504.312" type="line"/>
      <point x="54.124" y="311.012" type="line"/>
      <point x="48.238" y="274.176" type="line"/>
    </contour>
  </outline>
</glyph>
<glyph name="equal" format="2">
  <advance width="417.932"/>
  <unicode hex="003D"/>
  <outline>
    <contour>
      <point x="357.83" y="205.064" type="line"/>
      <point x="38.13" y="205.064" type="line"/>
      <point x="32.934000000000005" y="171.57200000000003" type="line"/>
      <point x="352.634" y="171.57200000000003" type="line"/>
    </contour>
    <contour>
      <point x="390.09999999999997" y="413.82" type="line"/>
      <point x="70.418" y="413.82" type="line"/>
      <point x="65.20400000000001" y="380.328" type="line"/>
      <point x="384.90399999999994" y="380.328" type="line"/>
    </contour>
  </outline>
</glyph>
<glyph name="greater" format="2">
  <advance width="420.258"/>
  <unicode hex="003E"/>
  <outline>
    <contour>
      <point x="372.0" y="272.538" type="line"/>
      <point x="377.814" y="308.834" type="line"/>
      <point x="84.23800000000001" y="502.85999999999996" type="line"/>
      <point x="79.024" y="468.21" type="line"/>
      <point x="343.956" y="291.83200000000005" type="line"/>
      <point x="23.464000000000002" y="116.2" type="line"/>
      <point x="17.740000000000002" y="79.206" type="line"/>
    </contour>
  </outline>
</glyph>
<glyph name="question" format="2">
  <advance width="402.86"/>
  <unicode hex="003F"/>
  <outline>
    <contour>
      <point x="163.36" y="262.548" type="line"/>
      <point x="195.65200000000002" y="262.548" type="line"/>
      <point x="207.216" y="334.596" type="line"/>
      <point x="342.428" y="400.93199999999996"/>
      <point x="422.848" y="465.51200000000006"/>
      <point x="422.848" y="607.748" type="curve" smooth="yes"/>
      <point x="422.848" y="709.9399999999999"/>
      <point x="348.31600000000003" y="750.0"/>
      <point x="270.65999999999997" y="750.0" type="curve" smooth="yes"/>
      <point x="206.10399999999996" y="750.0"/>
      <point x="133.78" y="725.872"/>
      <point x="75.164" y="685.0" type="curve"/>
      <point x="85.56" y="656.7280000000001" type="line"/>
      <point x="143.424" y="694.832"/>
      <point x="206.68400000000003" y="715.528"/>
      <point x="263.052" y="715.528" type="curve" smooth="yes"/>
      <point x="328.61600000000004" y="715.528"/>
      <point x="385.11999999999995" y="682.5959999999999"/>
      <point x="385.11999999999995" y="599.916" type="curve" smooth="yes"/>
      <point x="385.11999999999995" y="494.96400000000006"/>
      <point x="333.46400000000006" y="421.928"/>
      <point x="177.536" y="354.388" type="curve"/>
    </contour>
    <contour>
      <point x="120.49600000000001" y="14.452" type="curve" smooth="yes"/>
      <point x="120.04" y="2.896"/>
      <point x="124.508" y="-0.8999999999999999"/>
      <point x="139.892" y="-0.8999999999999999" type="curve" smooth="yes"/>
      <point x="162.76800000000003" y="-0.8999999999999999"/>
      <point x="169.056" y="6.22"/>
      <point x="170.42400000000004" y="35.096000000000004" type="curve" smooth="yes"/>
      <point x="170.88" y="47.58"/>
      <point x="165.284" y="50.88399999999999"/>
      <point x="150.57200000000003" y="50.88399999999999" type="curve" smooth="yes"/>
      <point x="128.64399999999998" y="50.88399999999999"/>
      <point x="121.864" y="43.656"/>
    </contour>
  </outline>
</glyph>
<glyph name="at" format="2">
  <advance width="679.54"/>
  <unicode hex="0040"/>
  <outline>
    <contour>
      <point x="269.9" y="-121.18" type="curve" smooth="yes"/>
      <point x="342.1" y="-121.18"/>
      <point x="412.46" y="-96.44000000000001"/>
      <point x="468.46000000000004" y="-48.14" type="curve"/>
      <point x="456.28000000000003" y="-31.840000000000003" type="line"/>
      <point x="403.73999999999995" y="-75.14"/>
      <point x="340.28000000000003" y="-97.7"/>
      <point x="273.08000000000004" y="-97.7" type="curve" smooth="yes"/>
      <point x="137.46" y="-97.7"/>
      <point x="56.94" y="-10.780000000000003"/>
      <point x="56.94" y="145.20000000000002" type="curve" smooth="yes"/>
      <point x="56.94" y="443.58"/>
      <point x="213.5" y="699.44"/>
      <point x="427.12" y="699.44" type="curve" smooth="yes"/>
      <point x="559.8000000000001" y="699.44"/>
      <point x="639.88" y="629.82"/>
      <point x="639.88" y="482.65999999999997" type="curve" smooth="yes"/>
      <point x="639.88" y="301.56"/>
      <point x="562.4599999999999" y="96.66"/>
      <point x="489.92" y="96.66" type="curve" smooth="yes"/>
      <point x="442.46" y="96.66"/>
      <point x="448.02" y="166.51999999999998"/>
      <point x="460.2" y="223.79999999999998" type="curve" smooth="yes"/>
      <point x="524.3800000000001" y="519.1" type="line"/>
      <point x="480.12" y="534.36"/>
      <point x="444.97999999999996" y="540.62"/>
      <point x="410.55999999999995" y="540.62" type="curve" smooth="yes"/>
      <point x="279.9" y="540.62"/>
      <point x="172.44" y="350.36"/>
      <point x="172.44" y="179.98000000000002" type="curve" smooth="yes"/>
      <point x="172.44" y="109.1"/>
      <point x="207.88" y="72.83999999999999"/>
      <point x="270.86" y="72.83999999999999" type="curve" smooth="yes"/>
      <point x="327.12" y="72.83999999999999"/>
      <point x="388.58000000000004" y="112.4"/>
      <point x="425.94" y="182.16000000000003" type="curve"/>
      <point x="422.28" y="124.7"/>
      <point x="431.24" y="71.30000000000001"/>
      <point x="488.14000000000004" y="71.30000000000001" type="curve" smooth="yes"/>
      <point x="582.9799999999999" y="71.30000000000001"/>
      <point x="664.9" y="295.90000000000003"/>
      <point x="664.9" y="486.55999999999995" type="curve" smooth="yes"/>
      <point x="664.9" y="640.96"/>
      <point x="575.04" y="724.56"/>
      <point x="429.1" y="724.56" type="curve" smooth="yes"/>
      <point x="201.0" y="724.56"/>
      <point x="32.559999999999995" y="463.18"/>
      <point x="32.559999999999995" y="138.3" type="curve" smooth="yes"/>
      <point x="32.559999999999995" y="-27.3"/>
      <point x="120.06" y="-121.18"/>
    </contour>
    <contour>
      <point x="282.41999999999996" y="103.44" type="curve" smooth="yes"/>
      <point x="232.12" y="103.44"/>
      <point x="206.38" y="132.82"/>
      <point x="206.38" y="188.76" type="curve" smooth="yes"/>
      <point x="206.38" y="340.32"/>
      <point x="305.16" y="513.0"/>
      <point x="404.12" y="513.0" type="curve" smooth="yes"/>
      <point x="433.04" y="513.0"/>
      <point x="458.41999999999996" y="509.0"/>
      <point x="488.62" y="498.53999999999996" type="curve"/>
      <point x="432.70000000000005" y="244.27999999999997" type="line" smooth="yes"/>
      <point x="402.67999999999995" y="159.12"/>
      <point x="338.0" y="103.44"/>
    </contour>
  </outline>
</glyph>
<glyph name="A" format="2">
  <advance width="531.6800000000001"/>
  <unicode hex="0041"/>
  <anchor x="221.02" y="0.0" name="bottom"/>
  <anchor x="471.12" y="0.0" name="ogonek"/>
  <anchor x="330.84" y="700.0" name="top"/>
  <outline>
    <contour>
      <point x="-27.44" y="0.0" type="line"/>
      <point x="12.999999999999998" y="0.0" type="line"/>
      <point x="114.34" y="209.84" type="line"/>
      <point x="396.56000000000006" y="209.84" type="line"/>
      <point x="431.49999999999994" y="0.0" type="line"/>
      <point x="471.12" y="0.0" type="line"/>
      <point x="351.72" y="709.46" type="line"/>
      <point x="312.6" y="709.46" type="line"/>
    </contour>
    <contour>
      <point x="128.38000000000002" y="242.7" type="line"/>
      <point x="324.86" y="657.76" type="line"/>
      <point x="393.02" y="242.7" type="line"/>
    </contour>
  </outline>
</glyph>
<glyph name="B" format="2">
  <advance width="558.99"/>
  <unicode hex="0042"/>
  <outline>
    <contour>
      <point x="33.506" y="-1.0059999999999993" type="line"/>
      <point x="125.004" y="-7.3100000000000005"/>
      <point x="172.96200000000002" y="-10.0"/>
      <point x="237.848" y="-10.0" type="curve" smooth="yes"/>
      <point x="382.854" y="-10.0"/>
      <point x="508.154" y="78.99"/>
      <point x="508.154" y="230.088" type="curve" smooth="yes"/>
      <point x="508.154" y="306.68"/>
      <point x="459.844" y="354.31399999999996"/>
      <point x="392.072" y="365.032" type="curve"/>
      <point x="475.294" y="390.56399999999996"/>
      <point x="531.5039999999999" y="488.474"/>
      <point x="531.5039999999999" y="579.5" type="curve" smooth="yes"/>
      <point x="531.5039999999999" y="672.446"/>
      <point x="470.09600000000006" y="710.0"/>
      <point x="337.622" y="710.0" type="curve" smooth="yes"/>
      <point x="292.29" y="710.0"/>
      <point x="239.674" y="707.146"/>
      <point x="144.306" y="699.914" type="curve"/>
    </contour>
    <contour>
      <point x="130.136" y="375.18399999999997" type="line"/>
      <point x="176.49400000000003" y="669.902" type="line"/>
      <point x="231.21" y="674.3040000000001"/>
      <point x="281.45399999999995" y="677.942"/>
      <point x="333.42600000000004" y="677.942" type="curve" smooth="yes"/>
      <point x="441.13400000000007" y="677.942"/>
      <point x="494.428" y="651.312"/>
      <point x="494.428" y="569.44" type="curve" smooth="yes"/>
      <point x="494.428" y="471.65000000000003"/>
      <point x="412.2" y="375.18399999999997"/>
      <point x="325.25800000000004" y="375.18399999999997" type="curve" smooth="yes"/>
    </contour>
    <contour>
      <point x="125.048" y="344.2" type="line"/>
      <point x="331.986" y="344.2" type="line" smooth="yes"/>
      <point x="394.656" y="344.2"/>
      <point x="470.812" y="312.162"/>
      <point x="470.812" y="225.936" type="curve" smooth="yes"/>
      <point x="470.812" y="97.31799999999998"/>
      <point x="366.156" y="22.716"/>
      <point x="242.162" y="22.716" type="curve" smooth="yes"/>
      <point x="179.51000000000002" y="22.716"/>
      <point x="139.48" y="26.246000000000002"/>
      <point x="75.28800000000001" y="30.084" type="curve"/>
    </contour>
  </outline>
</glyph>
<glyph name="C" format="2">
  <advance width="549.204"/>
  <unicode hex="0043"/>
  <anchor x="302.884" y="0.0" name="bottom"/>
  <anchor x="398.308" y="700.0" name="top"/>
  <outline>
    <contour>
      <point x="312.63199999999995" y="-10.0" type="curve" smooth="yes"/>
      <point x="381.452" y="-10.0"/>
      <point x="438.796" y="-1.5079999999999993"/>
      <point x="484.28399999999993" y="14.983999999999998" type="curve"/>
      <point x="478.41600000000005" y="46.38399999999999" type="line"/>
      <point x="434.876" y="31.940000000000005"/>
      <point x="380.284" y="23.939999999999998"/>
      <point x="318.068" y="23.939999999999998" type="curve" smooth="yes"/>
      <point x="171.32" y="23.939999999999998"/>
      <point x="88.74" y="90.58800000000002"/>
      <point x="88.74" y="229.384" type="curve" smooth="yes"/>
      <point x="88.74" y="486.34000000000003"/>
      <point x="208.44000000000003" y="676.0600000000001"/>
      <point x="395.028" y="676.0600000000001" type="curve" smooth="yes"/>
      <point x="453.32399999999996" y="676.0600000000001"/>
      <point x="501.41999999999996" y="668.7"/>
      <point x="557.9799999999999" y="652.5519999999999" type="curve"/>
      <point x="568.7919999999999" y="684.232" type="line"/>
      <point x="512.0400000000001" y="702.64"/>
      <point x="460.176" y="710.0"/>
      <point x="396.73599999999993" y="710.0" type="curve" smooth="yes"/>
      <point x="183.92000000000004" y="710.0"/>
      <point x="51.02" y="513.98"/>
      <point x="51.02" y="226.19199999999998" type="curve" smooth="yes"/>
      <point x="51.02" y="67.016"/>
      <point x="142.98400000000004" y="-10.0"/>
    </contour>
  </outline>
</glyph>
<glyph name="D" format="2">
  <advance width="607.4119999999998"/>
  <unicode hex="0044"/>
  <anchor x="240.53199999999998" y="0.0" name="bottom"/>
  <anchor x="303.69599999999997" y="350.0" name="center"/>
  <anchor x="338.19200000000006" y="700.0" name="top"/>
  <outline>
    <contour>
      <point x="215.13600000000002" y="-10.0" type="curve" smooth="yes"/>
      <point x="424.20799999999997" y="-10.0"/>
      <point x="576.2279999999998" y="159.03599999999997"/>
      <point x="576.2279999999998" y="434.78799999999995" type="curve" smooth="yes"/>
      <point x="576.2279999999998" y="644.944"/>
      <point x="454.748" y="710.0"/>
      <point x="305.38400000000007" y="710.0" type="curve" smooth="yes"/>
      <point x="248.6" y="710.0"/>
      <point x="200.21200000000005" y="707.9840000000002"/>
      <point x="144.252" y="703.6240000000001" type="curve"/>
      <point x="32.580000000000005" y="-2.9519999999999995" type="line"/>
      <point x="96.21600000000001" y="-8.46"/>
      <point x="140.65200000000002" y="-10.0"/>
    </contour>
    <contour>
      <point x="215.62400000000002" y="21.516" type="curve" smooth="yes"/>
      <point x="161.32399999999998" y="21.516"/>
      <point x="122.38400000000001" y="23.023999999999997"/>
      <point x="74.06800000000001" y="26.664" type="curve"/>
      <point x="176.584" y="672.1399999999998" type="line"/>
      <point x="206.98" y="674.96"/>
      <point x="259.724" y="676.96"/>
      <point x="305.7440000000001" y="676.96" type="curve" smooth="yes"/>
      <point x="427.968" y="676.96"/>
      <point x="538.7199999999999" y="623.896"/>
      <point x="538.7199999999999" y="432.60799999999995" type="curve" smooth="yes"/>
      <point x="538.7199999999999" y="179.384"/>
      <point x="400.672" y="21.516"/>
    </contour>
  </outline>
</glyph>
<glyph name="E" format="2">
  <advance width="503.968"/>
  <unicode hex="0045"/>
  <anchor x="233.864" y="0.0" name="bottom"/>
  <anchor x="430.344" y="0.0" name="ogonek"/>
  <anchor x="335.70000000000005" y="700.0" name="top"/>
  <anchor x="96.75599999999999" y="700.0" name="topleft"/>
  <outline>
    <contour>
      <point x="33.07200000000001" y="0.0" type="line"/>
      <point x="430.344" y="0.0" type="line"/>
      <point x="435.86400000000003" y="34.12" type="line"/>
      <point x="75.23200000000001" y="34.12" type="line"/>
      <point x="125.584" y="351.92" type="line"/>
      <point x="449.184" y="351.92" type="line"/>
      <point x="454.884" y="386.04" type="line"/>
      <point x="130.776" y="386.04" type="line"/>
      <point x="175.05999999999997" y="665.88" type="line"/>
      <point x="519.3480000000001" y="665.88" type="line"/>
      <point x="525.36" y="700.0" type="line"/>
      <point x="143.57999999999998" y="700.0" type="line"/>
    </contour>
  </outline>
</glyph>
<glyph name="F" format="2">
  <advance width="477.54999999999995"/>
  <unicode hex="0046"/>
  <outline>
    <contour>
      <point x="33.162" y="0.0" type="line"/>
      <point x="69.41799999999999" y="0.0" type="line"/>
      <point x="120.76400000000001" y="319.504" type="line"/>
      <point x="418.9800000000001" y="319.504" type="line"/>
      <point x="424.04600000000005" y="353.91200000000003" type="line"/>
      <point x="125.84800000000001" y="353.91200000000003" type="line"/>
      <point x="175.024" y="665.592" type="line"/>
      <point x="519.318" y="665.592" type="line"/>
      <point x="524.91" y="700.0" type="line"/>
      <point x="143.76" y="700.0" type="line"/>
    </contour>
  </outline>
</glyph>
<glyph name="G" format="2">
  <advance width="568.89"/>
  <unicode hex="0047"/>
  <anchor x="281.83" y="0.0" name="bottom"/>
  <anchor x="394.66400000000004" y="700.0" name="top"/>
  <outline>
    <contour>
      <point x="298.68399999999997" y="-10.0" type="curve" smooth="yes"/>
      <point x="370.248" y="-10.0"/>
      <point x="432.916" y="3.994"/>
      <point x="473.4440000000001" y="20.997999999999998" type="curve"/>
      <point x="523.378" y="335.388" type="line"/>
      <point x="309.726" y="335.388" type="line"/>
      <point x="304.728" y="303.86" type="line"/>
      <point x="483.936" y="303.86" type="line"/>
      <point x="442.728" y="45.35" type="line"/>
      <point x="409.07000000000005" y="31.413999999999998"/>
      <point x="359.788" y="22.482"/>
      <point x="303.704" y="22.482" type="curve" smooth="yes"/>
      <point x="177.72000000000003" y="22.482"/>
      <point x="87.062" y="85.39199999999998"/>
      <point x="87.062" y="227.836" type="curve" smooth="yes"/>
      <point x="87.062" y="487.2459999999999"/>
      <point x="210.17799999999997" y="676.42"/>
      <point x="394.058" y="676.42" type="curve" smooth="yes"/>
      <point x="451.56" y="676.42"/>
      <point x="495.11599999999993" y="668.9340000000001"/>
      <point x="551.326" y="652.62" type="curve"/>
      <point x="563.1639999999999" y="684.026" type="line"/>
      <point x="515.8640000000001" y="700.2900000000001"/>
      <point x="457.244" y="710.0"/>
      <point x="396.34200000000004" y="710.0" type="curve" smooth="yes"/>
      <point x="183.186" y="710.0"/>
      <point x="50.278" y="511.362"/>
      <point x="50.278" y="224.12" type="curve" smooth="yes"/>
      <point x="50.278" y="64.33"/>
      <point x="151.59799999999998" y="-10.0"/>
    </contour>
  </outline>
</glyph>
<glyph name="H" format="2">
  <advance width="624.822"/>
  <unicode hex="0048"/>
  <anchor x="269.06757600000003" y="0.0" name="bottom"/>
  <anchor x="324.811066" y="350.0" name="center"/>
  <anchor x="380.008102" y="700.0" name="top"/>
  <anchor x="86.050102" y="700.0" name="topleft"/>
  <outline>
    <contour>
      <point x="33.126" y="0.0" type="line"/>
      <point x="70.51" y="0.0" type="line"/>
      <point x="115.646" y="285.672" type="line"/>
      <point x="512.792" y="285.672" type="line"/>
      <point x="467.638" y="0.0" type="line"/>
      <point x="504.098" y="0.0" type="line"/>
      <point x="615.2420000000001" y="700.0" type="line"/>
      <point x="578.764" y="700.0" type="line"/>
      <point x="518.2040000000001" y="319.648" type="line"/>
      <point x="120.512" y="319.648" type="line"/>
      <point x="181.10799999999998" y="700.0" type="line"/>
      <point x="143.724" y="700.0" type="line"/>
    </contour>
  </outline>
</glyph>
<glyph name="I" format="2">
  <advance width="190.68800000000002"/>
  <unicode hex="0049"/>
  <anchor x="51.71159200000001" y="0.0" name="bottom"/>
  <anchor x="70.127512" y="0.5399999999999999" name="ogonek"/>
  <anchor x="162.656834" y="700.0" name="top"/>
  <anchor x="96.84490199999999" y="700.0" name="topleft"/>
  <outline>
    <contour>
      <point x="33.126" y="0.0" type="line"/>
      <point x="69.964" y="0.0" type="line"/>
      <point x="181.10799999999998" y="700.0" type="line"/>
      <point x="143.724" y="700.0" type="line"/>
    </contour>
  </outline>
</glyph>
<glyph name="J" format="2">
  <advance width="419.848"/>
  <unicode hex="004A"/>
  <anchor x="138.457976" y="0.0" name="bottom"/>
  <anchor x="272.612" y="700.0" name="top"/>
  <outline>
    <contour>
      <point x="-25.868" y="15.950000000000001" type="line"/>
      <point x="10.68" y="2.9800000000000004"/>
      <point x="52.80800000000001" y="-10.0"/>
      <point x="121.21400000000001" y="-10.0" type="curve" smooth="yes"/>
      <point x="243.612" y="-10.0"/>
      <point x="316.782" y="55.402"/>
      <point x="337.13800000000003" y="180.614" type="curve" smooth="yes"/>
      <point x="419.582" y="700.0" type="line"/>
      <point x="117.702" y="700.0" type="line"/>
      <point x="112.272" y="666.222" type="line"/>
      <point x="377.314" y="666.222" type="line"/>
      <point x="300.272" y="184.10600000000002" type="line" smooth="yes"/>
      <point x="282.086" y="69.516"/>
      <point x="212.08" y="24.857999999999997"/>
      <point x="120.44600000000001" y="24.857999999999997" type="curve" smooth="yes"/>
      <point x="57.78000000000001" y="24.857999999999997"/>
      <point x="18.442" y="38.262"/>
      <point x="-16.025999999999996" y="50.31399999999999" type="curve"/>
    </contour>
  </outline>
</glyph>
<glyph name="K" format="2">
  <advance width="544.592"/>
  <unicode hex="004B"/>
  <anchor x="242.48" y="0.0" name="bottom"/>
  <anchor x="333.02" y="700.0" name="top"/>
  <outline>
    <contour>
      <point x="32.508" y="0.0" type="line"/>
      <point x="70.364" y="0.0" type="line"/>
      <point x="180.50799999999998" y="700.0" type="line"/>
      <point x="143.832" y="700.0" type="line"/>
    </contour>
    <contour>
      <point x="482.832" y="-9.108" type="curve" smooth="yes"/>
      <point x="487.98400000000004" y="-9.108"/>
      <point x="496.54" y="-8.604000000000001"/>
      <point x="501.86400000000003" y="-6.424" type="curve"/>
      <point x="502.564" y="29.288" type="line"/>
      <point x="499.16799999999995" y="29.396"/>
      <point x="495.84400000000005" y="28.396"/>
      <point x="491.62800000000004" y="28.396" type="curve" smooth="yes"/>
      <point x="456.592" y="28.396"/>
      <point x="432.9" y="45.108"/>
      <point x="379.728" y="113.732" type="curve" smooth="yes"/>
      <point x="127.96799999999999" y="439.364" type="line"/>
      <point x="121.044" y="391.988" type="line"/>
      <point x="354.284" y="84.868" type="line" smooth="yes"/>
      <point x="410.592" y="11.360000000000001"/>
      <point x="436.89599999999996" y="-9.108"/>
    </contour>
    <contour>
      <point x="213.432" y="305.47200000000004" type="line"/>
      <point x="311.672" y="370.66799999999995"/>
      <point x="483.344" y="511.48"/>
      <point x="578.952" y="694.476" type="curve"/>
      <point x="550.4960000000001" y="709.82" type="line"/>
      <point x="448.44800000000004" y="526.7959999999999"/>
      <point x="287.93600000000004" y="393.704"/>
      <point x="196.14399999999998" y="332.30800000000005" type="curve"/>
    </contour>
  </outline>
</glyph>
<glyph name="L" format="2">
  <advance width="449.714"/>
  <unicode hex="004C"/>
  <anchor x="214.654" y="0.0" name="bottom"/>
  <anchor x="230.70506600000002" y="350.0" name="center"/>
  <anchor x="161.68800000000002" y="700.0" name="top"/>
  <anchor x="368.896" y="700.0" name="topright"/>
  <outline>
    <contour>
      <point x="32.580000000000005" y="0.0" type="line"/>
      <point x="394.414" y="0.0" type="line"/>
      <point x="399.93399999999997" y="33.922" type="line"/>
      <point x="74.866" y="33.922" type="line"/>
      <point x="180.56199999999998" y="700.0" type="line"/>
      <point x="143.724" y="700.0" type="line"/>
    </contour>
  </outline>
</glyph>
<glyph name="M" format="2">
  <advance width="697.7860000000001"/>
  <unicode hex="004D"/>
  <outline>
    <contour>
      <point x="32.525999999999996" y="0.0" type="line"/>
      <point x="68.74399999999999" y="0.0" type="line"/>
      <point x="168.55" y="643.864" type="line"/>
      <point x="336.17400000000004" y="267.75399999999996" type="line"/>
      <point x="358.32" y="267.75399999999996" type="line"/>
      <point x="645.812" y="643.972" type="line"/>
      <point x="541.862" y="0.0" type="line"/>
      <point x="577.062" y="0.0" type="line"/>
      <point x="688.2060000000001" y="700.0" type="line"/>
      <point x="646.558" y="700.0" type="line"/>
      <point x="354.05" y="313.36199999999997" type="line"/>
      <point x="182.094" y="700.0" type="line"/>
      <point x="143.724" y="700.0" type="line"/>
    </contour>
  </outline>
</glyph>
<glyph name="N" format="2">
  <advance width="622.3299999999999"/>
  <unicode hex="004E"/>
  <anchor x="268.89000000000004" y="0.0" name="bottom"/>
  <anchor x="379.62" y="700.0" name="top"/>
  <outline>
    <contour>
      <point x="33.49" y="0.0" type="line"/>
      <point x="68.97" y="0.0" type="line"/>
      <point x="169.47" y="641.4" type="line"/>
      <point x="467.09999999999997" y="-3.64" type="line"/>
      <point x="501.57000000000005" y="-3.64" type="line"/>
      <point x="612.7499999999999" y="700.0" type="line"/>
      <point x="578.09" y="700.0" type="line"/>
      <point x="477.23" y="57.44" type="line"/>
      <point x="180.96" y="703.64" type="line"/>
      <point x="144.67" y="703.64" type="line"/>
    </contour>
  </outline>
</glyph>
<glyph name="O" format="2">
  <advance width="635.0400000000001"/>
  <unicode hex="004F"/>
  <note>
8
</note>
  <anchor x="279.8" y="0.0" name="bottom"/>
  <anchor x="335.79999999999995" y="350.0" name="center"/>
  <anchor x="340.58000000000004" y="0.18" name="ogonek"/>
  <anchor x="385.79999999999995" y="700.0" name="top"/>
  <anchor x="95.10000000000001" y="700.0" name="topleft"/>
  <anchor x="498.21999999999997" y="682.26" name="topright"/>
  <outline>
    <contour>
      <point x="290.06" y="-9.46" type="curve" smooth="yes"/>
      <point x="484.28" y="-9.46"/>
      <point x="600.38" y="161.95999999999998"/>
      <point x="600.38" y="428.66" type="curve" smooth="yes"/>
      <point x="600.38" y="611.1"/>
      <point x="518.4" y="709.46"/>
      <point x="368.98" y="709.46" type="curve" smooth="yes"/>
      <point x="174.76000000000002" y="709.46"/>
      <point x="58.660000000000004" y="538.04"/>
      <point x="58.660000000000004" y="271.34" type="curve" smooth="yes"/>
      <point x="58.660000000000004" y="88.9"/>
      <point x="140.64000000000001" y="-9.46"/>
    </contour>
    <contour>
      <point x="291.04" y="23.3" type="curve" smooth="yes"/>
      <point x="167.95999999999998" y="23.3"/>
      <point x="96.02" y="111.66"/>
      <point x="96.02" y="272.53999999999996" type="curve" smooth="yes"/>
      <point x="96.02" y="512.98"/>
      <point x="198.12" y="676.7"/>
      <point x="368.17999999999995" y="676.7" type="curve" smooth="yes"/>
      <point x="491.08" y="676.7"/>
      <point x="563.02" y="588.3399999999999"/>
      <point x="563.02" y="427.46000000000004" type="curve" smooth="yes"/>
      <point x="563.02" y="187.01999999999998"/>
      <point x="460.92" y="23.3"/>
    </contour>
  </outline>
</glyph>
<glyph name="P" format="2">
  <advance width="548.9699999999999"/>
  <unicode hex="0050"/>
  <outline>
    <contour>
      <point x="33.49" y="0.0" type="line"/>
      <point x="70.22" y="0.0" type="line"/>
      <point x="112.69" y="266.56" type="line"/>
      <point x="169.24" y="264.38"/>
      <point x="204.17" y="263.47"/>
      <point x="271.29999999999995" y="263.47" type="curve" smooth="yes"/>
      <point x="453.97" y="263.47"/>
      <point x="548.5" y="352.90000000000003"/>
      <point x="549.41" y="526.22" type="curve" smooth="yes"/>
      <point x="549.41" y="649.1"/>
      <point x="479.05999999999995" y="710.0"/>
      <point x="310.01" y="710.0" type="curve" smooth="yes"/>
      <point x="279.12000000000006" y="710.0"/>
      <point x="240.09" y="707.91"/>
      <point x="144.67" y="701.9100000000001" type="curve"/>
    </contour>
    <contour>
      <point x="176.33" y="671.23" type="line"/>
      <point x="239.53" y="675.05"/>
      <point x="273.91999999999996" y="676.96"/>
      <point x="306.92" y="676.96" type="curve" smooth="yes"/>
      <point x="455.19" y="676.96"/>
      <point x="512.32" y="629.21"/>
      <point x="512.32" y="519.7" type="curve" smooth="yes"/>
      <point x="512.32" y="377.53000000000003"/>
      <point x="437.37" y="296.6"/>
      <point x="273.04" y="296.6" type="curve" smooth="yes"/>
      <point x="221.64000000000001" y="296.6"/>
      <point x="179.79000000000002" y="298.51"/>
      <point x="117.94" y="300.51" type="curve"/>
    </contour>
  </outline>
</glyph>
<glyph name="Q" format="2">
  <advance width="638.702"/>
  <unicode hex="0051"/>
  <note>
14
</note>
  <outline>
    <contour>
      <point x="440.04200000000003" y="-194.68599999999998" type="curve" smooth="yes"/>
      <point x="472.97400000000005" y="-194.68599999999998"/>
      <point x="502.01000000000005" y="-187.956"/>
      <point x="528.734" y="-174.46" type="curve"/>
      <point x="524.718" y="-143.546" type="line"/>
      <point x="499.34000000000003" y="-156.26399999999998"/>
      <point x="473.51" y="-161.904"/>
      <point x="446.062" y="-161.904" type="curve" smooth="yes"/>
      <point x="376.04799999999994" y="-161.904"/>
      <point x="317.004" y="-115.782"/>
      <point x="303.52799999999996" y="1.0059999999999998" type="curve"/>
      <point x="269.57200000000006" y="-1.234" type="line"/>
      <point x="287.372" y="-141.448"/>
      <point x="358.732" y="-194.68599999999998"/>
    </contour>
    <component base="O"/>
  </outline>
</glyph>
<glyph name="R" format="2">
  <advance width="572.9799999999999"/>
  <unicode hex="0052"/>
  <anchor x="261.76" y="0.0" name="bottom"/>
  <anchor x="320.58000000000004" y="700.0" name="top"/>
  <outline>
    <contour>
      <point x="33.400000000000006" y="0.0" type="line"/>
      <point x="70.4" y="0.0" type="line"/>
      <point x="117.96" y="298.46" type="line"/>
      <point x="175.8" y="296.64"/>
      <point x="230.82" y="295.82"/>
      <point x="303.04" y="295.64" type="curve"/>
      <point x="309.28000000000003" y="297.26" type="line"/>
      <point x="455.62" y="298.26"/>
      <point x="543.86" y="381.7"/>
      <point x="543.86" y="532.5" type="curve" smooth="yes"/>
      <point x="543.86" y="655.04"/>
      <point x="490.44000000000005" y="710.0"/>
      <point x="317.38" y="710.0" type="curve" smooth="yes"/>
      <point x="256.2" y="710.0"/>
      <point x="211.34" y="707.82"/>
      <point x="144.57999999999998" y="702.64" type="curve"/>
    </contour>
    <contour>
      <point x="518.1400000000001" y="-10.0" type="curve" smooth="yes"/>
      <point x="524.6800000000001" y="-10.0"/>
      <point x="532.3799999999999" y="-7.82"/>
      <point x="536.92" y="-6.46" type="curve"/>
      <point x="536.62" y="28.099999999999998" type="line"/>
      <point x="531.62" y="26.28"/>
      <point x="526.44" y="26.28"/>
      <point x="524.08" y="26.28" type="curve" smooth="yes"/>
      <point x="477.08000000000004" y="27.099999999999998"/>
      <point x="414.62" y="92.86"/>
      <point x="339.40000000000003" y="315.76000000000005" type="curve"/>
      <point x="302.76" y="308.44" type="line"/>
      <point x="386.37999999999994" y="63.199999999999996"/>
      <point x="450.82" y="-10.0"/>
    </contour>
    <contour>
      <point x="307.7" y="328.32" type="curve" smooth="yes"/>
      <point x="224.0" y="328.32"/>
      <point x="173.88" y="328.5"/>
      <point x="123.94" y="331.5" type="curve"/>
      <point x="177.24" y="672.5" type="line"/>
      <point x="233.16" y="676.32"/>
      <point x="259.36" y="678.1400000000001"/>
      <point x="315.02000000000004" y="678.1400000000001" type="curve" smooth="yes"/>
      <point x="465.3" y="678.1400000000001"/>
      <point x="505.96000000000004" y="636.5"/>
      <point x="505.96000000000004" y="532.7" type="curve" smooth="yes"/>
      <point x="505.96000000000004" y="401.28000000000003"/>
      <point x="434.65999999999997" y="328.32"/>
    </contour>
  </outline>
</glyph>
<glyph name="S" format="2">
  <advance width="508.34"/>
  <unicode hex="0053"/>
  <anchor x="204.0" y="0.0" name="bottom"/>
  <anchor x="327.58000000000004" y="700.0" name="top"/>
  <outline>
    <contour>
      <point x="497.68" y="681.1" type="line"/>
      <point x="440.24" y="700.46"/>
      <point x="393.46" y="710.0"/>
      <point x="334.12" y="710.0" type="curve" smooth="yes"/>
      <point x="175.82000000000002" y="710.0"/>
      <point x="90.04" y="637.2"/>
      <point x="90.04" y="526.96" type="curve" smooth="yes"/>
      <point x="90.04" y="311.98"/>
      <point x="414.4" y="358.61999999999995"/>
      <point x="413.58000000000004" y="171.24" type="curve" smooth="yes"/>
      <point x="413.58000000000004" y="83.72"/>
      <point x="346.82000000000005" y="24.220000000000002"/>
      <point x="212.10000000000002" y="24.220000000000002" type="curve" smooth="yes"/>
      <point x="142.29999999999998" y="24.220000000000002"/>
      <point x="64.12" y="38.4"/>
      <point x="7.0600000000000005" y="61.12" type="curve"/>
      <point x="-7.9799999999999995" y="28.080000000000002" type="line"/>
      <point x="57.1" y="3.36"/>
      <point x="134.44" y="-10.0"/>
      <point x="205.76" y="-10.0" type="curve" smooth="yes"/>
      <point x="373.15999999999997" y="-10.0"/>
      <point x="451.93999999999994" y="63.980000000000004"/>
      <point x="451.93999999999994" y="175.4" type="curve" smooth="yes"/>
      <point x="452.94" y="385.94"/>
      <point x="127.57999999999998" y="343.1"/>
      <point x="127.57999999999998" y="530.6800000000001" type="curve" smooth="yes"/>
      <point x="127.57999999999998" y="617.38"/>
      <point x="205.26000000000002" y="676.88"/>
      <point x="328.59999999999997" y="676.88" type="curve" smooth="yes"/>
      <point x="385.58" y="676.88"/>
      <point x="433.74" y="667.7"/>
      <point x="483.46" y="648.52" type="curve"/>
    </contour>
  </outline>
</glyph>
<glyph name="T" format="2">
  <advance width="458.53200000000004"/>
  <unicode hex="0054"/>
  <anchor x="185.28997600000002" y="0.0" name="bottom"/>
  <anchor x="241.21542200000002" y="350.0" name="center"/>
  <anchor x="296.396834" y="700.0" name="top"/>
  <outline>
    <contour>
      <point x="513.164" y="666.942" type="line"/>
      <point x="518.648" y="700.0" type="line"/>
      <point x="74.19" y="700.0" type="line"/>
      <point x="68.67000000000002" y="666.942" type="line"/>
      <point x="272.47" y="666.942" type="line"/>
      <point x="166.72" y="0.0" type="line"/>
      <point x="203.55800000000002" y="0.0" type="line"/>
      <point x="309.27200000000005" y="666.942" type="line"/>
    </contour>
  </outline>
</glyph>
<glyph name="U" format="2">
  <advance width="606.1239999999999"/>
  <unicode hex="0055"/>
  <anchor x="259.30195999999995" y="0.0" name="bottom"/>
  <anchor x="308.012" y="0.0" name="ogonek"/>
  <anchor x="367.74217" y="700.0" name="top"/>
  <anchor x="604.166" y="700.0" name="topright"/>
  <outline>
    <contour>
      <point x="257.046" y="-10.0" type="curve" smooth="yes"/>
      <point x="415.54800000000006" y="-10.0"/>
      <point x="503.476" y="57.790000000000006"/>
      <point x="526.016" y="198.43200000000002" type="curve" smooth="yes"/>
      <point x="605.858" y="700.0" type="line"/>
      <point x="568.7260000000001" y="700.0" type="line"/>
      <point x="488.43" y="197.53199999999998" type="line" smooth="yes"/>
      <point x="470.23600000000005" y="81.73"/>
      <point x="395.682" y="23.363999999999997"/>
      <point x="263.694" y="23.363999999999997" type="curve" smooth="yes"/>
      <point x="138.42200000000003" y="23.363999999999997"/>
      <point x="74.31" y="82.42"/>
      <point x="91.13799999999999" y="187.70400000000004" type="curve" smooth="yes"/>
      <point x="171.378" y="700.0" type="line"/>
      <point x="134.792" y="700.0" type="line"/>
      <point x="54.222" y="188.422" type="line" smooth="yes"/>
      <point x="51.260000000000005" y="169.142"/>
      <point x="50.752" y="161.352"/>
      <point x="50.752" y="146.972" type="curve" smooth="yes"/>
      <point x="50.752" y="45.578"/>
      <point x="124.48799999999999" y="-10.0"/>
    </contour>
  </outline>
</glyph>
<glyph name="V" format="2">
  <advance width="515.006"/>
  <unicode hex="0056"/>
  <outline>
    <contour>
      <point x="227.686" y="0.0" type="line"/>
      <point x="504.72" y="496.086"/>
      <point x="551.52" y="595.0"/>
      <point x="553.95" y="668.81" type="curve" smooth="yes"/>
      <point x="554.04" y="679.5759999999999"/>
      <point x="553.22" y="689.3059999999999"/>
      <point x="550.616" y="700.0" type="curve"/>
      <point x="513.5360000000001" y="700.0" type="line"/>
      <point x="515.32" y="688.7199999999999"/>
      <point x="516.356" y="679.2059999999999"/>
      <point x="516.356" y="671.17" type="curve" smooth="yes"/>
      <point x="516.356" y="601.79"/>
      <point x="468.838" y="508.608"/>
      <point x="214.342" y="41.839999999999996" type="curve"/>
      <point x="112.53999999999999" y="703.6759999999999" type="line"/>
      <point x="74.00999999999999" y="700.91" type="line"/>
      <point x="184.896" y="0.0" type="line"/>
    </contour>
  </outline>
</glyph>
<glyph name="W" format="2">
  <advance width="799.3199999999999"/>
  <unicode hex="0057"/>
  <anchor x="350.98" y="0.0" name="bottom"/>
  <anchor x="468.16" y="700.0" name="top"/>
  <outline>
    <contour>
      <point x="556.7" y="-0.8200000000000001" type="line"/>
      <point x="791.78" y="494.58000000000004"/>
      <point x="839.2199999999999" y="610.68"/>
      <point x="839.58" y="672.9" type="curve" smooth="yes"/>
      <point x="839.58" y="682.5400000000001"/>
      <point x="838.7600000000001" y="690.5400000000001"/>
      <point x="836.94" y="700.0" type="curve"/>
      <point x="799.1199999999999" y="700.0" type="line"/>
      <point x="800.9399999999999" y="691.1800000000001"/>
      <point x="802.58" y="684.1800000000001"/>
      <point x="802.58" y="673.54" type="curve" smooth="yes"/>
      <point x="801.5000000000001" y="609.0"/>
      <point x="762.2199999999999" y="514.64"/>
      <point x="544.34" y="51.02" type="curve"/>
      <point x="478.6" y="640.62" type="line"/>
      <point x="434.97999999999996" y="640.62" type="line"/>
      <point x="353.38" y="447.3"/>
      <point x="269.7" y="245.9"/>
      <point x="186.66" y="54.64" type="curve"/>
      <point x="113.82" y="700.0" type="line"/>
      <point x="75.1" y="700.0" type="line"/>
      <point x="156.54" y="-0.8200000000000001" type="line"/>
      <point x="196.32" y="-0.8200000000000001" type="line"/>
      <point x="281.72" y="196.88"/>
      <point x="366.58" y="392.94"/>
      <point x="449.28000000000003" y="587.94" type="curve"/>
      <point x="515.9200000000001" y="-0.8200000000000001" type="line"/>
    </contour>
  </outline>
</glyph>
<glyph name="X" format="2">
  <advance width="532.54"/>
  <unicode hex="0058"/>
  <outline>
    <contour>
      <point x="454.3" y="-6.28" type="line"/>
      <point x="491.36" y="1.0" type="line"/>
      <point x="300.85999999999996" y="358.38" type="line"/>
      <point x="448.46" y="484.48"/>
      <point x="534.8000000000001" y="577.62"/>
      <point x="554.2400000000001" y="701.64" type="curve"/>
      <point x="516.1800000000001" y="704.46" type="line"/>
      <point x="495.70000000000005" y="586.84"/>
      <point x="430.6" y="512.16"/>
      <point x="287.09999999999997" y="386.98" type="curve"/>
      <point x="119.16" y="706.46" type="line"/>
      <point x="82.28" y="698.36" type="line"/>
      <point x="258.78" y="365.9" type="line"/>
      <point x="108.7" y="248.8"/>
      <point x="20.8" y="147.92"/>
      <point x="3.5799999999999996" y="0.0" type="curve"/>
      <point x="43.279999999999994" y="0.0" type="line"/>
      <point x="60.5" y="133.65999999999997"/>
      <point x="130.48" y="221.51999999999998"/>
      <point x="274.08000000000004" y="336.58000000000004" type="curve"/>
    </contour>
  </outline>
</glyph>
<glyph name="Y" format="2">
  <advance width="485.464"/>
  <unicode hex="0059"/>
  <anchor x="196.01999999999998" y="0.0" name="bottom"/>
  <anchor x="311.93" y="700.0" name="top"/>
  <anchor x="86.018" y="700.0" name="topleft"/>
  <outline>
    <contour>
      <point x="184.696" y="0.0" type="line"/>
      <point x="221.192" y="0.0" type="line"/>
      <point x="270.842" y="300.558" type="line"/>
      <point x="419.714" y="439.848"/>
      <point x="489.77799999999996" y="540.694"/>
      <point x="523.786" y="659.1339999999999" type="curve" smooth="yes"/>
      <point x="527.642" y="672.72"/>
      <point x="532.606" y="687.36"/>
      <point x="536.5880000000001" y="701.9459999999999" type="curve"/>
      <point x="497.39200000000005" y="706.4419999999999" type="line"/>
      <point x="493.59" y="691.928"/>
      <point x="489.806" y="678.36"/>
      <point x="486.07599999999996" y="663.8459999999999" type="curve" smooth="yes"/>
      <point x="455.76" y="556.4039999999999"/>
      <point x="401.55" y="464.024"/>
      <point x="256.948" y="332.14799999999997" type="curve"/>
      <point x="108.818" y="705.424" type="line"/>
      <point x="71.172" y="699.0899999999999" type="line"/>
      <point x="233.38200000000003" y="300.558" type="line"/>
    </contour>
  </outline>
</glyph>
<glyph name="Z" format="2">
  <advance width="494.34000000000003"/>
  <unicode hex="005A"/>
  <anchor x="208.04" y="0.0" name="bottom"/>
  <anchor x="255.94000000000003" y="350.0" name="center"/>
  <anchor x="313.21999999999997" y="700.0" name="top"/>
  <outline>
    <contour>
      <point x="-20.36" y="0.0" type="line"/>
      <point x="436.26" y="0.0" type="line"/>
      <point x="441.6" y="33.22" type="line"/>
      <point x="30.779999999999998" y="33.22" type="line"/>
      <point x="518.54" y="670.5999999999999" type="line"/>
      <point x="522.88" y="700.0" type="line"/>
      <point x="115.55999999999999" y="700.0" type="line"/>
      <point x="110.22" y="666.78" type="line"/>
      <point x="472.38" y="666.78" type="line"/>
      <point x="-15.2" y="29.04" type="line"/>
    </contour>
  </outline>
</glyph>
<glyph name="bracketleft" format="2">
  <advance width="286.798"/>
  <unicode hex="005B"/>
  <outline>
    <contour>
      <point x="53.612" y="-179.94" type="line"/>
      <point x="194.976" y="710.304" type="line"/>
      <point x="341.496" y="710.304" type="line"/>
      <point x="346.476" y="740.0" type="line"/>
      <point x="167.48600000000002" y="740.0" type="line"/>
      <point x="16.744" y="-210.0" type="line"/>
      <point x="195.098" y="-210.0" type="line"/>
      <point x="200.132" y="-179.94" type="line"/>
    </contour>
  </outline>
</glyph>
<glyph name="backslash" format="2">
  <advance width="348.616"/>
  <unicode hex="005C"/>
  <outline>
    <contour>
      <point x="116.08599999999998" y="740.0" type="line"/>
      <point x="84.614" y="740.0" type="line"/>
      <point x="265.458" y="-210.0" type="line"/>
      <point x="296.87600000000003" y="-210.0" type="line"/>
    </contour>
  </outline>
</glyph>
<glyph name="bracketright" format="2">
  <advance width="286.798"/>
  <unicode hex="005D"/>
  <outline>
    <contour>
      <point x="-56.788" y="-179.94" type="line"/>
      <point x="-61.732" y="-210.0" type="line"/>
      <point x="115.712" y="-210.0" type="line"/>
      <point x="267.09000000000003" y="740.0" type="line"/>
      <point x="88.64599999999999" y="740.0" type="line"/>
      <point x="83.612" y="709.9399999999999" type="line"/>
      <point x="230.13200000000003" y="709.9399999999999" type="line"/>
      <point x="88.71400000000001" y="-179.94" type="line"/>
    </contour>
  </outline>
</glyph>
<glyph name="asciicircum" format="2">
  <advance width="418.61800000000005"/>
  <unicode hex="005E"/>
  <outline>
    <contour>
      <point x="43.604" y="273.13800000000003" type="line"/>
      <point x="75.554" y="273.13800000000003" type="line"/>
      <point x="271.284" y="669.376" type="line"/>
      <point x="343.53400000000005" y="273.13800000000003" type="line"/>
      <point x="374.702" y="273.13800000000003" type="line"/>
      <point x="293.802" y="709.1" type="line"/>
      <point x="260.112" y="709.1" type="line"/>
    </contour>
  </outline>
</glyph>
<glyph name="underscore" format="2">
  <advance width="736.9680000000001"/>
  <unicode hex="005F"/>
  <outline>
    <contour>
      <point x="-56.98799999999999" y="-142.606" type="line"/>
      <point x="661.688" y="-142.606" type="line"/>
      <point x="666.956" y="-110.014" type="line"/>
      <point x="-51.72" y="-110.014" type="line"/>
    </contour>
  </outline>
</glyph>
<glyph name="a" format="2">
  <advance width="479.22400000000005"/>
  <unicode hex="0061"/>
  <note>
15
</note>
  <anchor x="193.84" y="0.0" name="bottom"/>
  <anchor x="440.7" y="0.9" name="ogonek"/>
  <anchor x="288.384" y="531.8" name="top"/>
  <outline>
    <contour>
      <point x="394.79200000000003" y="-10.0" type="curve" smooth="yes"/>
      <point x="411.28" y="-10.0"/>
      <point x="427.8" y="-6.295999999999999"/>
      <point x="441.028" y="-0.08400000000000013" type="curve"/>
      <point x="438.812" y="28.4" type="line"/>
      <point x="428.18800000000005" y="24.087999999999997"/>
      <point x="418.38400000000007" y="21.776"/>
      <point x="407.4320000000001" y="21.776" type="curve" smooth="yes"/>
      <point x="383.3640000000001" y="21.776"/>
      <point x="372.592" y="35.711999999999996"/>
      <point x="372.592" y="64.24000000000001" type="curve" smooth="yes"/>
      <point x="372.592" y="71.912"/>
      <point x="388.85600000000005" y="174.876"/>
      <point x="443.136" y="513.5559999999999" type="curve"/>
      <point x="407.616" y="531.08"/>
      <point x="357.364" y="541.8"/>
      <point x="309.896" y="541.8" type="curve" smooth="yes"/>
      <point x="141.14800000000002" y="541.8"/>
      <point x="30.396" y="389.892"/>
      <point x="30.396" y="168.324" type="curve" smooth="yes"/>
      <point x="30.396" y="52.032000000000004"/>
      <point x="85.82000000000001" y="-10.0"/>
      <point x="183.148" y="-10.0" type="curve" smooth="yes"/>
      <point x="238.68800000000002" y="-10.0"/>
      <point x="296.77200000000005" y="10.655999999999999"/>
      <point x="337.952" y="40.868" type="curve"/>
      <point x="342.62" y="9.492"/>
      <point x="363.812" y="-10.0"/>
    </contour>
    <contour>
      <point x="335.4599999999999" y="69.16" type="line"/>
      <point x="296.29200000000003" y="41.647999999999996"/>
      <point x="241.04000000000002" y="22.907999999999998"/>
      <point x="192.936" y="22.907999999999998" type="curve" smooth="yes"/>
      <point x="113.35199999999999" y="22.907999999999998"/>
      <point x="67.544" y="76.14399999999999"/>
      <point x="67.544" y="173.712" type="curve" smooth="yes"/>
      <point x="67.544" y="375.15999999999997"/>
      <point x="167.916" y="510.97200000000004"/>
      <point x="303.456" y="510.97200000000004" type="curve" smooth="yes"/>
      <point x="343.26400000000007" y="510.97200000000004"/>
      <point x="376.956" y="504.512"/>
      <point x="402.04" y="491.56" type="curve"/>
    </contour>
  </outline>
</glyph>
<glyph name="b" format="2">
  <advance width="480.16600000000005"/>
  <unicode hex="0062"/>
  <note>
12
</note>
  <outline>
    <contour>
      <point x="184.228" y="740.0" type="line"/>
      <point x="147.948" y="740.0" type="line"/>
      <point x="32.85600000000001" y="11.718" type="line"/>
      <point x="75.024" y="-0.8259999999999996"/>
      <point x="120.25400000000002" y="-10.0"/>
      <point x="173.384" y="-10.0" type="curve" smooth="yes"/>
      <point x="333.682" y="-10.0"/>
      <point x="448.964" y="166.026"/>
      <point x="448.874" y="367.364" type="curve" smooth="yes"/>
      <point x="448.87399999999997" y="480.98800000000006"/>
      <point x="401.97" y="541.8"/>
      <point x="307.52400000000006" y="541.8" type="curve" smooth="yes"/>
      <point x="246.78199999999998" y="541.8"/>
      <point x="196.046" y="516.7879999999999"/>
      <point x="142.95000000000002" y="482.05600000000004" type="curve"/>
    </contour>
    <contour>
      <point x="295.072" y="508.676" type="curve" smooth="yes"/>
      <point x="377.39400000000006" y="508.676"/>
      <point x="412.32399999999996" y="447.9960000000001"/>
      <point x="412.32399999999996" y="359.864" type="curve" smooth="yes"/>
      <point x="412.32399999999996" y="181.93599999999998"/>
      <point x="309.60999999999996" y="21.233999999999998"/>
      <point x="175.0" y="21.233999999999998" type="curve" smooth="yes"/>
      <point x="134.336" y="21.233999999999998"/>
      <point x="98.03999999999999" y="28.876"/>
      <point x="73.30000000000001" y="36.516" type="curve"/>
      <point x="138.15" y="448.264" type="line"/>
      <point x="194.55599999999998" y="488.662"/>
      <point x="246.49800000000002" y="508.676"/>
    </contour>
  </outline>
</glyph>
<glyph name="c" format="2">
  <advance width="417.82"/>
  <unicode hex="0063"/>
  <note>
10
</note>
  <anchor x="217.28799999999998" y="0.0" name="bottom"/>
  <anchor x="296.59999999999997" y="531.8" name="top"/>
  <outline>
    <contour>
      <point x="214.156" y="-10.0" type="curve" smooth="yes"/>
      <point x="273.66400000000004" y="-10.0"/>
      <point x="319.904" y="-0.6719999999999997"/>
      <point x="358.54" y="12.064000000000002" type="curve"/>
      <point x="353.624" y="42.040000000000006" type="line"/>
      <point x="316.85600000000005" y="31.056"/>
      <point x="276.068" y="22.596"/>
      <point x="222.688" y="22.596" type="curve" smooth="yes"/>
      <point x="126.85999999999999" y="22.596"/>
      <point x="67.496" y="75.24"/>
      <point x="67.496" y="167.756" type="curve" smooth="yes"/>
      <point x="67.496" y="356.204"/>
      <point x="165.096" y="508.04"/>
      <point x="295.79600000000005" y="508.04" type="curve" smooth="yes"/>
      <point x="337.56800000000004" y="508.04"/>
      <point x="376.224" y="502.74399999999997"/>
      <point x="418.30400000000003" y="489.744" type="curve"/>
      <point x="429.476" y="522.62" type="line"/>
      <point x="385.46" y="535.6200000000001"/>
      <point x="343.59600000000006" y="541.8"/>
      <point x="298.97600000000006" y="541.8" type="curve" smooth="yes"/>
      <point x="140.67600000000002" y="541.8"/>
      <point x="31.708" y="381.304"/>
      <point x="31.708" y="162.66400000000002" type="curve" smooth="yes"/>
      <point x="31.708" y="54.440000000000005"/>
      <point x="98.772" y="-10.0"/>
    </contour>
  </outline>
</glyph>
<glyph name="d" format="2">
  <advance width="482.7"/>
  <unicode hex="0064"/>
  <note>
17
</note>
  <anchor x="189.68800000000005" y="0.0" name="bottom"/>
  <anchor x="244.08800000000002" y="326.78000000000003" name="center"/>
  <anchor x="309.68" y="740.0" name="top"/>
  <anchor x="558.3599999999999" y="740.0" name="topright"/>
  <outline>
    <contour>
      <point x="394.79200000000003" y="-10.0" type="curve" smooth="yes"/>
      <point x="408.116" y="-10.0"/>
      <point x="424.308" y="-6.787999999999999"/>
      <point x="439.536" y="-0.08400000000000013" type="curve"/>
      <point x="436.15600000000006" y="28.4" type="line"/>
      <point x="426.696" y="24.579999999999995"/>
      <point x="415.908" y="21.776"/>
      <point x="404.464" y="21.776" type="curve" smooth="yes"/>
      <point x="382.216" y="21.776"/>
      <point x="370.116" y="35.04"/>
      <point x="370.116" y="60.568000000000005" type="curve" smooth="yes"/>
      <point x="370.116" y="68.99199999999999"/>
      <point x="421.044" y="384.968"/>
      <point x="477.12" y="740.0" type="curve"/>
      <point x="440.65999999999997" y="740.0" type="line"/>
      <point x="406.856" y="526.6359999999999" type="line"/>
      <point x="376.23199999999997" y="534.6519999999999"/>
      <point x="342.90399999999994" y="541.8"/>
      <point x="297.96799999999996" y="541.8" type="curve" smooth="yes"/>
      <point x="141.18" y="541.8"/>
      <point x="29.232000000000003" y="379.104"/>
      <point x="29.232000000000003" y="158.43599999999998" type="curve" smooth="yes"/>
      <point x="29.232000000000003" y="46.392"/>
      <point x="88.14800000000001" y="-10.0"/>
      <point x="179.376" y="-10.0" type="curve" smooth="yes"/>
      <point x="233.9" y="-10.0"/>
      <point x="298.132" y="12.18"/>
      <point x="335.1480000000001" y="39.048" type="curve"/>
      <point x="340.63599999999997" y="7.36"/>
      <point x="361.32" y="-10.0"/>
    </contour>
    <contour>
      <point x="188.46" y="23.58" type="curve" smooth="yes"/>
      <point x="114.828" y="23.58"/>
      <point x="65.888" y="72.488"/>
      <point x="65.888" y="159.728" type="curve" smooth="yes"/>
      <point x="65.888" y="350.64799999999997"/>
      <point x="163.76800000000003" y="510.97200000000004"/>
      <point x="297.99600000000004" y="510.97200000000004" type="curve" smooth="yes"/>
      <point x="342.44399999999996" y="510.97200000000004"/>
      <point x="373.988" y="503.34799999999996"/>
      <point x="401.87600000000003" y="496.2" type="curve"/>
      <point x="334.132" y="66.84800000000001" type="line"/>
      <point x="294.308" y="40.828"/>
      <point x="239.876" y="23.58"/>
    </contour>
  </outline>
</glyph>
<glyph name="e" format="2">
  <advance width="450.9"/>
  <unicode hex="0065"/>
  <note>
14 points
</note>
  <anchor x="219.584" y="0.0" name="bottom"/>
  <anchor x="325.128" y="5.344" name="ogonek"/>
  <anchor x="299.83200000000005" y="532.964" name="top"/>
  <outline>
    <contour>
      <point x="66.37200000000001" y="275.21999999999997" type="curve"/>
      <point x="62.324" y="246.748" type="line"/>
      <point x="106.80000000000001" y="244.24"/>
      <point x="161.88400000000001" y="246.23999999999998"/>
      <point x="213.89999999999998" y="255.06" type="curve" smooth="yes"/>
      <point x="358.9" y="280.044"/>
      <point x="445.08" y="343.828"/>
      <point x="445.08" y="437.596" type="curve" smooth="yes"/>
      <point x="445.08" y="501.96799999999996"/>
      <point x="391.74" y="541.8"/>
      <point x="302.98800000000006" y="541.8" type="curve" smooth="yes"/>
      <point x="141.56" y="541.8"/>
      <point x="34.528000000000006" y="401.19599999999997"/>
      <point x="34.528000000000006" y="190.208" type="curve" smooth="yes"/>
      <point x="34.528000000000006" y="65.212"/>
      <point x="101.556" y="-10.0"/>
      <point x="217.744" y="-10.0" type="curve" smooth="yes"/>
      <point x="275.692" y="-10.0"/>
      <point x="338.46" y="3.148"/>
      <point x="389.08000000000004" y="26.492" type="curve"/>
      <point x="381.28" y="56.51599999999999" type="line"/>
      <point x="325.72400000000005" y="33.20400000000001"/>
      <point x="272.692" y="22.056"/>
      <point x="222.16400000000002" y="22.056" type="curve" smooth="yes"/>
      <point x="126.86400000000002" y="22.056"/>
      <point x="70.136" y="86.82000000000001"/>
      <point x="70.136" y="192.85999999999999" type="curve" smooth="yes"/>
      <point x="70.136" y="380.69599999999997"/>
      <point x="166.70400000000004" y="511.0039999999999"/>
      <point x="297.22400000000005" y="511.0039999999999" type="curve" smooth="yes"/>
      <point x="368.184" y="511.0039999999999"/>
      <point x="409.65200000000004" y="483.508"/>
      <point x="409.65200000000004" y="431.764" type="curve" smooth="yes"/>
      <point x="409.65200000000004" y="357.872"/>
      <point x="333.97200000000004" y="305.8960000000001"/>
      <point x="210.46800000000002" y="284.5" type="curve" smooth="yes"/>
      <point x="161.168" y="276.03999999999996"/>
      <point x="110.376" y="272.384"/>
    </contour>
  </outline>
</glyph>
<glyph name="f" format="2">
  <advance width="291.888"/>
  <unicode hex="0066"/>
  <outline>
    <contour>
      <point x="-47.364000000000004" y="-220.0" type="curve" smooth="yes"/>
      <point x="28.556" y="-220.0"/>
      <point x="65.94200000000001" y="-161.344"/>
      <point x="86.77600000000001" y="-28.937999999999995" type="curve" smooth="yes"/>
      <point x="162.906" y="454.596" type="line"/>
      <point x="325.294" y="454.596" type="line"/>
      <point x="330.364" y="486.43" type="line"/>
      <point x="167.94" y="486.43" type="line"/>
      <point x="192.958" y="648.3480000000001"/>
      <point x="239.274" y="716.2399999999999"/>
      <point x="326.23400000000004" y="716.2399999999999" type="curve" smooth="yes"/>
      <point x="365.96000000000004" y="716.2399999999999"/>
      <point x="394.83" y="709.02"/>
      <point x="429.664" y="698.78" type="curve"/>
      <point x="440.49399999999997" y="729.92" type="line"/>
      <point x="400.03999999999996" y="743.7339999999999"/>
      <point x="365.512" y="750.0"/>
      <point x="328.444" y="750.0" type="curve" smooth="yes"/>
      <point x="219.70600000000002" y="750.0"/>
      <point x="161.268" y="673.862"/>
      <point x="131.35" y="486.43" type="curve"/>
      <point x="47.82" y="480.23599999999993" type="line"/>
      <point x="43.768" y="454.596" type="line"/>
      <point x="126.28000000000002" y="454.596" type="line"/>
      <point x="50.238" y="-29.028000000000002" type="line" smooth="yes"/>
      <point x="33.117999999999995" y="-136.624"/>
      <point x="8.399999999999999" y="-188.078"/>
      <point x="-52.894" y="-188.078" type="curve" smooth="yes"/>
      <point x="-66.808" y="-188.078"/>
      <point x="-79.318" y="-185.822"/>
      <point x="-96.086" y="-180.16600000000003" type="curve"/>
      <point x="-104.576" y="-210.594" type="line"/>
      <point x="-85.922" y="-217.20399999999998"/>
      <point x="-67.886" y="-220.0"/>
    </contour>
  </outline>
</glyph>
<glyph name="g" format="2">
  <advance width="476.996"/>
  <unicode hex="0067"/>
  <note>
16
</note>
  <anchor x="147.66" y="-214.18" name="bottom"/>
  <anchor x="286.416" y="531.8" name="top"/>
  <outline>
    <contour>
      <point x="3.644000000000001" y="-193.67600000000002" type="line"/>
      <point x="47.984" y="-210.26399999999998"/>
      <point x="101.864" y="-220.0"/>
      <point x="151.84" y="-220.0" type="curve" smooth="yes"/>
      <point x="269.09200000000004" y="-220.0"/>
      <point x="335.644" y="-152.184"/>
      <point x="357.34799999999996" y="-12.075999999999993" type="curve" smooth="yes"/>
      <point x="441.79200000000003" y="515.276" type="line"/>
      <point x="406.384" y="531.26"/>
      <point x="357.824" y="541.8"/>
      <point x="311.28799999999995" y="541.8" type="curve" smooth="yes"/>
      <point x="128.416" y="541.8"/>
      <point x="29.544" y="365.504"/>
      <point x="29.544" y="164.72" type="curve" smooth="yes"/>
      <point x="29.544" y="57.488"/>
      <point x="85.676" y="-7.840000000000001"/>
      <point x="181.1" y="-7.840000000000001" type="curve" smooth="yes"/>
      <point x="226.332" y="-7.840000000000001"/>
      <point x="284.85600000000005" y="9.948"/>
      <point x="329.152" y="38.148" type="curve"/>
      <point x="321.872" y="-10.040000000000003" type="line" smooth="yes"/>
      <point x="303.28000000000003" y="-133.248"/>
      <point x="247.276" y="-188.272"/>
      <point x="148.43200000000002" y="-188.272" type="curve" smooth="yes"/>
      <point x="104.352" y="-188.272"/>
      <point x="54.388000000000005" y="-178.568"/>
      <point x="13.964" y="-162.552" type="curve"/>
    </contour>
    <contour>
      <point x="401.532" y="492.592" type="curve"/>
      <point x="334.788" y="72.24000000000001" type="line"/>
      <point x="297.62000000000006" y="45.4"/>
      <point x="234.94" y="24.168"/>
      <point x="192.952" y="24.168" type="curve" smooth="yes"/>
      <point x="114.172" y="24.168"/>
      <point x="66.69200000000001" y="77.816"/>
      <point x="66.69200000000001" y="174.58" type="curve" smooth="yes"/>
      <point x="66.69200000000001" y="352.668"/>
      <point x="160.456" y="511.0040000000001"/>
      <point x="305.916" y="511.0040000000001" type="curve" smooth="yes"/>
      <point x="349.248" y="511.0040000000001"/>
      <point x="376.79200000000003" y="501.7079999999999"/>
    </contour>
  </outline>
</glyph>
<glyph name="h" format="2">
  <advance width="496.1"/>
  <unicode hex="0068"/>
  <note>
16
</note>
  <anchor x="214.256" y="0.0" name="bottom"/>
  <anchor x="265.304" y="370.9" name="center"/>
  <anchor x="324.552" y="740.0" name="top"/>
  <outline>
    <contour>
      <point x="390.156" y="58.763999999999996" type="curve" smooth="yes"/>
      <point x="390.156" y="95.96400000000001"/>
      <point x="444.02799999999996" y="390.29200000000003"/>
      <point x="444.02799999999996" y="435.54" type="curve" smooth="yes"/>
      <point x="444.02799999999996" y="499.916"/>
      <point x="409.488" y="541.8"/>
      <point x="331.212" y="541.8" type="curve" smooth="yes"/>
      <point x="263.83200000000005" y="541.8"/>
      <point x="205.172" y="517.06"/>
      <point x="144.024" y="486.35599999999994" type="curve"/>
      <point x="184.336" y="740.0" type="line"/>
      <point x="147.876" y="740.0" type="line"/>
      <point x="30.695999999999998" y="0.0" type="line"/>
      <point x="67.156" y="0.0" type="line"/>
      <point x="138.552" y="453.17999999999995" type="line"/>
      <point x="198.592" y="484.856"/>
      <point x="254.484" y="508.89200000000005"/>
      <point x="315.132" y="508.89200000000005" type="curve" smooth="yes"/>
      <point x="382.288" y="508.89200000000005"/>
      <point x="405.668" y="474.724"/>
      <point x="405.668" y="426.47200000000004" type="curve" smooth="yes"/>
      <point x="405.668" y="376.69599999999997"/>
      <point x="353.108" y="91.32000000000001"/>
      <point x="353.108" y="48.384" type="curve" smooth="yes"/>
      <point x="353.108" y="10.176"/>
      <point x="378.82400000000007" y="-10.0"/>
      <point x="413.324" y="-10.0" type="curve" smooth="yes"/>
      <point x="426.82800000000003" y="-10.0"/>
      <point x="443.676" y="-7.952"/>
      <point x="459.41200000000003" y="-0.5919999999999999" type="curve"/>
      <point x="457.032" y="29.072000000000003" type="line"/>
      <point x="445.24399999999997" y="24.432000000000002"/>
      <point x="434.45599999999996" y="22.596"/>
      <point x="424.996" y="22.596" type="curve" smooth="yes"/>
      <point x="402.092" y="22.596"/>
      <point x="390.156" y="35.204"/>
    </contour>
  </outline>
</glyph>
<glyph name="i" format="2">
  <advance width="185.304"/>
  <unicode hex="0069"/>
  <note>
Ajuster pts sur points
8
</note>
  <anchor x="48.239984" y="0.0" name="bottom"/>
  <anchor x="66.846" y="0.0" name="ogonek"/>
  <anchor x="132.878016" y="531.8" name="top"/>
  <outline>
    <contour>
      <point x="31.094" y="0.0" type="line"/>
      <point x="66.846" y="0.0" type="line"/>
      <point x="151.08" y="531.8" type="line"/>
      <point x="114.854" y="531.8" type="line"/>
    </contour>
    <contour>
      <point x="162.886" y="717.2" type="curve" smooth="yes"/>
      <point x="141.618" y="717.2"/>
      <point x="135.89200000000002" y="710.6899999999999"/>
      <point x="133.89000000000001" y="681.3" type="curve" smooth="yes"/>
      <point x="133.34400000000002" y="669.434"/>
      <point x="141.282" y="666.406"/>
      <point x="152.876" y="666.406" type="curve" smooth="yes"/>
      <point x="175.01" y="666.406"/>
      <point x="180.198" y="672.5200000000001"/>
      <point x="182.564" y="702.76" type="curve" smooth="yes"/>
      <point x="183.10999999999999" y="714.2260000000001"/>
      <point x="176.20999999999998" y="717.2"/>
    </contour>
  </outline>
</glyph>
<glyph name="j" format="2">
  <advance width="192.80800000000002"/>
  <unicode hex="006A"/>
  <note>
idem /i
12
</note>
  <outline>
    <contour>
      <point x="170.426" y="717.2" type="curve" smooth="yes"/>
      <point x="149.122" y="717.2"/>
      <point x="144.16" y="710.6899999999999"/>
      <point x="142.158" y="681.3" type="curve" smooth="yes"/>
      <point x="141.612" y="669.434"/>
      <point x="148.91199999999998" y="666.406"/>
      <point x="160.50599999999997" y="666.406" type="curve" smooth="yes"/>
      <point x="181.494" y="666.406"/>
      <point x="187.01000000000002" y="672.5200000000001"/>
      <point x="189.376" y="702.76" type="curve" smooth="yes"/>
      <point x="189.922" y="714.2260000000001"/>
      <point x="183.75" y="717.2"/>
    </contour>
    <contour>
      <point x="158.70999999999998" y="531.8" type="line"/>
      <point x="122.394" y="531.8" type="line"/>
      <point x="29.312" y="-57.972" type="line" smooth="yes"/>
      <point x="16.524" y="-138.52"/>
      <point x="-7.195999999999995" y="-188.078"/>
      <point x="-63.38999999999999" y="-188.078" type="curve" smooth="yes"/>
      <point x="-77.75999999999999" y="-188.078"/>
      <point x="-92.818" y="-186.222"/>
      <point x="-112.00800000000002" y="-179.146" type="curve"/>
      <point x="-120.116" y="-210.18599999999998" type="line"/>
      <point x="-102.154" y="-217.456"/>
      <point x="-75.988" y="-220.0"/>
      <point x="-59.36" y="-220.0" type="curve" smooth="yes"/>
      <point x="13.805999999999997" y="-220.0"/>
      <point x="48.728" y="-164.428"/>
      <point x="64.80799999999999" y="-61.532" type="curve" smooth="yes"/>
    </contour>
  </outline>
</glyph>
<glyph name="l" format="2">
  <advance width="217.948"/>
  <unicode hex="006C"/>
  <anchor x="115.924" y="0.0" name="bottom"/>
  <anchor x="109.94621599999999" y="370.9" name="center"/>
  <anchor x="165.95200000000003" y="740.0" name="top"/>
  <anchor x="265.76" y="740.0" name="topright"/>
  <outline>
    <contour>
      <point x="147.912" y="740.0" type="line"/>
      <point x="46.774" y="102.26" type="line" smooth="yes"/>
      <point x="45.212" y="91.288"/>
      <point x="43.012" y="75.256"/>
      <point x="43.012" y="61.18600000000001" type="curve" smooth="yes"/>
      <point x="43.012" y="19.426"/>
      <point x="63.717999999999996" y="-10.0"/>
      <point x="116.558" y="-10.0" type="curve" smooth="yes"/>
      <point x="141.114" y="-10.0"/>
      <point x="165.94" y="-5.134"/>
      <point x="186.538" y="1.71" type="curve"/>
      <point x="183.722" y="31.864" type="line"/>
      <point x="163.99400000000003" y="26.208000000000002"/>
      <point x="147.07999999999998" y="22.752"/>
      <point x="129.692" y="22.752" type="curve" smooth="yes"/>
      <point x="90.22999999999999" y="22.752"/>
      <point x="80.1" y="44.932"/>
      <point x="80.1" y="67.758" type="curve" smooth="yes"/>
      <point x="80.1" y="84.40599999999999"/>
      <point x="83.24799999999999" y="101.38000000000001"/>
      <point x="86.286" y="119.95400000000001" type="curve" smooth="yes"/>
      <point x="184.538" y="740.0" type="line"/>
    </contour>
  </outline>
</glyph>
<glyph name="m" format="2">
  <advance width="746.556"/>
  <unicode hex="006D"/>
  <note>
24&gt;23 points
un point de trop dans la jointure avec 2e jambage
</note>
  <outline>
    <contour>
      <point x="663.7439999999999" y="-10.0" type="curve" smooth="yes"/>
      <point x="677.1760000000002" y="-10.0"/>
      <point x="694.2040000000001" y="-8.042"/>
      <point x="709.904" y="-0.6459999999999999" type="curve"/>
      <point x="707.452" y="28.748" type="line"/>
      <point x="695.7900000000001" y="24.108"/>
      <point x="684.84" y="22.434"/>
      <point x="675.416" y="22.434" type="curve" smooth="yes"/>
      <point x="652.548" y="22.434"/>
      <point x="640.2680000000001" y="34.858000000000004"/>
      <point x="640.2680000000001" y="58.598" type="curve" smooth="yes"/>
      <point x="640.2680000000001" y="96.824"/>
      <point x="694.392" y="390.562"/>
      <point x="694.392" y="435.75600000000003" type="curve" smooth="yes"/>
      <point x="694.392" y="499.664"/>
      <point x="659.7819999999999" y="541.8"/>
      <point x="581.5600000000001" y="541.8" type="curve" smooth="yes"/>
      <point x="521.594" y="541.8"/>
      <point x="464.16" y="516.974"/>
      <point x="405.56399999999996" y="479.90999999999997" type="curve"/>
      <point x="392.25600000000003" y="517.346"/>
      <point x="359.14599999999996" y="541.8"/>
      <point x="304.718" y="541.8" type="curve" smooth="yes"/>
      <point x="249.10999999999999" y="541.8"/>
      <point x="195.816" y="517.7"/>
      <point x="141.626" y="485.69200000000006" type="curve"/>
      <point x="148.68" y="531.8" type="line"/>
      <point x="114.272" y="531.8" type="line"/>
      <point x="30.366000000000003" y="0.0" type="line"/>
      <point x="66.628" y="0.0" type="line"/>
      <point x="138.496" y="454.594" type="line"/>
      <point x="192.518" y="487.784"/>
      <point x="241.554" y="508.91"/>
      <point x="290.428" y="508.91" type="curve" smooth="yes"/>
      <point x="355.98400000000004" y="508.91"/>
      <point x="376.54" y="470.70000000000005"/>
      <point x="376.54" y="424.05400000000003" type="curve" smooth="yes"/>
      <point x="376.54" y="398.932"/>
      <point x="333.074" y="135.66400000000002"/>
      <point x="313.096" y="0.0" type="curve"/>
      <point x="349.706" y="0.0" type="line"/>
      <point x="369.198" y="131.67399999999998"/>
      <point x="411.386" y="394.84200000000004"/>
      <point x="413.042" y="428.236" type="curve" smooth="yes"/>
      <point x="413.132" y="436.256"/>
      <point x="412.474" y="445.32"/>
      <point x="411.29" y="452.66799999999995" type="curve"/>
      <point x="461.46999999999997" y="484.308"/>
      <point x="511.68999999999994" y="508.802"/>
      <point x="568.2260000000001" y="508.802" type="curve" smooth="yes"/>
      <point x="632.834" y="508.802"/>
      <point x="655.7760000000001" y="474.41400000000004"/>
      <point x="655.7760000000001" y="424.198" type="curve" smooth="yes"/>
      <point x="655.7760000000001" y="374.586"/>
      <point x="603.598" y="91.77"/>
      <point x="603.598" y="48.528" type="curve" smooth="yes"/>
      <point x="603.598" y="9.816"/>
      <point x="629.316" y="-10.0"/>
    </contour>
  </outline>
</glyph>
<glyph name="n" format="2">
  <advance width="495.00800000000004"/>
  <unicode hex="006E"/>
  <note>
16
</note>
  <anchor x="219.618" y="0.0" name="bottom"/>
  <anchor x="282.118" y="531.8" name="top"/>
  <outline>
    <contour>
      <point x="114.272" y="531.8" type="line"/>
      <point x="30.366000000000003" y="0.0" type="line"/>
      <point x="66.592" y="0.0" type="line"/>
      <point x="138.186" y="453.35999999999996" type="line"/>
      <point x="199.906" y="485.912"/>
      <point x="253.392" y="509.456"/>
      <point x="314.27400000000006" y="509.456" type="curve" smooth="yes"/>
      <point x="380.958" y="509.456"/>
      <point x="405.1" y="474.666"/>
      <point x="405.1" y="424.378" type="curve" smooth="yes"/>
      <point x="405.1" y="375.63"/>
      <point x="352.886" y="92.13"/>
      <point x="352.886" y="48.096000000000004" type="curve" smooth="yes"/>
      <point x="352.886" y="10.193999999999999"/>
      <point x="377.876" y="-10.0"/>
      <point x="412.304" y="-10.0" type="curve" smooth="yes"/>
      <point x="425.73600000000005" y="-10.0"/>
      <point x="442.656" y="-8.042"/>
      <point x="458.356" y="-0.6459999999999999" type="curve"/>
      <point x="455.90400000000005" y="28.748" type="line"/>
      <point x="444.242" y="24.108"/>
      <point x="433.292" y="22.434"/>
      <point x="423.868" y="22.434" type="curve" smooth="yes"/>
      <point x="401.0" y="22.434"/>
      <point x="389.44800000000004" y="35.06"/>
      <point x="389.44800000000004" y="58.638" type="curve" smooth="yes"/>
      <point x="389.44800000000004" y="95.89200000000001"/>
      <point x="443.62600000000003" y="390.184"/>
      <point x="443.62600000000003" y="435.432" type="curve" smooth="yes"/>
      <point x="443.62600000000003" y="500.276"/>
      <point x="407.586" y="541.8"/>
      <point x="330.06600000000003" y="541.8" type="curve" smooth="yes"/>
      <point x="262.38" y="541.8"/>
      <point x="204.57999999999998" y="517.41"/>
      <point x="141.06" y="484.054" type="curve"/>
      <point x="148.788" y="531.8" type="line"/>
    </contour>
  </outline>
</glyph>
<glyph name="o" format="2">
  <advance width="477.91999999999996"/>
  <unicode hex="006F"/>
  <note>
8
</note>
  <anchor x="212.98000000000002" y="0.0" name="bottom"/>
  <anchor x="246.06" y="269.53999999999996" name="center"/>
  <anchor x="269.2" y="3.2800000000000002" name="ogonek"/>
  <anchor x="279.88000000000005" y="531.8" name="top"/>
  <anchor x="362.44" y="525.4399999999999" name="topright"/>
  <outline>
    <contour>
      <point x="202.92000000000002" y="-10.0" type="curve" smooth="yes"/>
      <point x="354.32" y="-10.0"/>
      <point x="438.9" y="157.61999999999998"/>
      <point x="438.9" y="360.20000000000005" type="curve" smooth="yes"/>
      <point x="438.9" y="479.62000000000006"/>
      <point x="376.84" y="541.98"/>
      <point x="271.9" y="541.98" type="curve" smooth="yes"/>
      <point x="121.87999999999998" y="541.98"/>
      <point x="35.2" y="366.91999999999996"/>
      <point x="35.2" y="169.78" type="curve" smooth="yes"/>
      <point x="35.2" y="49.08"/>
      <point x="94.08" y="-10.0"/>
    </contour>
    <contour>
      <point x="203.48000000000002" y="21.14" type="curve" smooth="yes"/>
      <point x="115.6" y="21.14"/>
      <point x="71.12" y="67.89999999999999"/>
      <point x="71.12" y="172.88000000000002" type="curve" smooth="yes"/>
      <point x="71.12" y="345.20000000000005"/>
      <point x="146.66" y="510.84"/>
      <point x="271.44000000000005" y="510.84" type="curve" smooth="yes"/>
      <point x="355.14" y="510.84"/>
      <point x="402.62000000000006" y="459.97999999999996"/>
      <point x="402.62000000000006" y="357.90000000000003" type="curve" smooth="yes"/>
      <point x="402.62000000000006" y="178.42"/>
      <point x="330.36" y="21.14"/>
    </contour>
  </outline>
</glyph>
<glyph name="p" format="2">
  <advance width="480.53000000000003"/>
  <unicode hex="0070"/>
  <note>
14 point
</note>
  <outline>
    <contour>
      <point x="-2.0519999999999987" y="-210.0" type="line"/>
      <point x="33.592" y="-210.0" type="line"/>
      <point x="67.684" y="4.096" type="line"/>
      <point x="96.694" y="-3.3619999999999997"/>
      <point x="131.518" y="-9.91"/>
      <point x="174.346" y="-9.91" type="curve" smooth="yes"/>
      <point x="340.22" y="-9.91"/>
      <point x="448.874" y="163.19"/>
      <point x="448.874" y="366.092" type="curve" smooth="yes"/>
      <point x="448.874" y="483.084"/>
      <point x="400.148" y="541.8"/>
      <point x="308.07200000000006" y="541.8" type="curve" smooth="yes"/>
      <point x="245.16200000000003" y="541.8"/>
      <point x="195.428" y="516.2520000000001"/>
      <point x="141.60000000000002" y="481.52" type="curve"/>
      <point x="147.24" y="537.26" type="line"/>
      <point x="115.39999999999999" y="537.26" type="line"/>
    </contour>
    <contour>
      <point x="172.088" y="21.233999999999998" type="curve" smooth="yes"/>
      <point x="131.424" y="21.233999999999998"/>
      <point x="98.03999999999999" y="28.694"/>
      <point x="72.754" y="36.333999999999996" type="curve"/>
      <point x="137.786" y="447.9" type="line"/>
      <point x="191.28" y="486.296"/>
      <point x="245.58599999999998" y="508.676"/>
      <point x="295.252" y="508.676" type="curve" smooth="yes"/>
      <point x="371.75" y="508.676"/>
      <point x="412.32399999999996" y="458.37"/>
      <point x="412.32399999999996" y="358.408" type="curve" smooth="yes"/>
      <point x="412.32399999999996" y="180.48"/>
      <point x="315.07000000000005" y="21.233999999999998"/>
    </contour>
  </outline>
</glyph>
<glyph name="q" format="2">
  <advance width="476.34200000000004"/>
  <unicode hex="0071"/>
  <note>
12
</note>
  <outline>
    <contour>
      <point x="441.75800000000004" y="520.0820000000001" type="line"/>
      <point x="400.50200000000007" y="531.5339999999999"/>
      <point x="352.64000000000004" y="541.8"/>
      <point x="300.95000000000005" y="541.8" type="curve" smooth="yes"/>
      <point x="113.622" y="541.8"/>
      <point x="29.016000000000005" y="322.63599999999997"/>
      <point x="29.016000000000005" y="154.06199999999998" type="curve" smooth="yes"/>
      <point x="29.016000000000005" y="49.536"/>
      <point x="86.018" y="-10.0"/>
      <point x="173.17200000000003" y="-10.0" type="curve" smooth="yes"/>
      <point x="231.73399999999998" y="-10.0"/>
      <point x="281.02000000000004" y="11.006000000000002"/>
      <point x="330.664" y="47.37800000000001" type="curve"/>
      <point x="288.478" y="-210.0" type="line"/>
      <point x="325.66999999999996" y="-210.0" type="line"/>
    </contour>
    <contour>
      <point x="401.678" y="495.65199999999993" type="curve"/>
      <point x="335.554" y="79.71600000000001" type="line"/>
      <point x="281.15200000000004" y="39.046"/>
      <point x="232.66800000000003" y="22.854"/>
      <point x="183.72800000000004" y="22.854" type="curve" smooth="yes"/>
      <point x="110.682" y="22.854"/>
      <point x="64.748" y="78.17200000000001"/>
      <point x="64.748" y="157.46599999999998" type="curve" smooth="yes"/>
      <point x="64.748" y="326.476"/>
      <point x="146.89000000000001" y="510.842"/>
      <point x="297.614" y="510.842" type="curve" smooth="yes"/>
      <point x="337.17999999999995" y="510.842"/>
      <point x="374.57" y="502.746"/>
    </contour>
  </outline>
</glyph>
<glyph name="r" format="2">
  <advance width="341.84"/>
  <unicode hex="0072"/>
  <anchor x="47.736000000000004" y="0.0" name="bottom"/>
  <anchor x="240.49" y="531.8" name="top"/>
  <outline>
    <contour>
      <point x="148.13600000000002" y="531.8" type="line"/>
      <point x="114.344" y="531.8" type="line"/>
      <point x="30.330000000000002" y="0.0" type="line"/>
      <point x="66.102" y="0.0" type="line"/>
      <point x="133.27800000000002" y="424.85200000000003" type="line"/>
      <point x="196.892" y="483.824"/>
      <point x="251.16" y="506.53400000000005"/>
      <point x="300.386" y="506.53400000000005" type="curve" smooth="yes"/>
      <point x="322.718" y="506.53400000000005"/>
      <point x="347.77599999999995" y="502.624"/>
      <point x="368.374" y="496.26" type="curve"/>
      <point x="379.96" y="530.472" type="line"/>
      <point x="361.982" y="537.198"/>
      <point x="335.63" y="541.8"/>
      <point x="307.22200000000004" y="541.8" type="curve" smooth="yes"/>
      <point x="253.79400000000004" y="541.8"/>
      <point x="199.774" y="518.068"/>
      <point x="137.098" y="463.884" type="curve"/>
    </contour>
  </outline>
</glyph>
<glyph name="s" format="2">
  <advance width="419.5"/>
  <unicode hex="0073"/>
  <anchor x="167.14000000000001" y="0.0" name="bottom"/>
  <anchor x="259.34000000000003" y="531.8" name="top"/>
  <outline>
    <contour>
      <point x="-5.160000000000001" y="20.54" type="line"/>
      <point x="37.0" y="3.1799999999999997"/>
      <point x="95.36" y="-10.0"/>
      <point x="163.34" y="-10.0" type="curve" smooth="yes"/>
      <point x="300.24" y="-10.0"/>
      <point x="366.56" y="49.379999999999995"/>
      <point x="366.56" y="133.83999999999997" type="curve" smooth="yes"/>
      <point x="366.56" y="300.92"/>
      <point x="104.41999999999999" y="266.56"/>
      <point x="104.41999999999999" y="406.3" type="curve" smooth="yes"/>
      <point x="104.41999999999999" y="466.44"/>
      <point x="154.20000000000002" y="510.65999999999997"/>
      <point x="259.90000000000003" y="510.65999999999997" type="curve" smooth="yes"/>
      <point x="309.0" y="510.65999999999997"/>
      <point x="353.97999999999996" y="499.65999999999997"/>
      <point x="390.7" y="486.48" type="curve"/>
      <point x="401.48" y="517.26" type="line"/>
      <point x="366.40000000000003" y="531.62"/>
      <point x="312.86" y="541.8"/>
      <point x="265.16" y="541.8" type="curve" smooth="yes"/>
      <point x="130.20000000000002" y="541.8"/>
      <point x="69.68" y="481.72"/>
      <point x="69.68" y="404.14000000000004" type="curve" smooth="yes"/>
      <point x="69.68" y="236.52000000000004"/>
      <point x="331.0" y="275.52"/>
      <point x="331.0" y="128.96" type="curve" smooth="yes"/>
      <point x="331.0" y="66.17999999999999"/>
      <point x="276.58" y="21.14"/>
      <point x="168.7" y="21.14" type="curve" smooth="yes"/>
      <point x="105.32000000000001" y="21.14"/>
      <point x="46.34" y="35.5"/>
      <point x="6.62" y="52.5" type="curve"/>
    </contour>
  </outline>
</glyph>
<glyph name="t" format="2">
  <advance width="326.608"/>
  <unicode hex="0074"/>
  <anchor x="168.83" y="0.0" name="bottom"/>
  <anchor x="155.65200000000002" y="306.668" name="center"/>
  <anchor x="174.37000000000003" y="664.406" name="top"/>
  <anchor x="333.088" y="763.17" name="topright"/>
  <outline>
    <contour>
      <point x="279.638" y="41.949999999999996" type="line"/>
      <point x="248.034" y="31.472"/>
      <point x="214.98" y="23.885999999999996"/>
      <point x="184.218" y="23.885999999999996" type="curve" smooth="yes"/>
      <point x="124.52799999999999" y="23.885999999999996"/>
      <point x="102.934" y="52.612"/>
      <point x="102.934" y="101.696" type="curve" smooth="yes"/>
      <point x="102.934" y="114.266"/>
      <point x="104.444" y="127.8"/>
      <point x="106.718" y="143.062" type="curve" smooth="yes"/>
      <point x="163.402" y="500.694" type="line"/>
      <point x="349.03600000000006" y="500.694" type="line"/>
      <point x="354.286" y="531.8" type="line"/>
      <point x="168.54399999999998" y="531.8" type="line"/>
      <point x="189.566" y="664.406" type="line"/>
      <point x="161.322" y="664.406" type="line"/>
      <point x="132.51600000000002" y="531.8" type="line"/>
      <point x="40.342000000000006" y="525.2959999999999" type="line"/>
      <point x="35.800000000000004" y="500.74800000000005" type="line"/>
      <point x="127.15800000000002" y="500.74800000000005" type="line"/>
      <point x="70.34800000000001" y="141.60399999999998" type="line" smooth="yes"/>
      <point x="67.168" y="123.016"/>
      <point x="65.55199999999999" y="102.96"/>
      <point x="65.55199999999999" y="89.20599999999999" type="curve" smooth="yes"/>
      <point x="65.55199999999999" y="22.041999999999998"/>
      <point x="100.74000000000001" y="-10.0"/>
      <point x="169.86200000000002" y="-10.0" type="curve" smooth="yes"/>
      <point x="201.272" y="-10.0"/>
      <point x="241.192" y="-4.004"/>
      <point x="283.22" y="11.248000000000001" type="curve"/>
    </contour>
  </outline>
</glyph>
<glyph name="u" format="2">
  <advance width="485.58000000000004"/>
  <unicode hex="0075"/>
  <note>
15
</note>
  <anchor x="197.058" y="0.0" name="bottom"/>
  <anchor x="443.27" y="1.7459999999999998" name="ogonek"/>
  <anchor x="275.814024" y="531.8" name="top"/>
  <anchor x="444.17400000000004" y="531.8" name="topright"/>
  <outline>
    <contour>
      <point x="155.348" y="-10.0" type="curve" smooth="yes"/>
      <point x="220.778" y="-10.0"/>
      <point x="274.01399999999995" y="10.490000000000002"/>
      <point x="339.336" y="48.248" type="curve"/>
      <point x="342.46799999999996" y="7.388000000000001"/>
      <point x="363.72" y="-10.0"/>
      <point x="397.226" y="-10.0" type="curve" smooth="yes"/>
      <point x="408.034" y="-10.0"/>
      <point x="429.03000000000003" y="-5.6080000000000005"/>
      <point x="443.27" y="2.142" type="curve"/>
      <point x="440.564" y="29.24" type="line"/>
      <point x="428.286" y="24.492"/>
      <point x="415.11400000000003" y="21.762"/>
      <point x="408.528" y="21.762" type="curve" smooth="yes"/>
      <point x="384.676" y="21.762"/>
      <point x="374.326" y="34.623999999999995"/>
      <point x="374.326" y="62.948" type="curve" smooth="yes"/>
      <point x="374.326" y="74.464"/>
      <point x="376.418" y="97.57000000000001"/>
      <point x="445.79400000000004" y="531.8" type="curve"/>
      <point x="409.294" y="531.8" type="line"/>
      <point x="338.992" y="76.40400000000001" type="line"/>
      <point x="277.49" y="41.304"/>
      <point x="228.134" y="22.164"/>
      <point x="168.58200000000002" y="22.164" type="curve" smooth="yes"/>
      <point x="111.708" y="22.164"/>
      <point x="83.07200000000002" y="53.55"/>
      <point x="83.17999999999999" y="99.32000000000001" type="curve" smooth="yes"/>
      <point x="84.152" y="119.332"/>
      <point x="86.52" y="141.332"/>
      <point x="147.988" y="531.8" type="curve"/>
      <point x="111.798" y="531.8" type="line"/>
      <point x="60.980000000000004" y="200.108"/>
      <point x="46.071999999999996" y="119.48800000000001"/>
      <point x="46.071999999999996" y="87.94" type="curve" smooth="yes"/>
      <point x="46.071999999999996" y="28.772000000000002"/>
      <point x="83.95200000000001" y="-10.0"/>
    </contour>
  </outline>
</glyph>
<glyph name="v" format="2">
  <advance width="413.312"/>
  <unicode hex="0076"/>
  <outline>
    <contour>
      <point x="183.454" y="-1.784" type="line"/>
      <point x="374.452" y="362.784"/>
      <point x="425.43800000000005" y="425.7"/>
      <point x="427.89599999999996" y="531.8" type="curve"/>
      <point x="391.68" y="531.8" type="line"/>
      <point x="386.66200000000003" y="433.20799999999997"/>
      <point x="351.38399999999996" y="394.902"/>
      <point x="167.96599999999998" y="35.949999999999996" type="curve"/>
      <point x="84.66799999999999" y="535.4399999999999" type="line"/>
      <point x="48.182" y="532.692" type="line"/>
      <point x="141.61" y="-1.784" type="line"/>
    </contour>
  </outline>
</glyph>
<glyph name="w" format="2">
  <advance width="645.826"/>
  <unicode hex="0077"/>
  <note>
15
</note>
  <anchor x="293.76199999999994" y="0.0" name="bottom"/>
  <anchor x="353.202" y="531.8" name="top"/>
  <outline>
    <contour>
      <point x="432.59799999999996" y="0.0" type="line"/>
      <point x="618.4339999999999" y="365.666"/>
      <point x="655.05" y="435.122"/>
      <point x="659.6179999999999" y="531.8" type="curve"/>
      <point x="625.508" y="531.8" type="line"/>
      <point x="618.688" y="438.68600000000004"/>
      <point x="594.554" y="389.45"/>
      <point x="418.53399999999993" y="40.14" type="curve"/>
      <point x="374.398" y="499.986" type="line"/>
      <point x="334.24600000000004" y="499.986" type="line"/>
      <point x="266.712" y="345.21000000000004"/>
      <point x="200.268" y="193.51200000000003"/>
      <point x="132.30200000000002" y="40.248000000000005" type="curve"/>
      <point x="81.83999999999999" y="535.4399999999999" type="line"/>
      <point x="46.974" y="532.728" type="line"/>
      <point x="103.91" y="0.0" type="line"/>
      <point x="146.02399999999997" y="0.0" type="line"/>
      <point x="213.19799999999998" y="149.32999999999998"/>
      <point x="280.912" y="300.622"/>
      <point x="347.222" y="449.23199999999997" type="curve"/>
      <point x="392.032" y="0.0" type="line"/>
    </contour>
  </outline>
</glyph>
<glyph name="x" format="2">
  <advance width="418.58"/>
  <unicode hex="0078"/>
  <outline>
    <contour>
      <point x="403.65999999999997" y="531.8" type="line"/>
      <point x="385.02000000000004" y="453.97999999999996"/>
      <point x="358.03999999999996" y="392.32"/>
      <point x="225.61999999999998" y="295.52" type="curve"/>
      <point x="116.02" y="538.6200000000001" type="line"/>
      <point x="79.4" y="531.62" type="line"/>
      <point x="198.01999999999998" y="279.06000000000006" type="line"/>
      <point x="61.17999999999999" y="185.34"/>
      <point x="0.8999999999999991" y="98.62"/>
      <point x="-13.36" y="0.0" type="curve"/>
      <point x="22.64" y="0.0" type="line"/>
      <point x="43.379999999999995" y="99.4"/>
      <point x="87.02" y="162.96"/>
      <point x="211.95999999999998" y="250.73999999999998" type="curve"/>
      <point x="328.3" y="-5.28" type="line"/>
      <point x="364.1" y="1.1800000000000002" type="line"/>
      <point x="238.2" y="269.1" type="line"/>
      <point x="380.70000000000005" y="367.56"/>
      <point x="424.58000000000004" y="456.44"/>
      <point x="438.65999999999997" y="531.8" type="curve"/>
    </contour>
  </outline>
</glyph>
<glyph name="y" format="2">
  <advance width="418.6"/>
  <unicode hex="0079"/>
  <anchor x="150.5" y="-210.0" name="bottom"/>
  <anchor x="239.94" y="531.8" name="top"/>
  <outline>
    <contour>
      <point x="398.4" y="537.26" type="line"/>
      <point x="378.94000000000005" y="387.7"/>
      <point x="283.98" y="192.72"/>
      <point x="189.12" y="27.5" type="curve"/>
      <point x="80.10000000000001" y="540.9" type="line"/>
      <point x="42.74" y="537.26" type="line"/>
      <point x="158.72" y="-3.64" type="line"/>
      <point x="168.38" y="-3.64" type="line"/>
      <point x="122.64" y="-82.84"/>
      <point x="75.82000000000001" y="-153.3"/>
      <point x="35.84" y="-208.18" type="curve"/>
      <point x="70.1" y="-219.1" type="line"/>
      <point x="207.24" y="-25.2"/>
      <point x="414.5" y="341.02"/>
      <point x="434.21999999999997" y="535.4399999999999" type="curve"/>
    </contour>
  </outline>
</glyph>
<glyph name="z" format="2">
  <advance width="434.12600000000003"/>
  <unicode hex="007A"/>
  <anchor x="189.70800000000003" y="0.0" name="bottom"/>
  <anchor x="213.166" y="275.0" name="center"/>
  <anchor x="257.148" y="531.8" name="top"/>
  <outline>
    <contour>
      <point x="0.7400000000000014" y="0.0" type="line"/>
      <point x="377.11799999999994" y="0.0" type="line"/>
      <point x="382.224" y="31.229999999999997" type="line"/>
      <point x="49.194" y="31.229999999999997" type="line"/>
      <point x="432.092" y="501.416" type="line"/>
      <point x="437.486" y="531.8" type="line"/>
      <point x="91.244" y="531.8" type="line"/>
      <point x="86.048" y="500.46200000000005" type="line"/>
      <point x="389.19399999999996" y="500.46200000000005" type="line"/>
      <point x="4.612" y="29.52" type="line"/>
    </contour>
  </outline>
</glyph>
<glyph name="braceleft" format="2">
  <advance width="299.356"/>
  <unicode hex="007B"/>
  <outline>
    <contour>
      <point x="56.10000000000001" y="-111.76" type="curve" smooth="yes"/>
      <point x="56.10000000000001" y="-168.54000000000002"/>
      <point x="82.448" y="-210.0"/>
      <point x="149.91400000000002" y="-210.0" type="curve" smooth="yes"/>
      <point x="190.78400000000002" y="-210.0" type="line"/>
      <point x="195.818" y="-178.11999999999998" type="line"/>
      <point x="160.186" y="-178.11999999999998" type="line" smooth="yes"/>
      <point x="107.938" y="-178.11999999999998"/>
      <point x="89.912" y="-146.29999999999998"/>
      <point x="89.912" y="-104.772" type="curve" smooth="yes"/>
      <point x="89.912" y="0.4119999999999997"/>
      <point x="162.02" y="94.054"/>
      <point x="162.02" y="201.89199999999997" type="curve" smooth="yes"/>
      <point x="162.02" y="231.32"/>
      <point x="154.298" y="257.71200000000005"/>
      <point x="127.948" y="269.55" type="curve"/>
      <point x="179.228" y="278.99199999999996"/>
      <point x="197.34" y="354.08600000000007"/>
      <point x="197.34" y="420.23" type="curve" smooth="yes"/>
      <point x="197.34" y="466.3"/>
      <point x="193.94600000000003" y="498.63800000000003"/>
      <point x="193.94600000000003" y="550.89" type="curve" smooth="yes"/>
      <point x="193.94600000000003" y="622.164"/>
      <point x="213.76999999999998" y="708.12"/>
      <point x="302.75" y="708.12" type="curve" smooth="yes"/>
      <point x="336.09000000000003" y="708.12" type="line"/>
      <point x="341.016" y="740.0" type="line"/>
      <point x="302.876" y="740.0" type="line" smooth="yes"/>
      <point x="189.71" y="740.0"/>
      <point x="160.49" y="636.674"/>
      <point x="160.49" y="545.544" type="curve" smooth="yes"/>
      <point x="160.49" y="496.86400000000003"/>
      <point x="164.01" y="460.63800000000003"/>
      <point x="164.01" y="422.97799999999995" type="curve" smooth="yes"/>
      <point x="164.01" y="358.84"/>
      <point x="151.136" y="286.21600000000007"/>
      <point x="98.188" y="286.21600000000007" type="curve" smooth="yes"/>
      <point x="83.206" y="286.21600000000007" type="line"/>
      <point x="78.22600000000001" y="254.832" type="line"/>
      <point x="92.48" y="254.832" type="line" smooth="yes"/>
      <point x="120.83200000000002" y="254.832"/>
      <point x="130.23399999999998" y="231.436"/>
      <point x="130.23399999999998" y="203.7" type="curve" smooth="yes"/>
      <point x="130.23399999999998" y="90.006"/>
      <point x="56.10000000000001" y="6.459999999999999"/>
    </contour>
  </outline>
</glyph>
<glyph name="bar" format="2">
  <advance width="188.936"/>
  <unicode hex="007C"/>
  <outline>
    <contour>
      <point x="192.29" y="790.0540000000001" type="line"/>
      <point x="160.7" y="790.0540000000001" type="line"/>
      <point x="1.5920000000000007" y="-210.0" type="line"/>
      <point x="33.2" y="-210.0" type="line"/>
    </contour>
  </outline>
</glyph>
<glyph name="braceright" format="2">
  <advance width="299.356"/>
  <unicode hex="007D"/>
  <outline>
    <contour>
      <point x="239.892" y="641.76" type="curve" smooth="yes"/>
      <point x="239.892" y="698.5939999999999"/>
      <point x="213.49" y="740.0540000000001"/>
      <point x="146.024" y="740.0540000000001" type="curve" smooth="yes"/>
      <point x="105.15400000000001" y="740.0540000000001" type="line"/>
      <point x="100.12" y="708.1740000000001" type="line"/>
      <point x="135.21200000000002" y="708.1740000000001" type="line" smooth="yes"/>
      <point x="187.51399999999998" y="708.1740000000001"/>
      <point x="205.594" y="676.3"/>
      <point x="205.594" y="634.7719999999999" type="curve" smooth="yes"/>
      <point x="205.594" y="529.4799999999999"/>
      <point x="133.48600000000002" y="441.832"/>
      <point x="133.48600000000002" y="332.85999999999996" type="curve" smooth="yes"/>
      <point x="133.48600000000002" y="303.594"/>
      <point x="141.154" y="277.202"/>
      <point x="167.61200000000002" y="265.41799999999995" type="curve"/>
      <point x="116.33200000000001" y="255.922"/>
      <point x="98.16600000000001" y="180.93600000000004"/>
      <point x="98.16600000000001" y="114.73799999999999" type="curve" smooth="yes"/>
      <point x="98.16600000000001" y="68.668"/>
      <point x="101.55999999999999" y="31.415999999999997"/>
      <point x="101.55999999999999" y="-20.727999999999998" type="curve" smooth="yes"/>
      <point x="101.55999999999999" y="-92.002"/>
      <point x="81.79" y="-178.06599999999997"/>
      <point x="-7.1899999999999995" y="-178.06599999999997" type="curve" smooth="yes"/>
      <point x="-40.098" y="-178.06599999999997" type="line"/>
      <point x="-45.023999999999994" y="-210.0" type="line"/>
      <point x="-6.937999999999999" y="-210.0" type="line" smooth="yes"/>
      <point x="106.22800000000001" y="-210.0"/>
      <point x="135.448" y="-105.972"/>
      <point x="135.448" y="-16.57" type="curve" smooth="yes"/>
      <point x="135.448" y="33.568"/>
      <point x="131.928" y="74.92399999999999"/>
      <point x="131.928" y="112.206" type="curve" smooth="yes"/>
      <point x="131.928" y="176.236"/>
      <point x="144.91000000000003" y="248.752"/>
      <point x="197.75" y="248.752" type="curve" smooth="yes"/>
      <point x="212.732" y="248.752" type="line"/>
      <point x="217.712" y="280.082" type="line"/>
      <point x="203.458" y="280.082" type="line" smooth="yes"/>
      <point x="175.10600000000002" y="280.082"/>
      <point x="165.704" y="303.478"/>
      <point x="165.704" y="331.214" type="curve" smooth="yes"/>
      <point x="165.704" y="444.962"/>
      <point x="239.892" y="522.7839999999999"/>
    </contour>
  </outline>
</glyph>
<glyph name="asciitilde" format="2">
  <advance width="423.692"/>
  <unicode hex="007E"/>
  <outline>
    <contour>
      <point x="358.74399999999997" y="256.81" type="curve"/>
      <point x="364.76" y="295.036" type="line"/>
      <point x="342.168" y="271.22"/>
      <point x="321.01599999999996" y="254.55799999999996"/>
      <point x="293.444" y="254.55799999999996" type="curve" smooth="yes"/>
      <point x="229.06" y="254.55799999999996"/>
      <point x="208.756" y="364.16"/>
      <point x="141.4" y="364.16" type="curve" smooth="yes"/>
      <point x="113.77000000000001" y="364.16"/>
      <point x="90.732" y="348.844"/>
      <point x="71.066" y="328.74" type="curve"/>
      <point x="64.87" y="290.15000000000003" type="line"/>
      <point x="85.944" y="311.73999999999995"/>
      <point x="107.386" y="329.976"/>
      <point x="135.75" y="329.976" type="curve" smooth="yes"/>
      <point x="197.156" y="329.976"/>
      <point x="217.426" y="220.374"/>
      <point x="288.98800000000006" y="220.374" type="curve" smooth="yes"/>
      <point x="317.91400000000004" y="220.374"/>
      <point x="338.224" y="234.776"/>
    </contour>
  </outline>
</glyph>
<glyph name="cent" format="2">
  <advance width="573.3560000000001"/>
  <unicode hex="00A2"/>
  <outline>
    <contour>
      <point x="246.872" y="-105.018" type="line"/>
      <point x="277.814" y="-105.018" type="line"/>
      <point x="292.904" y="-9.168" type="line"/>
      <point x="354.354" y="-6.513999999999999"/>
      <point x="405.032" y="3.526"/>
      <point x="432.728" y="11.812000000000001" type="curve"/>
      <point x="429.27000000000004" y="43.448" type="line"/>
      <point x="398.03999999999996" y="35.122"/>
      <point x="337.99199999999996" y="23.478"/>
      <point x="293.76" y="23.478" type="curve" smooth="yes"/>
      <point x="193.02400000000003" y="23.478"/>
      <point x="145.182" y="75.76"/>
      <point x="145.182" y="171.93" type="curve" smooth="yes"/>
      <point x="145.182" y="361.418"/>
      <point x="235.79600000000002" y="506.996"/>
      <point x="372.23400000000004" y="506.996" type="curve" smooth="yes"/>
      <point x="421.394" y="506.996"/>
      <point x="460.736" y="497.754"/>
      <point x="493.48199999999997" y="487.956" type="curve"/>
      <point x="504.744" y="521.858" type="line"/>
      <point x="468.40000000000003" y="532.4219999999999"/>
      <point x="430.722" y="540.204"/>
      <point x="383.41400000000004" y="540.984" type="curve"/>
      <point x="399.08600000000007" y="636.746" type="line"/>
      <point x="368.144" y="636.746" type="line"/>
      <point x="352.25600000000003" y="539.18" type="line"/>
      <point x="201.062" y="527.772"/>
      <point x="107.96600000000001" y="371.632"/>
      <point x="107.96600000000001" y="164.57" type="curve" smooth="yes"/>
      <point x="107.96600000000001" y="43.998"/>
      <point x="173.554" y="-2.4660000000000006"/>
      <point x="261.178" y="-7.812" type="curve"/>
    </contour>
  </outline>
</glyph>
<glyph name="sterling" format="2">
  <advance width="573.5720000000001"/>
  <unicode hex="00A3"/>
  <outline>
    <contour>
      <point x="57.132" y="0.0" type="line"/>
      <point x="464.84" y="0.0" type="line"/>
      <point x="470.0" y="33.86" type="line"/>
      <point x="107.944" y="33.86" type="line"/>
      <point x="189.90400000000002" y="112.836"/>
      <point x="232.12" y="179.792"/>
      <point x="232.12" y="280.45599999999996" type="curve" smooth="yes"/>
      <point x="232.12" y="344.92"/>
      <point x="200.52800000000002" y="399.96799999999996"/>
      <point x="200.52800000000002" y="464.644" type="curve" smooth="yes"/>
      <point x="200.52800000000002" y="612.792"/>
      <point x="294.276" y="675.536"/>
      <point x="393.512" y="675.536" type="curve" smooth="yes"/>
      <point x="443.31600000000003" y="675.536"/>
      <point x="492.85999999999996" y="668.7159999999999"/>
      <point x="545.9279999999999" y="650.568" type="curve"/>
      <point x="558.756" y="681.92" type="line"/>
      <point x="505.56" y="702.132"/>
      <point x="445.46" y="710.0"/>
      <point x="398.892" y="710.0" type="curve" smooth="yes"/>
      <point x="268.88" y="710.0"/>
      <point x="165.27999999999997" y="631.3480000000001"/>
      <point x="165.27999999999997" y="469.524" type="curve" smooth="yes"/>
      <point x="165.27999999999997" y="388.932"/>
      <point x="196.92" y="348.428"/>
      <point x="196.92" y="275.40799999999996" type="curve" smooth="yes"/>
      <point x="196.92" y="172.204"/>
      <point x="138.852" y="106.00400000000002"/>
      <point x="60.096" y="30.44" type="curve"/>
    </contour>
    <contour>
      <point x="89.82000000000001" y="355.232" type="line"/>
      <point x="454.97599999999994" y="355.88800000000003" type="line"/>
      <point x="459.776" y="386.472" type="line"/>
      <point x="94.61999999999999" y="386.472" type="line"/>
    </contour>
  </outline>
</glyph>
<glyph name="currency" format="2">
  <advance width="398.264"/>
  <unicode hex="00A4"/>
  <outline>
    <contour>
      <point x="35.85" y="110.96600000000001" type="line"/>
      <point x="113.934" y="184.86800000000002" type="line"/>
      <point x="130.596" y="166.488"/>
      <point x="153.936" y="156.442"/>
      <point x="182.244" y="156.442" type="curve" smooth="yes"/>
      <point x="210.15200000000002" y="156.442"/>
      <point x="237.478" y="166.852"/>
      <point x="260.254" y="184.85000000000002" type="curve"/>
      <point x="315.552" y="110.96600000000001" type="line"/>
      <point x="340.256" y="133.984" type="line"/>
      <point x="285.72999999999996" y="206.698" type="line"/>
      <point x="310.764" y="234.306"/>
      <point x="327.648" y="272.214"/>
      <point x="327.75600000000003" y="313.724" type="curve" smooth="yes"/>
      <point x="327.86400000000003" y="336.172"/>
      <point x="322.368" y="356.67199999999997"/>
      <point x="312.26800000000003" y="373.678" type="curve"/>
      <point x="389.474" y="446.392" type="line"/>
      <point x="372.25000000000006" y="469.40999999999997" type="line"/>
      <point x="293.838" y="395.688" type="line"/>
      <point x="276.92199999999997" y="414.05"/>
      <point x="252.818" y="425.06"/>
      <point x="224.82000000000002" y="425.06" type="curve" smooth="yes"/>
      <point x="196.458" y="425.06"/>
      <point x="169.424" y="413.996"/>
      <point x="146.612" y="395.67" type="curve"/>
      <point x="92.512" y="469.40999999999997" type="line"/>
      <point x="68.79199999999999" y="446.392" type="line"/>
      <point x="121.29799999999999" y="374.13400000000007" type="line"/>
      <point x="95.936" y="346.506"/>
      <point x="80.01599999999999" y="309.23400000000004"/>
      <point x="79.908" y="268.25" type="curve" smooth="yes"/>
      <point x="79.8" y="244.42"/>
      <point x="85.24199999999999" y="223.266"/>
      <point x="95.37799999999999" y="205.878" type="curve"/>
      <point x="19.538" y="133.984" type="line"/>
    </contour>
    <contour>
      <point x="187.63" y="185.532" type="curve" smooth="yes"/>
      <point x="140.636" y="185.532"/>
      <point x="107.77600000000001" y="222.868"/>
      <point x="107.938" y="272.51800000000003" type="curve" smooth="yes"/>
      <point x="108.1" y="339.41999999999996"/>
      <point x="163.578" y="395.916"/>
      <point x="220.362" y="395.916" type="curve" smooth="yes"/>
      <point x="267.938" y="395.916"/>
      <point x="300.19800000000004" y="358.71"/>
      <point x="300.03600000000006" y="309.022" type="curve" smooth="yes"/>
      <point x="299.874" y="242.45000000000002"/>
      <point x="245.616" y="185.532"/>
    </contour>
  </outline>
</glyph>
<glyph name="yen" format="2">
  <advance width="573.9"/>
  <unicode hex="00A5"/>
  <outline>
    <contour>
      <point x="119.48" y="356.18" type="line"/>
      <point x="284.7" y="356.18" type="line"/>
      <point x="263.22" y="222.38000000000002" type="line"/>
      <point x="99.0" y="222.38000000000002" type="line"/>
      <point x="93.74000000000001" y="194.01999999999998" type="line"/>
      <point x="258.78000000000003" y="194.01999999999998" type="line"/>
      <point x="228.14" y="0.0" type="line"/>
      <point x="264.67999999999995" y="0.0" type="line"/>
      <point x="295.5" y="194.01999999999998" type="line"/>
      <point x="463.71999999999997" y="194.01999999999998" type="line"/>
      <point x="467.97999999999996" y="222.38000000000002" type="line"/>
      <point x="299.76" y="222.38000000000002" type="line"/>
      <point x="321.24" y="356.18" type="line"/>
      <point x="488.64000000000004" y="356.18" type="line"/>
      <point x="493.90000000000003" y="385.0" type="line"/>
      <point x="326.68" y="385.0" type="line"/>
      <point x="561.0600000000001" y="697.36" type="line"/>
      <point x="527.26" y="707.28" type="line"/>
      <point x="312.12000000000006" y="413.44" type="line"/>
      <point x="183.28" y="703.6400000000001" type="line"/>
      <point x="146.84" y="697.36" type="line"/>
      <point x="289.14" y="385.0" type="line"/>
      <point x="124.92" y="385.0" type="line"/>
    </contour>
  </outline>
</glyph>
<glyph name="brokenbar" format="2">
  <advance width="189.752"/>
  <unicode hex="00A6"/>
  <outline>
    <contour>
      <point x="128.47" y="391.0" type="line"/>
      <point x="192.614" y="790.0540000000001" type="line"/>
      <point x="161.024" y="790.0540000000001" type="line"/>
      <point x="96.88" y="391.0" type="line"/>
    </contour>
    <contour>
      <point x="65.682" y="190.054" type="line"/>
      <point x="2.138000000000006" y="-210.0" type="line"/>
      <point x="33.69200000000001" y="-210.0" type="line"/>
      <point x="97.29" y="190.054" type="line"/>
    </contour>
  </outline>
</glyph>
<glyph name="section" format="2">
  <advance width="459.09200000000004"/>
  <unicode hex="00A7"/>
  <outline>
    <contour>
      <point x="3.944" y="-131.464" type="curve"/>
      <point x="-16.024" y="-163.484" type="line"/>
      <point x="26.768" y="-201.48600000000002"/>
      <point x="68.044" y="-220.0"/>
      <point x="125.91" y="-220.0" type="curve" smooth="yes"/>
      <point x="266.83" y="-220.0"/>
      <point x="395.784" y="-80.33800000000001"/>
      <point x="395.784" y="123.12200000000001" type="curve" smooth="yes"/>
      <point x="395.784" y="302.87399999999997"/>
      <point x="278.718" y="429.86"/>
      <point x="278.718" y="583.218" type="curve" smooth="yes"/>
      <point x="278.718" y="656.032"/>
      <point x="312.638" y="710.206"/>
      <point x="373.758" y="710.206" type="curve" smooth="yes"/>
      <point x="397.51599999999996" y="710.206"/>
      <point x="416.47200000000004" y="703.494"/>
      <point x="436.806" y="694.71" type="curve"/>
      <point x="450.81" y="730.712" type="line"/>
      <point x="420.216" y="742.9459999999999"/>
      <point x="380.948" y="749.0540000000001"/>
      <point x="343.624" y="749.0540000000001" type="curve" smooth="yes"/>
      <point x="195.804" y="749.0540000000001"/>
      <point x="70.60600000000001" y="612.112"/>
      <point x="70.60600000000001" y="401.29" type="curve" smooth="yes"/>
      <point x="70.60600000000001" y="208.79999999999998"/>
      <point x="184.26600000000002" y="70.878"/>
      <point x="184.26600000000002" y="-60.74799999999999" type="curve" smooth="yes"/>
      <point x="184.26600000000002" y="-131.92399999999998"/>
      <point x="141.38" y="-178.72799999999998"/>
      <point x="93.19800000000001" y="-178.72799999999998" type="curve" smooth="yes"/>
      <point x="59.422000000000004" y="-178.72799999999998"/>
      <point x="27.232" y="-157.33"/>
    </contour>
    <contour>
      <point x="318.638" y="719.658" type="curve"/>
      <point x="272.496" y="695.534"/>
      <point x="249.76600000000002" y="640.1120000000001"/>
      <point x="249.76600000000002" y="582.572" type="curve" smooth="yes"/>
      <point x="249.76600000000002" y="413.12399999999997"/>
      <point x="365.058" y="289.34000000000003"/>
      <point x="365.058" y="112.242" type="curve" smooth="yes"/>
      <point x="365.058" y="-51.764"/>
      <point x="260.638" y="-193.48600000000002"/>
      <point x="136.602" y="-194.04399999999998" type="curve"/>
      <point x="186.88600000000002" y="-170.63"/>
      <point x="214.27200000000002" y="-111.64200000000001"/>
      <point x="214.27200000000002" y="-53.553999999999995" type="curve" smooth="yes"/>
      <point x="214.27200000000002" y="88.008"/>
      <point x="102.54799999999999" y="226.56"/>
      <point x="102.54799999999999" y="399.08000000000004" type="curve" smooth="yes"/>
      <point x="102.54799999999999" y="571.656"/>
      <point x="184.796" y="702.65"/>
    </contour>
  </outline>
</glyph>
<glyph name="copyright" format="2">
  <advance width="633.002"/>
  <unicode hex="00A9"/>
  <outline>
    <contour>
      <point x="290.504" y="-10.072" type="curve" smooth="yes"/>
      <point x="502.47200000000004" y="-10.216"/>
      <point x="596.1460000000001" y="197.512"/>
      <point x="596.1460000000001" y="436.622" type="curve" smooth="yes"/>
      <point x="596.1460000000001" y="606.384"/>
      <point x="519.9040000000001" y="709.766"/>
      <point x="366.894" y="709.91" type="curve" smooth="yes"/>
      <point x="155.412" y="710.054"/>
      <point x="60.80199999999999" y="503.046"/>
      <point x="60.80199999999999" y="263.288" type="curve" smooth="yes"/>
      <point x="60.80199999999999" y="93.74199999999999"/>
      <point x="136.9" y="-9.928"/>
    </contour>
    <contour>
      <point x="319.118" y="170.004" type="curve" smooth="yes"/>
      <point x="351.684" y="170.004"/>
      <point x="382.78999999999996" y="176.508"/>
      <point x="406.888" y="184.354" type="curve"/>
      <point x="404.38399999999996" y="210.67000000000002" type="line"/>
      <point x="382.50199999999995" y="203.49"/>
      <point x="354.0520000000001" y="198.454"/>
      <point x="323.80800000000005" y="198.454" type="curve" smooth="yes"/>
      <point x="270.122" y="198.454"/>
      <point x="235.58" y="233.10399999999998"/>
      <point x="235.58" y="283.6" type="curve" smooth="yes"/>
      <point x="235.58" y="394.29799999999994"/>
      <point x="291.62800000000004" y="492.834"/>
      <point x="368.45" y="492.834" type="curve" smooth="yes"/>
      <point x="395.63000000000005" y="492.834"/>
      <point x="418.522" y="489.87"/>
      <point x="443.756" y="482.04999999999995" type="curve"/>
      <point x="452.27599999999995" y="510.51800000000003" type="line"/>
      <point x="427.23999999999995" y="518.59"/>
      <point x="400.23199999999997" y="521.986"/>
      <point x="370.432" y="521.986" type="curve" smooth="yes"/>
      <point x="276.2099999999999" y="521.986"/>
      <point x="206.096" y="420.508"/>
      <point x="206.096" y="283.95200000000006" type="curve" smooth="yes"/>
      <point x="206.096" y="211.038"/>
      <point x="247.16600000000003" y="170.004"/>
    </contour>
    <contour>
      <point x="293.206" y="14.148" type="curve" smooth="yes"/>
      <point x="154.734" y="14.148"/>
      <point x="85.77799999999998" y="105.136"/>
      <point x="85.77799999999998" y="266.324" type="curve" smooth="yes"/>
      <point x="85.77799999999998" y="483.85999999999996"/>
      <point x="166.49999999999997" y="685.762"/>
      <point x="364.246" y="685.762" type="curve" smooth="yes"/>
      <point x="501.998" y="685.762"/>
      <point x="571.1700000000001" y="594.702"/>
      <point x="571.1700000000001" y="433.658" type="curve" smooth="yes"/>
      <point x="571.1700000000001" y="216.26600000000002"/>
      <point x="490.80800000000005" y="14.148"/>
    </contour>
  </outline>
</glyph>
<glyph name="ordfeminine" format="2">
  <advance width="336.424"/>
  <unicode hex="00AA"/>
  <outline>
    <contour>
      <point x="45.55200000000001" y="284.126" type="line"/>
      <point x="289.71000000000004" y="284.126" type="line"/>
      <point x="293.898" y="308.918" type="line"/>
      <point x="49.74" y="308.918" type="line"/>
    </contour>
    <component base="a.superior" xOffset="12.732"/>
  </outline>
</glyph>
<glyph name="logicalnot" format="2">
  <advance width="419.40000000000003"/>
  <unicode hex="00AC"/>
  <outline>
    <contour>
      <point x="66.506" y="376.686" type="line"/>
      <point x="352.24" y="376.686" type="line"/>
      <point x="320.93600000000004" y="176.208" type="line"/>
      <point x="353.01800000000003" y="176.208" type="line"/>
      <point x="389.626" y="408.546" type="line"/>
      <point x="71.81" y="408.546" type="line"/>
    </contour>
  </outline>
</glyph>
<glyph name="registered" format="2">
  <advance width="559.88"/>
  <unicode hex="00AE"/>
  <outline>
    <contour>
      <point x="277.598" y="209.856" type="curve" smooth="yes"/>
      <point x="454.81000000000006" y="209.856"/>
      <point x="560.15" y="412.33000000000004"/>
      <point x="560.15" y="672.7739999999999" type="curve" smooth="yes"/>
      <point x="560.15" y="812.644"/>
      <point x="495.63" y="893.036"/>
      <point x="368.228" y="893.036" type="curve" smooth="yes"/>
      <point x="191.016" y="893.036"/>
      <point x="87.748" y="689.562"/>
      <point x="87.748" y="430.118" type="curve" smooth="yes"/>
      <point x="87.748" y="290.32"/>
      <point x="150.124" y="209.856"/>
    </contour>
    <contour>
      <point x="278.39" y="231.022" type="curve" smooth="yes"/>
      <point x="164.778" y="231.022"/>
      <point x="111.058" y="305.56"/>
      <point x="111.058" y="430.92" type="curve" smooth="yes"/>
      <point x="111.058" y="674.6540000000001"/>
      <point x="204.95" y="870.942"/>
      <point x="367.508" y="870.942" type="curve" smooth="yes"/>
      <point x="481.12" y="870.942"/>
      <point x="536.8399999999999" y="797.332"/>
      <point x="536.8399999999999" y="670.972" type="curve" smooth="yes"/>
      <point x="536.8399999999999" y="427.23800000000006"/>
      <point x="440.87600000000003" y="231.022"/>
    </contour>
    <contour>
      <point x="210.072" y="398.346" type="line"/>
      <point x="236.864" y="398.346" type="line"/>
      <point x="258.39599999999996" y="531.736" type="line"/>
      <point x="283.804" y="529.916"/>
      <point x="302.724" y="528.024"/>
      <point x="337.30400000000003" y="528.9699999999999" type="curve"/>
      <point x="350.4700000000001" y="532.9680000000001" type="line"/>
      <point x="412.334" y="543.8340000000001"/>
      <point x="439.33000000000004" y="582.716"/>
      <point x="439.33000000000004" y="641.18" type="curve" smooth="yes"/>
      <point x="439.33000000000004" y="698.35"/>
      <point x="409.10600000000005" y="717.312"/>
      <point x="341.506" y="717.312" type="curve" smooth="yes"/>
      <point x="311.452" y="717.312"/>
      <point x="290.536" y="716.2579999999999"/>
      <point x="260.20599999999996" y="712.1859999999999" type="curve"/>
    </contour>
    <contour>
      <point x="321.652" y="552.486" type="curve" smooth="yes"/>
      <point x="300.6859999999999" y="552.486"/>
      <point x="284.216" y="553.432"/>
      <point x="262.42199999999997" y="554.3599999999999" type="curve"/>
      <point x="282.774" y="688.932" type="line"/>
      <point x="307.198" y="691.734"/>
      <point x="315.73" y="692.734"/>
      <point x="340.32599999999996" y="692.734" type="curve" smooth="yes"/>
      <point x="392.06800000000004" y="692.734"/>
      <point x="413.32199999999995" y="678.328"/>
      <point x="413.32199999999995" y="639.92" type="curve" smooth="yes"/>
      <point x="413.32199999999995" y="580.972"/>
      <point x="387.546" y="552.486"/>
    </contour>
    <contour>
      <point x="424.624" y="396.03999999999996" type="curve" smooth="yes"/>
      <point x="425.894" y="396.03999999999996"/>
      <point x="429.758" y="396.14799999999997"/>
      <point x="433.15399999999994" y="397.31" type="curve"/>
      <point x="436.46799999999996" y="422.70599999999996" type="line"/>
      <point x="434.32399999999996" y="421.814"/>
      <point x="432.32399999999996" y="421.814"/>
      <point x="431.198" y="421.814" type="curve" smooth="yes"/>
      <point x="408.918" y="421.814"/>
      <point x="382.026" y="460.402"/>
      <point x="357.106" y="543.6060000000001" type="curve"/>
      <point x="330.206" y="537.744" type="line"/>
      <point x="363.96999999999997" y="428.5"/>
      <point x="393.888" y="396.03999999999996"/>
    </contour>
  </outline>
</glyph>
<glyph name="degree" format="2">
  <advance width="233.42999999999998"/>
  <unicode hex="00B0"/>
  <outline>
    <contour>
      <point x="153.3" y="504.448" type="curve" smooth="yes"/>
      <point x="213.168" y="504.448"/>
      <point x="258.896" y="566.194"/>
      <point x="258.896" y="639.322" type="curve" smooth="yes"/>
      <point x="258.896" y="688.388"/>
      <point x="233.76" y="726.308"/>
      <point x="187.484" y="726.308" type="curve" smooth="yes"/>
      <point x="126.978" y="726.308"/>
      <point x="81.906" y="661.2479999999998"/>
      <point x="81.906" y="588.848" type="curve" smooth="yes"/>
      <point x="81.906" y="541.0579999999999"/>
      <point x="106.694" y="504.448"/>
    </contour>
    <contour>
      <point x="157.74" y="535.212" type="curve" smooth="yes"/>
      <point x="126.54199999999999" y="535.212"/>
      <point x="110.242" y="560.208"/>
      <point x="110.242" y="593.9519999999999" type="curve" smooth="yes"/>
      <point x="110.242" y="647.89"/>
      <point x="141.062" y="695.328"/>
      <point x="183.008" y="695.328" type="curve" smooth="yes"/>
      <point x="215.316" y="695.328"/>
      <point x="230.888" y="668.9119999999999"/>
      <point x="230.888" y="634.8220000000001" type="curve" smooth="yes"/>
      <point x="230.888" y="581.52"/>
      <point x="199.61399999999998" y="535.212"/>
    </contour>
  </outline>
</glyph>
<glyph name="plusminus" format="2">
  <advance width="420.564"/>
  <unicode hex="00B1"/>
  <outline>
    <contour>
      <point x="338.722" y="67.304" type="line"/>
      <point x="344.02599999999995" y="100.25" type="line"/>
      <point x="199.11599999999999" y="100.25" type="line"/>
      <point x="230.096" y="296.22799999999995" type="line"/>
      <point x="374.46" y="296.22799999999995" type="line"/>
      <point x="379.764" y="329.17400000000004" type="line"/>
      <point x="235.4" y="329.17400000000004" type="line"/>
      <point x="266.906" y="514.7099999999999" type="line"/>
      <point x="233.96" y="514.7099999999999" type="line"/>
      <point x="202.928" y="329.17400000000004" type="line"/>
      <point x="57.58" y="329.17400000000004" type="line"/>
      <point x="52.276" y="296.22799999999995" type="line"/>
      <point x="197.15" y="296.22799999999995" type="line"/>
      <point x="166.09799999999998" y="100.25" type="line"/>
      <point x="21.842000000000002" y="100.25" type="line"/>
      <point x="16.538000000000004" y="67.304" type="line"/>
    </contour>
  </outline>
</glyph>
<glyph name="uni00B2" format="2">
  <advance width="344.7"/>
  <unicode hex="00B2"/>
  <outline>
    <contour>
      <point x="59.660000000000004" y="368.162" type="line"/>
      <point x="313.09399999999994" y="368.162" type="line"/>
      <point x="315.552" y="392.18199999999996" type="line"/>
      <point x="103.36399999999999" y="392.18199999999996" type="line"/>
      <point x="214.052" y="492.808"/>
      <point x="317.254" y="585.784"/>
      <point x="317.254" y="690.858" type="curve" smooth="yes"/>
      <point x="317.254" y="743.622"/>
      <point x="285.906" y="772.162"/>
      <point x="231.052" y="772.162" type="curve" smooth="yes"/>
      <point x="194.26999999999998" y="772.162"/>
      <point x="153.516" y="758.766"/>
      <point x="121.4" y="736.568" type="curve"/>
      <point x="130.894" y="714.9639999999999" type="line"/>
      <point x="162.804" y="736.352"/>
      <point x="193.444" y="746.2620000000001"/>
      <point x="224.85" y="746.2620000000001" type="curve" smooth="yes"/>
      <point x="266.032" y="746.2620000000001"/>
      <point x="288.276" y="723.324"/>
      <point x="288.276" y="682.412" type="curve" smooth="yes"/>
      <point x="287.33000000000004" y="592.5699999999999"/>
      <point x="191.184" y="501.54999999999995"/>
      <point x="60.884" y="388.13800000000003" type="curve"/>
    </contour>
  </outline>
</glyph>
<glyph name="uni00B3" format="2">
  <advance width="332.93"/>
  <unicode hex="00B3"/>
  <outline>
    <contour>
      <point x="38.36" y="402.09999999999997" type="line"/>
      <point x="70.35" y="375.73"/>
      <point x="116.07" y="364.0"/>
      <point x="157.78" y="364.0" type="curve" smooth="yes"/>
      <point x="263.15" y="364.0"/>
      <point x="325.01" y="414.84"/>
      <point x="325.01" y="489.54" type="curve" smooth="yes"/>
      <point x="325.01" y="535.0"/>
      <point x="302.01" y="569.01"/>
      <point x="269.01" y="577.46" type="curve"/>
      <point x="306.0" y="592.09"/>
      <point x="335.36" y="621.27"/>
      <point x="335.36" y="672.45" type="curve" smooth="yes"/>
      <point x="335.36" y="730.27"/>
      <point x="294.29" y="772.27"/>
      <point x="220.41" y="772.27" type="curve" smooth="yes"/>
      <point x="181.34" y="772.27"/>
      <point x="146.46" y="765.64"/>
      <point x="110.64" y="749.5500000000001" type="curve"/>
      <point x="117.91000000000001" y="728.26" type="line"/>
      <point x="148.91" y="741.72"/>
      <point x="181.80999999999997" y="747.63"/>
      <point x="215.72" y="747.63" type="curve" smooth="yes"/>
      <point x="272.28000000000003" y="747.63"/>
      <point x="307.11" y="718.61"/>
      <point x="307.11" y="666.48" type="curve" smooth="yes"/>
      <point x="307.11" y="612.17"/>
      <point x="265.91" y="588.43"/>
      <point x="217.82000000000002" y="588.43" type="curve" smooth="yes"/>
      <point x="145.26000000000002" y="588.43" type="line"/>
      <point x="142.0" y="567.04" type="line"/>
      <point x="211.38" y="567.04" type="line" smooth="yes"/>
      <point x="266.92" y="567.04"/>
      <point x="298.3" y="544.12"/>
      <point x="298.3" y="487.34999999999997" type="curve" smooth="yes"/>
      <point x="298.3" y="425.58000000000004"/>
      <point x="245.64000000000001" y="388.1"/>
      <point x="155.69" y="388.1" type="curve" smooth="yes"/>
      <point x="115.87" y="388.1"/>
      <point x="82.42" y="399.65"/>
      <point x="53.599999999999994" y="422.39" type="curve"/>
    </contour>
  </outline>
</glyph>
<glyph name="uni00B5" format="2">
  <advance width="488.108"/>
  <unicode hex="00B5"/>
  <outline>
    <contour>
      <point x="-1.2319999999999984" y="-210.0" type="line"/>
      <point x="34.34" y="-210.0" type="line"/>
      <point x="74.02" y="42.306" type="line"/>
      <point x="85.53600000000002" y="8.6"/>
      <point x="115.78" y="-10.0"/>
      <point x="163.186" y="-10.0" type="curve" smooth="yes"/>
      <point x="226.58200000000002" y="-10.0"/>
      <point x="278.63" y="10.112"/>
      <point x="342.35" y="47.6" type="curve"/>
      <point x="345.48199999999997" y="7.28"/>
      <point x="366.51800000000003" y="-10.0"/>
      <point x="399.754" y="-10.0" type="curve" smooth="yes"/>
      <point x="410.56199999999995" y="-10.0"/>
      <point x="431.55800000000005" y="-5.6080000000000005"/>
      <point x="445.79800000000006" y="2.142" type="curve"/>
      <point x="443.092" y="29.24" type="line"/>
      <point x="430.814" y="24.492"/>
      <point x="417.642" y="21.762"/>
      <point x="411.05600000000004" y="21.762" type="curve" smooth="yes"/>
      <point x="387.204" y="21.762"/>
      <point x="376.854" y="34.623999999999995"/>
      <point x="376.854" y="62.948" type="curve" smooth="yes"/>
      <point x="376.854" y="74.464"/>
      <point x="378.946" y="97.57000000000001"/>
      <point x="448.32200000000006" y="531.8" type="curve"/>
      <point x="411.822" y="531.8" type="line"/>
      <point x="341.52000000000004" y="76.40400000000001" type="line"/>
      <point x="280.018" y="41.304"/>
      <point x="226.294" y="22.164"/>
      <point x="170.01800000000003" y="22.164" type="curve" smooth="yes"/>
      <point x="113.144" y="22.164"/>
      <point x="85.054" y="50.82"/>
      <point x="85.162" y="96.59" type="curve" smooth="yes"/>
      <point x="86.40400000000001" y="118.786"/>
      <point x="100.514" y="215.588"/>
      <point x="150.51600000000002" y="531.8" type="curve"/>
      <point x="114.32600000000001" y="531.8" type="line"/>
    </contour>
  </outline>
</glyph>
<glyph name="paragraph" format="2">
  <advance width="514.374"/>
  <unicode hex="00B6"/>
  <outline>
    <contour>
      <point x="331.596" y="-210.0" type="line"/>
      <point x="362.124" y="-210.0" type="line"/>
      <point x="512.322" y="740.0" type="line"/>
      <point x="481.79400000000004" y="740.0" type="line"/>
    </contour>
    <contour>
      <point x="207.85" y="213.21599999999998" type="line"/>
      <point x="136.46599999999998" y="224.968"/>
      <point x="91.816" y="285.73199999999997"/>
      <point x="91.816" y="377.202" type="curve" smooth="yes"/>
      <point x="91.816" y="551.836"/>
      <point x="178.016" y="704.108"/>
      <point x="339.62800000000004" y="708.5840000000001" type="curve"/>
      <point x="194.806" y="-210.0" type="line"/>
      <point x="225.334" y="-210.0" type="line"/>
      <point x="375.532" y="740.0" type="line"/>
      <point x="354.27200000000005" y="740.0" type="line" smooth="yes"/>
      <point x="165.75000000000003" y="740.0"/>
      <point x="58.976000000000006" y="576.614"/>
      <point x="58.976000000000006" y="374.478" type="curve" smooth="yes"/>
      <point x="58.976000000000006" y="269.42199999999997"/>
      <point x="111.086" y="198.856"/>
      <point x="199.7" y="184.24200000000002" type="curve"/>
    </contour>
  </outline>
</glyph>
<glyph name="periodcentered" format="2">
  <advance width="151.70000000000002"/>
  <unicode hex="00B7"/>
  <outline>
    <contour>
      <point x="53.792" y="284.884" type="curve" smooth="yes"/>
      <point x="52.3" y="268.92400000000004"/>
      <point x="56.98400000000001" y="264.24"/>
      <point x="73.36800000000001" y="264.24" type="curve" smooth="yes"/>
      <point x="94.896" y="264.24"/>
      <point x="99.67599999999999" y="271.9"/>
      <point x="101.82400000000001" y="295.776" type="curve" smooth="yes"/>
      <point x="103.31599999999999" y="311.24399999999997"/>
      <point x="98.94399999999999" y="316.41999999999996"/>
      <point x="82.74" y="316.41999999999996" type="curve" smooth="yes"/>
      <point x="61.572" y="316.41999999999996"/>
      <point x="55.94" y="308.58"/>
    </contour>
  </outline>
</glyph>
<glyph name="uni00B9" format="2">
  <advance width="329.102"/>
  <unicode hex="00B9"/>
  <outline>
    <contour>
      <point x="43.866" y="370.0" type="line"/>
      <point x="321.628" y="370.0" type="line"/>
      <point x="325.086" y="394.16" type="line"/>
      <point x="211.06199999999998" y="394.16" type="line"/>
      <point x="271.49" y="768.9480000000001" type="line"/>
      <point x="254.842" y="768.9480000000001" type="line"/>
      <point x="91.926" y="683.534" type="line"/>
      <point x="97.814" y="659.752" type="line"/>
      <point x="237.244" y="731.548" type="line"/>
      <point x="182.434" y="394.16" type="line"/>
      <point x="47.397999999999996" y="394.16" type="line"/>
    </contour>
  </outline>
</glyph>
<glyph name="ordmasculine" format="2">
  <advance width="317.33799999999997"/>
  <unicode hex="00BA"/>
  <outline>
    <contour>
      <point x="41.802" y="284.126" type="line"/>
      <point x="273.114" y="284.126" type="line"/>
      <point x="276.75600000000003" y="308.918" type="line"/>
      <point x="45.444" y="308.918" type="line"/>
    </contour>
    <component base="o.superior" xOffset="13.46"/>
  </outline>
</glyph>
<glyph name="AE" format="2">
  <advance width="810.108"/>
  <unicode hex="00C6"/>
  <anchor x="371.657632" y="0.0" name="bottom"/>
  <anchor x="487.12800000000004" y="700.0" name="top"/>
  <outline>
    <contour>
      <point x="340.292" y="0.0" type="line"/>
      <point x="736.4839999999999" y="0.0" type="line"/>
      <point x="741.8240000000001" y="34.12" type="line"/>
      <point x="381.37199999999996" y="34.12" type="line"/>
      <point x="428.29599999999994" y="332.504" type="line"/>
      <point x="742.4519999999999" y="332.504" type="line"/>
      <point x="747.972" y="366.62399999999997" type="line"/>
      <point x="433.816" y="366.62399999999997" type="line"/>
      <point x="481.2" y="665.88" type="line"/>
      <point x="825.488" y="665.88" type="line"/>
      <point x="831.5" y="700.0" type="line"/>
      <point x="428.264" y="700.0" type="line"/>
      <point x="-37.88400000000001" y="0.0" type="line"/>
      <point x="5.783999999999999" y="0.0" type="line"/>
      <point x="218.768" y="319.00399999999996" type="line"/>
      <point x="390.216" y="319.00399999999996" type="line"/>
    </contour>
    <contour>
      <point x="238.984" y="351.50399999999996" type="line"/>
      <point x="444.608" y="664.9440000000001" type="line"/>
      <point x="395.37600000000003" y="351.50399999999996" type="line"/>
    </contour>
  </outline>
</glyph>
<glyph name="multiply" format="2">
  <advance width="404.18399999999997"/>
  <unicode hex="00D7"/>
  <outline>
    <contour>
      <point x="50.576" y="81.86" type="line"/>
      <point x="201.24" y="263.976" type="line"/>
      <point x="291.40799999999996" y="83.828" type="line"/>
      <point x="317.668" y="105.80799999999999" type="line"/>
      <point x="225.04" y="291.45200000000006" type="line"/>
      <point x="381.41200000000003" y="481.128" type="line"/>
      <point x="360.03200000000004" y="503.076" type="line"/>
      <point x="208.448" y="320.156" type="line"/>
      <point x="115.92" y="503.07599999999996" type="line"/>
      <point x="89.66" y="481.456" type="line"/>
      <point x="183.97600000000003" y="292.812" type="line"/>
      <point x="29.196" y="103.628" type="line"/>
    </contour>
  </outline>
</glyph>
<glyph name="Oslash" format="2">
  <advance width="635.0400000000001"/>
  <unicode hex="00D8"/>
  <anchor x="373.15999999999997" y="700.0" name="top"/>
  <outline>
    <contour>
      <point x="664.58" y="710.0" type="line"/>
      <point x="625.7199999999999" y="710.0" type="line"/>
      <point x="538.34" y="608.7199999999999" type="line"/>
      <point x="536.9800000000001" y="608.9" type="line"/>
      <point x="110.05999999999999" y="117.63999999999999" type="line"/>
      <point x="108.7" y="117.82000000000001" type="line"/>
      <point x="-1.0599999999999996" y="-9.1" type="line"/>
      <point x="37.16" y="-9.1" type="line"/>
      <point x="125.64" y="93.1" type="line"/>
      <point x="127.0" y="92.92000000000002" type="line"/>
      <point x="555.92" y="586.36" type="line"/>
      <point x="557.28" y="586.18" type="line"/>
    </contour>
    <contour>
      <point x="291.97999999999996" y="-9.64" type="curve" smooth="yes"/>
      <point x="484.76" y="-9.64"/>
      <point x="602.3000000000001" y="160.52000000000004"/>
      <point x="602.3000000000001" y="428.29999999999995" type="curve" smooth="yes"/>
      <point x="602.3000000000001" y="610.02"/>
      <point x="520.68" y="709.64"/>
      <point x="370.9" y="709.64" type="curve" smooth="yes"/>
      <point x="178.12" y="709.64"/>
      <point x="60.58" y="539.66"/>
      <point x="60.58" y="271.52" type="curve" smooth="yes"/>
      <point x="60.58" y="89.8"/>
      <point x="142.2" y="-9.64"/>
    </contour>
    <contour>
      <point x="292.96000000000004" y="23.12" type="curve" smooth="yes"/>
      <point x="170.60000000000002" y="23.12"/>
      <point x="97.94" y="112.02000000000001"/>
      <point x="97.94" y="271.46" type="curve" smooth="yes"/>
      <point x="97.94" y="520.18"/>
      <point x="203.46" y="676.88"/>
      <point x="370.64" y="676.88" type="curve" smooth="yes"/>
      <point x="492.46" y="676.88"/>
      <point x="564.94" y="587.98"/>
      <point x="564.94" y="428.54" type="curve" smooth="yes"/>
      <point x="564.94" y="183.42000000000002"/>
      <point x="459.78000000000003" y="23.12"/>
    </contour>
  </outline>
</glyph>
<glyph name="Thorn" format="2">
  <advance width="550.1500000000001"/>
  <unicode hex="00DE"/>
  <outline>
    <contour>
      <point x="33.49" y="0.0" type="line"/>
      <point x="70.31" y="0.0" type="line"/>
      <point x="97.96" y="171.35999999999999" type="line"/>
      <point x="158.23999999999998" y="169.18"/>
      <point x="200.45000000000002" y="169.09"/>
      <point x="260.21" y="169.09" type="curve" smooth="yes"/>
      <point x="434.59999999999997" y="169.09"/>
      <point x="534.7700000000001" y="252.15000000000003"/>
      <point x="534.7700000000001" y="436.94" type="curve" smooth="yes"/>
      <point x="534.7700000000001" y="546.54"/>
      <point x="468.05" y="614.8"/>
      <point x="310.2" y="614.8" type="curve" smooth="yes"/>
      <point x="280.73" y="614.8"/>
      <point x="242.35" y="613.8000000000001"/>
      <point x="166.03" y="609.25" type="curve"/>
      <point x="180.67" y="700.0" type="line"/>
      <point x="143.85000000000002" y="700.0" type="line"/>
    </contour>
    <contour>
      <point x="257.40000000000003" y="201.31" type="curve" smooth="yes"/>
      <point x="193.35" y="201.31"/>
      <point x="159.6" y="202.22"/>
      <point x="103.3" y="205.22" type="curve"/>
      <point x="161.6" y="575.94" type="line"/>
      <point x="240.27" y="580.76"/>
      <point x="274.57000000000005" y="581.76"/>
      <point x="306.57" y="581.76" type="curve" smooth="yes"/>
      <point x="442.37" y="581.76"/>
      <point x="497.68" y="526.29"/>
      <point x="497.68" y="430.04999999999995" type="curve" smooth="yes"/>
      <point x="497.68" y="273.98"/>
      <point x="417.46" y="201.31"/>
    </contour>
  </outline>
</glyph>
<glyph name="germandbls" format="2">
  <advance width="536.24"/>
  <unicode hex="00DF"/>
  <outline>
    <contour>
      <point x="43.56" y="-58.26" type="line" smooth="yes"/>
      <point x="30.28" y="-138.12"/>
      <point x="8.0" y="-188.7"/>
      <point x="-47.580000000000005" y="-188.7" type="curve" smooth="yes"/>
      <point x="-62.04" y="-188.7"/>
      <point x="-77.5" y="-186.70000000000002"/>
      <point x="-96.78" y="-180.05999999999997" type="curve"/>
      <point x="-104.74" y="-209.73999999999998" type="line"/>
      <point x="-86.94" y="-217.45999999999998"/>
      <point x="-61.67999999999999" y="-220.0"/>
      <point x="-42.98000000000001" y="-220.0" type="curve" smooth="yes"/>
      <point x="27.7" y="-220.0"/>
      <point x="62.76" y="-165.02"/>
      <point x="78.48" y="-64.52" type="curve" smooth="yes"/>
      <point x="171.03999999999996" y="520.58" type="line" smooth="yes"/>
      <point x="192.78000000000003" y="652.74"/>
      <point x="244.96" y="718.1400000000001"/>
      <point x="356.53999999999996" y="718.1400000000001" type="curve" smooth="yes"/>
      <point x="426.65999999999997" y="718.1400000000001"/>
      <point x="463.04" y="689.66"/>
      <point x="463.04" y="640.26" type="curve" smooth="yes"/>
      <point x="463.04" y="591.86"/>
      <point x="436.3" y="565.1199999999999"/>
      <point x="358.17999999999995" y="530.2800000000001" type="curve" smooth="yes"/>
      <point x="271.18" y="491.36"/>
      <point x="233.56" y="457.74"/>
      <point x="233.56" y="387.22" type="curve" smooth="yes"/>
      <point x="233.56" y="325.52"/>
      <point x="273.64" y="291.44"/>
      <point x="365.46000000000004" y="250.78" type="curve" smooth="yes"/>
      <point x="445.02000000000004" y="215.29999999999998"/>
      <point x="475.12" y="190.56"/>
      <point x="475.12" y="135.78" type="curve" smooth="yes"/>
      <point x="475.12" y="72.1"/>
      <point x="410.54" y="21.779999999999998"/>
      <point x="313.02" y="21.779999999999998" type="curve" smooth="yes"/>
      <point x="264.84" y="21.779999999999998"/>
      <point x="206.12" y="34.419999999999995"/>
      <point x="161.12" y="52.06" type="curve"/>
      <point x="149.06" y="22.0" type="line"/>
      <point x="195.78" y="2.18"/>
      <point x="257.96000000000004" y="-10.0"/>
      <point x="310.3" y="-10.0" type="curve" smooth="yes"/>
      <point x="437.06" y="-10.0"/>
      <point x="511.31999999999994" y="50.82"/>
      <point x="511.31999999999994" y="141.04" type="curve" smooth="yes"/>
      <point x="511.31999999999994" y="204.29999999999998"/>
      <point x="474.78" y="240.28"/>
      <point x="383.85999999999996" y="280.76" type="curve" smooth="yes"/>
      <point x="298.03999999999996" y="318.78"/>
      <point x="268.4" y="344.26"/>
      <point x="268.4" y="392.65999999999997" type="curve" smooth="yes"/>
      <point x="268.4" y="444.70000000000005"/>
      <point x="298.67999999999995" y="468.72"/>
      <point x="377.86" y="505.46" type="curve" smooth="yes"/>
      <point x="468.52" y="547.94"/>
      <point x="498.06" y="579.74"/>
      <point x="498.06" y="644.62" type="curve" smooth="yes"/>
      <point x="498.06" y="711.48"/>
      <point x="448.37999999999994" y="750.0"/>
      <point x="356.34000000000003" y="750.0" type="curve" smooth="yes"/>
      <point x="224.62" y="750.0"/>
      <point x="161.48000000000002" y="679.2800000000001"/>
      <point x="136.3" y="526.1" type="curve" smooth="yes"/>
      <point x="130.66" y="486.52" type="line"/>
      <point x="39.720000000000006" y="478.97999999999996" type="line"/>
      <point x="34.56" y="453.56" type="line"/>
      <point x="123.86" y="453.56" type="line"/>
    </contour>
  </outline>
</glyph>
<glyph name="ae" format="2">
  <advance width="787.48"/>
  <unicode hex="00E6"/>
  <anchor x="357.88" y="0.0" name="bottom"/>
  <anchor x="430.32000000000005" y="531.8" name="top"/>
  <outline>
    <contour>
      <point x="181.92" y="-10.0" type="curve" smooth="yes"/>
      <point x="239.48000000000002" y="-10.0"/>
      <point x="294.21999999999997" y="11.280000000000001"/>
      <point x="331.76" y="36.81999999999999" type="curve"/>
      <point x="324.76" y="-4.64" type="line"/>
      <point x="358.42" y="-4.64" type="line"/>
      <point x="379.62" y="126.66000000000001" type="line"/>
      <point x="393.96" y="39.94"/>
      <point x="451.88" y="-9.82"/>
      <point x="547.46" y="-9.82" type="curve" smooth="yes"/>
      <point x="606.1" y="-9.82"/>
      <point x="676.48" y="4.64"/>
      <point x="725.6600000000001" y="26.82" type="curve"/>
      <point x="717.5799999999999" y="56.32" type="line"/>
      <point x="663.66" y="34.86"/>
      <point x="603.98" y="22.04"/>
      <point x="551.8" y="22.04" type="curve" smooth="yes"/>
      <point x="452.42" y="22.04"/>
      <point x="395.96000000000004" y="83.52000000000001"/>
      <point x="395.96000000000004" y="187.39999999999998" type="curve" smooth="yes"/>
      <point x="395.96000000000004" y="374.88"/>
      <point x="490.02000000000004" y="510.8399999999999"/>
      <point x="629.1999999999999" y="510.8399999999999" type="curve" smooth="yes"/>
      <point x="703.62" y="510.8399999999999"/>
      <point x="740.7400000000001" y="482.35999999999996"/>
      <point x="740.7400000000001" y="432.41999999999996" type="curve" smooth="yes"/>
      <point x="740.7400000000001" y="361.38"/>
      <point x="666.24" y="306.96"/>
      <point x="542.9000000000001" y="285.32" type="curve" smooth="yes"/>
      <point x="490.96" y="274.85999999999996"/>
      <point x="435.56" y="272.86"/>
      <point x="387.90000000000003" y="275.68" type="curve"/>
      <point x="385.18" y="247.24" type="line"/>
      <point x="431.64000000000004" y="243.24"/>
      <point x="492.02" y="245.23999999999998"/>
      <point x="546.02" y="256.06" type="curve" smooth="yes"/>
      <point x="691.2" y="279.88"/>
      <point x="776.1999999999999" y="346.14"/>
      <point x="776.1999999999999" y="436.94" type="curve" smooth="yes"/>
      <point x="776.1999999999999" y="502.64"/>
      <point x="725.4799999999999" y="541.8"/>
      <point x="638.22" y="541.8" type="curve" smooth="yes"/>
      <point x="544.72" y="541.8"/>
      <point x="465.14" y="491.65999999999997"/>
      <point x="422.58" y="400.94" type="curve"/>
      <point x="443.59999999999997" y="537.8" type="line"/>
      <point x="410.12" y="537.8" type="line"/>
      <point x="406.12" y="510.8" type="line"/>
      <point x="374.02" y="530.98"/>
      <point x="333.28" y="541.8"/>
      <point x="294.1" y="541.8" type="curve" smooth="yes"/>
      <point x="146.29999999999998" y="541.8"/>
      <point x="30.380000000000003" y="394.35999999999996"/>
      <point x="30.380000000000003" y="167.26" type="curve" smooth="yes"/>
      <point x="30.380000000000003" y="52.36"/>
      <point x="85.92" y="-10.0"/>
    </contour>
    <contour>
      <point x="193.09999999999997" y="21.14" type="curve" smooth="yes"/>
      <point x="114.86" y="21.14"/>
      <point x="67.38" y="70.9"/>
      <point x="67.38" y="171.14000000000001" type="curve" smooth="yes"/>
      <point x="67.38" y="378.90000000000003"/>
      <point x="176.62" y="511.65999999999997"/>
      <point x="295.88" y="511.65999999999997" type="curve" smooth="yes"/>
      <point x="334.53999999999996" y="511.65999999999997"/>
      <point x="370.48" y="502.74"/>
      <point x="401.5" y="480.18" type="curve"/>
      <point x="336.38" y="68.53999999999999" type="line"/>
      <point x="296.71999999999997" y="40.519999999999996"/>
      <point x="241.67999999999998" y="21.14"/>
    </contour>
  </outline>
</glyph>
<glyph name="eth" format="2">
  <advance width="512.76"/>
  <unicode hex="00F0"/>
  <outline>
    <contour>
      <point x="460.26" y="442.90000000000003" type="curve"/>
      <point x="466.41999999999996" y="473.41999999999996" type="line"/>
      <point x="427.24" y="512.62"/>
      <point x="367.96000000000004" y="533.64"/>
      <point x="304.38000000000005" y="533.64" type="curve" smooth="yes"/>
      <point x="147.42" y="533.64"/>
      <point x="38.300000000000004" y="380.91999999999996"/>
      <point x="38.300000000000004" y="179.14000000000001" type="curve" smooth="yes"/>
      <point x="38.300000000000004" y="57.019999999999996"/>
      <point x="104.33999999999999" y="-9.82"/>
      <point x="209.42000000000002" y="-9.82" type="curve" smooth="yes"/>
      <point x="346.48" y="-9.82"/>
      <point x="431.17999999999995" y="86.38"/>
      <point x="467.90000000000003" y="295.41999999999996" type="curve" smooth="yes"/>
      <point x="480.18" y="362.72"/>
      <point x="485.18" y="412.82"/>
      <point x="485.18" y="462.38000000000005" type="curve" smooth="yes"/>
      <point x="485.18" y="624.4"/>
      <point x="389.6" y="714.5"/>
      <point x="230.12" y="714.5" type="curve" smooth="yes"/>
      <point x="190.5" y="714.5"/>
      <point x="153.6" y="709.78"/>
      <point x="107.86" y="700.96" type="curve"/>
      <point x="110.14" y="672.5200000000001" type="line"/>
      <point x="157.9" y="681.62"/>
      <point x="185.72" y="685.34"/>
      <point x="226.24" y="685.34" type="curve" smooth="yes"/>
      <point x="370.78000000000003" y="685.34"/>
      <point x="447.90000000000003" y="606.84"/>
      <point x="447.90000000000003" y="464.5199999999999" type="curve" smooth="yes"/>
      <point x="447.90000000000003" y="410.4"/>
      <point x="443.08" y="357.84000000000003"/>
      <point x="431.44000000000005" y="299.02000000000004" type="curve" smooth="yes"/>
      <point x="394.8" y="105.30000000000001"/>
      <point x="325.12" y="20.599999999999998"/>
      <point x="211.68" y="20.599999999999998" type="curve" smooth="yes"/>
      <point x="123.80000000000001" y="20.599999999999998"/>
      <point x="74.22" y="76.0"/>
      <point x="74.22" y="176.88" type="curve" smooth="yes"/>
      <point x="74.22" y="364.98"/>
      <point x="172.28" y="504.40000000000003"/>
      <point x="306.8" y="504.40000000000003" type="curve" smooth="yes"/>
      <point x="367.76" y="504.40000000000003"/>
      <point x="419.88000000000005" y="484.2"/>
    </contour>
    <contour>
      <point x="204.6" y="574.14" type="line"/>
      <point x="386.16" y="652.74" type="line"/>
      <point x="382.98" y="653.28" type="line"/>
      <point x="539.32" y="721.9599999999999" type="line"/>
      <point x="482.91999999999996" y="721.9599999999999" type="line"/>
      <point x="363.16" y="669.88" type="line"/>
      <point x="365.52" y="669.34" type="line"/>
      <point x="149.1" y="574.14" type="line"/>
    </contour>
  </outline>
</glyph>
<glyph name="divide" format="2">
  <advance width="420.324"/>
  <unicode hex="00F7"/>
  <outline>
    <contour>
      <point x="157.952" y="87.43199999999999" type="curve" smooth="yes"/>
      <point x="156.952" y="75.86399999999999"/>
      <point x="161.45600000000002" y="72.392"/>
      <point x="176.268" y="72.392" type="curve" smooth="yes"/>
      <point x="197.604" y="72.392"/>
      <point x="202.07199999999997" y="76.452"/>
      <point x="204.89199999999997" y="104.312" type="curve" smooth="yes"/>
      <point x="205.89199999999997" y="116.372"/>
      <point x="200.22400000000002" y="119.352"/>
      <point x="186.084" y="119.352" type="curve" smooth="yes"/>
      <point x="165.552" y="119.352"/>
      <point x="160.772" y="114.392"/>
    </contour>
    <contour>
      <point x="221.20000000000002" y="480.34799999999996" type="curve" smooth="yes"/>
      <point x="220.20000000000002" y="468.96"/>
      <point x="224.52400000000003" y="465.30799999999994"/>
      <point x="239.51600000000002" y="465.30799999999994" type="curve" smooth="yes"/>
      <point x="260.85200000000003" y="465.30799999999994"/>
      <point x="265.14000000000004" y="469.548"/>
      <point x="267.96" y="497.22799999999995" type="curve" smooth="yes"/>
      <point x="268.96" y="509.46799999999996"/>
      <point x="263.47200000000004" y="512.448"/>
      <point x="249.152" y="512.448" type="curve" smooth="yes"/>
      <point x="228.44" y="512.448"/>
      <point x="224.02" y="507.128"/>
    </contour>
    <contour>
      <point x="49.132" y="275.22" type="line"/>
      <point x="371.42400000000004" y="275.22" type="line"/>
      <point x="377.272" y="309.62" type="line"/>
      <point x="54.8" y="309.62" type="line"/>
    </contour>
  </outline>
</glyph>
<glyph name="oslash" format="2">
  <advance width="477.91999999999996"/>
  <unicode hex="00F8"/>
  <anchor x="276.78" y="531.8" name="top"/>
  <outline>
    <contour>
      <point x="449.28" y="541.98" type="line"/>
      <point x="395.38" y="475.36" type="line"/>
      <point x="394.02" y="475.72" type="line"/>
      <point x="73.94" y="80.18" type="line"/>
      <point x="72.39999999999999" y="80.72" type="line"/>
      <point x="-1.1599999999999997" y="-10.0" type="line"/>
      <point x="33.18" y="-10.0" type="line"/>
      <point x="89.06" y="58.959999999999994" type="line"/>
      <point x="90.6" y="58.599999999999994" type="line"/>
      <point x="409.42" y="452.7" type="line"/>
      <point x="410.78000000000003" y="452.16" type="line"/>
      <point x="483.62" y="541.98" type="line"/>
    </contour>
    <contour>
      <point x="207.10000000000002" y="-10.0" type="curve" smooth="yes"/>
      <point x="358.5" y="-10.0"/>
      <point x="443.08" y="157.61999999999998"/>
      <point x="443.08" y="360.20000000000005" type="curve" smooth="yes"/>
      <point x="443.08" y="479.62000000000006"/>
      <point x="381.02" y="541.98"/>
      <point x="276.08000000000004" y="541.98" type="curve" smooth="yes"/>
      <point x="126.05999999999999" y="541.98"/>
      <point x="39.38" y="366.91999999999996"/>
      <point x="39.38" y="169.78" type="curve" smooth="yes"/>
      <point x="39.38" y="49.08"/>
      <point x="98.25999999999999" y="-10.0"/>
    </contour>
    <contour>
      <point x="208.2" y="21.14" type="curve" smooth="yes"/>
      <point x="120.5" y="20.959999999999997"/>
      <point x="75.48" y="67.17999999999999"/>
      <point x="75.30000000000001" y="171.26" type="curve" smooth="yes"/>
      <point x="74.94" y="343.4"/>
      <point x="150.12" y="510.48"/>
      <point x="275.08" y="510.84000000000003" type="curve" smooth="yes"/>
      <point x="359.14" y="511.02000000000004"/>
      <point x="406.62" y="460.15999999999997"/>
      <point x="406.79999999999995" y="357.9" type="curve" smooth="yes"/>
      <point x="407.15999999999997" y="178.60000000000002"/>
      <point x="334.72" y="21.5"/>
    </contour>
  </outline>
</glyph>
<glyph name="thorn" format="2">
  <advance width="480.53"/>
  <unicode hex="00FE"/>
  <outline>
    <contour>
      <point x="-2.0519999999999987" y="-210.0" type="line"/>
      <point x="33.592" y="-210.0" type="line"/>
      <point x="67.684" y="4.096" type="line"/>
      <point x="96.694" y="-3.3619999999999997"/>
      <point x="131.518" y="-9.91"/>
      <point x="174.346" y="-9.91" type="curve" smooth="yes"/>
      <point x="340.22" y="-9.91"/>
      <point x="448.874" y="163.19"/>
      <point x="448.874" y="366.092" type="curve" smooth="yes"/>
      <point x="448.874" y="483.08399999999995"/>
      <point x="400.14799999999997" y="541.8"/>
      <point x="308.97200000000004" y="541.8" type="curve" smooth="yes"/>
      <point x="245.61200000000002" y="541.8"/>
      <point x="195.96800000000002" y="516.162"/>
      <point x="142.77" y="481.52" type="curve"/>
      <point x="184.048" y="740.0" type="line"/>
      <point x="147.948" y="740.0" type="line"/>
    </contour>
    <contour>
      <point x="172.088" y="21.503999999999998" type="curve" smooth="yes"/>
      <point x="131.424" y="21.503999999999998"/>
      <point x="98.04" y="28.964000000000002"/>
      <point x="72.754" y="36.604" type="curve"/>
      <point x="137.786" y="447.63" type="line"/>
      <point x="191.28" y="486.026"/>
      <point x="245.58599999999998" y="508.406"/>
      <point x="295.252" y="508.406" type="curve" smooth="yes"/>
      <point x="371.75" y="508.406"/>
      <point x="412.32399999999996" y="458.1"/>
      <point x="412.32399999999996" y="358.13800000000003" type="curve" smooth="yes"/>
      <point x="412.32399999999996" y="180.21"/>
      <point x="315.07" y="21.503999999999998"/>
    </contour>
  </outline>
</glyph>
<glyph name="Dcroat" format="2">
  <advance width="612.296"/>
  <unicode hex="0110"/>
  <outline>
    <contour>
      <point x="21.904" y="344.75200000000007" type="line"/>
      <point x="267.42" y="344.75200000000007" type="line"/>
      <point x="272.94000000000005" y="376.12" type="line"/>
      <point x="28.080000000000002" y="376.12" type="line"/>
    </contour>
    <component base="D" xOffset="4.884"/>
  </outline>
</glyph>
<glyph name="dcroat" format="2">
  <advance width="484.076"/>
  <unicode hex="0111"/>
  <outline>
    <contour>
      <point x="273.296" y="617.676" type="line"/>
      <point x="544.0800000000002" y="617.676" type="line"/>
      <point x="548.52" y="642.3" type="line"/>
      <point x="277.736" y="642.3" type="line"/>
    </contour>
    <component base="d"/>
  </outline>
</glyph>
<glyph name="Hbar" format="2">
  <advance width="628.948"/>
  <unicode hex="0126"/>
  <outline>
    <contour>
      <point x="53.73799999999999" y="500.73199999999997" type="line"/>
      <point x="647.1740000000001" y="500.73199999999997" type="line"/>
      <point x="651.6260000000001" y="530.296" type="line"/>
      <point x="58.190000000000005" y="530.296" type="line"/>
    </contour>
    <component base="H" xOffset="1.216"/>
  </outline>
</glyph>
<glyph name="hbar" format="2">
  <advance width="496.28"/>
  <unicode hex="0127"/>
  <outline>
    <contour>
      <point x="53.412000000000006" y="617.676" type="line"/>
      <point x="313.788" y="617.676" type="line"/>
      <point x="318.04800000000006" y="642.3" type="line"/>
      <point x="57.672" y="642.3" type="line"/>
    </contour>
    <component base="h" xOffset="0.18000000000000002"/>
  </outline>
</glyph>
<glyph name="Idotaccent" format="2">
  <advance width="192.87199999999999"/>
  <unicode hex="0130"/>
  <outline>
    <contour>
      <point x="189.896" y="860.8299999999999" type="curve" smooth="yes"/>
      <point x="168.628" y="860.8299999999999"/>
      <point x="162.90200000000002" y="854.3199999999999"/>
      <point x="160.9" y="824.9300000000001" type="curve" smooth="yes"/>
      <point x="160.354" y="813.064"/>
      <point x="168.29200000000003" y="810.0360000000001"/>
      <point x="179.88600000000002" y="810.0360000000001" type="curve" smooth="yes"/>
      <point x="202.02" y="810.0360000000001"/>
      <point x="207.20800000000003" y="816.15"/>
      <point x="209.57399999999998" y="846.39" type="curve" smooth="yes"/>
      <point x="210.11999999999998" y="857.856"/>
      <point x="203.22" y="860.8299999999999"/>
    </contour>
    <component base="I"/>
  </outline>
</glyph>
<glyph name="dotlessi" format="2">
  <advance width="184.21200000000002"/>
  <unicode hex="0131"/>
  <anchor x="47.693984" y="0.0" name="bottom"/>
  <anchor x="66.3" y="0.0" name="ogonek"/>
  <anchor x="132.33201599999998" y="531.8" name="top"/>
  <outline>
    <contour>
      <point x="66.3" y="0.0" type="line"/>
      <point x="150.534" y="531.8" type="line"/>
      <point x="114.308" y="531.8" type="line"/>
      <point x="30.548000000000002" y="0.036" type="line"/>
    </contour>
  </outline>
</glyph>
<glyph name="kgreenlandic" format="2">
  <advance width="445.52"/>
  <unicode hex="0138"/>
  <anchor x="189.02" y="0.0" name="bottom"/>
  <anchor x="266.74" y="531.8" name="top"/>
  <outline>
    <contour>
      <point x="31.039999999999996" y="0.0" type="line"/>
      <point x="67.5" y="0.0" type="line"/>
      <point x="151.04000000000002" y="531.8" type="line"/>
      <point x="114.4" y="531.8" type="line"/>
    </contour>
    <contour>
      <point x="392.94" y="-10.0" type="curve" smooth="yes"/>
      <point x="401.65999999999997" y="-10.0"/>
      <point x="410.38" y="-8.0"/>
      <point x="418.28000000000003" y="-4.819999999999999" type="curve"/>
      <point x="416.52" y="26.74" type="line"/>
      <point x="410.34" y="24.919999999999998"/>
      <point x="404.15999999999997" y="24.099999999999998"/>
      <point x="398.97999999999996" y="24.099999999999998" type="curve" smooth="yes"/>
      <point x="368.08" y="24.099999999999998"/>
      <point x="334.18" y="58.12"/>
      <point x="250.16" y="178.08" type="curve" smooth="yes"/>
      <point x="116.32" y="363.68" type="line"/>
      <point x="104.44" y="325.96000000000004" type="line"/>
      <point x="238.04000000000002" y="135.14" type="line" smooth="yes"/>
      <point x="316.98" y="23.36"/>
      <point x="350.96" y="-10.0"/>
    </contour>
    <contour>
      <point x="188.18" y="252.46" type="line"/>
      <point x="304.55999999999995" y="317.44"/>
      <point x="402.65999999999997" y="420.06"/>
      <point x="456.5" y="531.62" type="curve"/>
      <point x="422.14000000000004" y="540.98" type="line"/>
      <point x="360.38" y="423.5"/>
      <point x="294.54" y="348.12"/>
      <point x="167.2" y="276.2" type="curve"/>
    </contour>
  </outline>
</glyph>
<glyph name="Ldot" format="2">
  <advance width="449.714"/>
  <unicode hex="013F"/>
  <outline>
    <contour>
      <point x="316.05389199999996" y="362.48994799999997" type="curve" smooth="yes"/>
      <point x="314.597892" y="347.50230799999997"/>
      <point x="318.939748" y="343.340506"/>
      <point x="334.24337" y="343.340506" type="curve" smooth="yes"/>
      <point x="354.0427940000001" y="343.340506"/>
      <point x="358.300632" y="349.14578600000004"/>
      <point x="360.484632" y="371.83333600000003" type="curve" smooth="yes"/>
      <point x="361.94063200000005" y="386.274994"/>
      <point x="358.144776" y="390.982796"/>
      <point x="342.913118" y="390.982796" type="curve" smooth="yes"/>
      <point x="323.18571199999997" y="390.982796"/>
      <point x="318.237892" y="385.033498"/>
    </contour>
    <component base="L"/>
  </outline>
</glyph>
<glyph name="ldot" format="2">
  <advance width="248.90800000000004"/>
  <unicode hex="0140"/>
  <outline>
    <contour>
      <point x="212.59277000000003" y="356.11835" type="curve" smooth="yes"/>
      <point x="211.13677" y="341.865452"/>
      <point x="214.799054" y="338.122852"/>
      <point x="228.661056" y="338.122852" type="curve" smooth="yes"/>
      <point x="246.83761800000002" y="338.122852"/>
      <point x="250.01407" y="343.405376"/>
      <point x="252.19807" y="365.014564" type="curve" smooth="yes"/>
      <point x="253.65407000000002" y="378.699232"/>
      <point x="250.537786" y="382.98783199999997"/>
      <point x="236.73162000000002" y="382.98783199999997" type="curve" smooth="yes"/>
      <point x="218.61080400000003" y="382.98783199999997"/>
      <point x="214.77677" y="377.630086"/>
    </contour>
    <component base="l"/>
  </outline>
</glyph>
<glyph name="Lslash" format="2">
  <advance width="453.85400000000004"/>
  <unicode hex="0141"/>
  <outline>
    <contour>
      <point x="36.72" y="0.0" type="line"/>
      <point x="398.55400000000003" y="0.0" type="line"/>
      <point x="404.074" y="33.922" type="line"/>
      <point x="78.952" y="33.922" type="line"/>
      <point x="116.004" y="267.474" type="line"/>
      <point x="338.26800000000003" y="411.54800000000006" type="line"/>
      <point x="344.80600000000004" y="451.14" type="line"/>
      <point x="122.434" y="307.012" type="line"/>
      <point x="184.702" y="700.0" type="line"/>
      <point x="147.918" y="700.0" type="line"/>
      <point x="81.754" y="282.29200000000003" type="line"/>
      <point x="18.272" y="239.292" type="line"/>
      <point x="11.422000000000002" y="199.334" type="line"/>
      <point x="74.77799999999999" y="242.298" type="line"/>
    </contour>
  </outline>
</glyph>
<glyph name="lslash" format="2">
  <advance width="220.18"/>
  <unicode hex="0142"/>
  <outline>
    <contour>
      <point x="6.378000000000001" y="179.064" type="line"/>
      <point x="217.83999999999997" y="381.576" type="line"/>
      <point x="223.856" y="421.85200000000003" type="line"/>
      <point x="12.304000000000002" y="219.34" type="line"/>
    </contour>
    <component base="l" xOffset="1.0799999999999998"/>
  </outline>
</glyph>
<glyph name="Eng" format="2">
  <advance width="622.2399999999999"/>
  <unicode hex="014A"/>
  <outline>
    <contour>
      <point x="33.4" y="0.0" type="line"/>
      <point x="70.5" y="0.0" type="line"/>
      <point x="169.92" y="633.9199999999998" type="line"/>
      <point x="465.35999999999996" y="-1.0" type="line"/>
      <point x="445.16" y="-103.82"/>
      <point x="380.09999999999997" y="-134.66000000000003"/>
      <point x="303.14000000000004" y="-134.66000000000003" type="curve" smooth="yes"/>
      <point x="272.94" y="-135.02"/>
      <point x="241.56" y="-130.10000000000002"/>
      <point x="212.02" y="-123.1" type="curve"/>
      <point x="204.32" y="-158.22" type="line"/>
      <point x="235.32" y="-165.4"/>
      <point x="268.86" y="-170.04"/>
      <point x="300.24" y="-170.04" type="curve" smooth="yes"/>
      <point x="419.14" y="-170.04"/>
      <point x="483.58000000000004" y="-107.76"/>
      <point x="502.94" y="11.66" type="curve" smooth="yes"/>
      <point x="612.6599999999999" y="700.0" type="line"/>
      <point x="576.38" y="700.0" type="line"/>
      <point x="476.59999999999997" y="61.1" type="line"/>
      <point x="180.6" y="703.64" type="line"/>
      <point x="144.57999999999998" y="703.64" type="line"/>
    </contour>
  </outline>
</glyph>
<glyph name="eng" format="2">
  <advance width="493.232"/>
  <unicode hex="014B"/>
  <outline>
    <contour>
      <point x="364.5420000000001" y="-63.068" type="curve" smooth="yes"/>
      <point x="411.186" y="236.56"/>
      <point x="443.482" y="426.71000000000004"/>
      <point x="443.482" y="443.106" type="curve" smooth="yes"/>
      <point x="443.482" y="503.48"/>
      <point x="405.546" y="541.8"/>
      <point x="330.576" y="541.8" type="curve" smooth="yes"/>
      <point x="262.89" y="541.8"/>
      <point x="205.624" y="517.518"/>
      <point x="140.736" y="484.054" type="curve"/>
      <point x="148.46400000000003" y="531.8" type="line"/>
      <point x="114.272" y="531.8" type="line"/>
      <point x="30.366000000000003" y="0.0" type="line"/>
      <point x="65.866" y="0.0" type="line"/>
      <point x="138.078" y="453.53999999999996" type="line"/>
      <point x="200.23000000000002" y="486.128"/>
      <point x="253.758" y="509.492"/>
      <point x="314.60400000000004" y="509.492" type="curve" smooth="yes"/>
      <point x="378.594" y="509.492"/>
      <point x="405.75399999999996" y="480.12600000000003"/>
      <point x="405.466" y="429.91600000000005" type="curve" smooth="yes"/>
      <point x="405.034" y="411.092"/>
      <point x="379.014" y="256.428"/>
      <point x="329.586" y="-58.589999999999996" type="curve" smooth="yes"/>
      <point x="316.79800000000006" y="-139.012"/>
      <point x="292.718" y="-188.588"/>
      <point x="236.21800000000005" y="-188.588" type="curve" smooth="yes"/>
      <point x="225.06400000000002" y="-188.588"/>
      <point x="212.83800000000002" y="-187.314"/>
      <point x="197.572" y="-182.10999999999999" type="curve"/>
      <point x="189.314" y="-215.256" type="line"/>
      <point x="203.508" y="-220.27599999999998"/>
      <point x="226.788" y="-222.184"/>
      <point x="240.932" y="-222.184" type="curve" smooth="yes"/>
      <point x="311.47" y="-222.184"/>
      <point x="348.42600000000004" y="-168.16"/>
    </contour>
  </outline>
</glyph>
<glyph name="OE" format="2">
  <advance width="919.68"/>
  <unicode hex="0152"/>
  <outline>
    <contour>
      <point x="846.0559999999999" y="0.0" type="line"/>
      <point x="851.576" y="34.12" type="line"/>
      <point x="491.272" y="34.12" type="line"/>
      <point x="541.2959999999999" y="351.92" type="line"/>
      <point x="864.8960000000001" y="351.92" type="line"/>
      <point x="870.5959999999999" y="386.04" type="line"/>
      <point x="546.8159999999999" y="386.04" type="line"/>
      <point x="591.0999999999999" y="665.88" type="line"/>
      <point x="935.0600000000001" y="665.88" type="line"/>
      <point x="941.0719999999999" y="700.0" type="line"/>
      <point x="593.62" y="700.0" type="line"/>
      <point x="533.672" y="704.4919999999998"/>
      <point x="466.41200000000003" y="710.0"/>
      <point x="411.1440000000001" y="710.0" type="curve" smooth="yes"/>
      <point x="193.76800000000003" y="710.0"/>
      <point x="51.004" y="528.7239999999999"/>
      <point x="51.004" y="224.94400000000002" type="curve" smooth="yes"/>
      <point x="51.004" y="59.388"/>
      <point x="133.316" y="-10.0"/>
      <point x="312.276" y="-10.0" type="curve" smooth="yes"/>
      <point x="364.548" y="-10.0"/>
      <point x="418.85600000000005" y="-6.147999999999999"/>
      <point x="483.3760000000001" y="0.0" type="curve"/>
    </contour>
    <contour>
      <point x="453.6" y="30.008000000000003" type="line"/>
      <point x="403.18399999999997" y="24.712"/>
      <point x="363.13200000000006" y="22.547999999999995"/>
      <point x="316.08000000000004" y="22.547999999999995" type="curve" smooth="yes"/>
      <point x="155.24" y="22.547999999999995"/>
      <point x="88.152" y="90.06"/>
      <point x="88.152" y="231.17199999999997" type="curve" smooth="yes"/>
      <point x="88.152" y="498.3"/>
      <point x="215.16400000000004" y="677.5840000000001"/>
      <point x="410.396" y="677.5840000000001" type="curve" smooth="yes"/>
      <point x="438.56000000000006" y="677.5840000000001"/>
      <point x="528.524" y="673.272"/>
      <point x="554.952" y="670.2879999999999" type="curve"/>
    </contour>
  </outline>
</glyph>
<glyph name="oe" format="2">
  <advance width="815.5"/>
  <unicode hex="0153"/>
  <outline>
    <contour>
      <point x="209.4" y="-10.0" type="curve" smooth="yes"/>
      <point x="291.50000000000006" y="-10.0"/>
      <point x="358.34" y="51.760000000000005"/>
      <point x="395.53999999999996" y="154.16" type="curve"/>
      <point x="404.58" y="48.32"/>
      <point x="464.22" y="-10.0"/>
      <point x="570.4399999999999" y="-10.0" type="curve" smooth="yes"/>
      <point x="630.7" y="-10.0"/>
      <point x="703.0600000000001" y="4.64"/>
      <point x="753.68" y="26.82" type="curve"/>
      <point x="745.06" y="56.68" type="line"/>
      <point x="689.34" y="34.86"/>
      <point x="625.7" y="22.22"/>
      <point x="575.6800000000001" y="22.22" type="curve" smooth="yes"/>
      <point x="478.56" y="22.22"/>
      <point x="424.15999999999997" y="80.54"/>
      <point x="424.15999999999997" y="186.4" type="curve" smooth="yes"/>
      <point x="424.15999999999997" y="377.04"/>
      <point x="522.1200000000001" y="510.8399999999999"/>
      <point x="657.22" y="510.8399999999999" type="curve" smooth="yes"/>
      <point x="729.82" y="510.8399999999999"/>
      <point x="768.76" y="483.17999999999995"/>
      <point x="768.76" y="431.59999999999997" type="curve" smooth="yes"/>
      <point x="768.76" y="361.38"/>
      <point x="693.4399999999999" y="306.96000000000004"/>
      <point x="570.92" y="284.85999999999996" type="curve" smooth="yes"/>
      <point x="523.26" y="276.22"/>
      <point x="467.68" y="273.21999999999997"/>
      <point x="420.56000000000006" y="276.04" type="curve"/>
      <point x="416.84" y="246.42" type="line"/>
      <point x="470.67999999999995" y="244.24"/>
      <point x="529.24" y="247.06"/>
      <point x="573.8599999999999" y="255.06" type="curve" smooth="yes"/>
      <point x="719.04" y="279.88"/>
      <point x="804.22" y="346.96"/>
      <point x="804.22" y="436.94" type="curve" smooth="yes"/>
      <point x="804.22" y="502.64"/>
      <point x="751.7" y="541.8"/>
      <point x="661.2" y="541.8" type="curve" smooth="yes"/>
      <point x="558.9" y="541.8"/>
      <point x="476.14" y="482.12"/>
      <point x="431.96000000000004" y="382.2" type="curve"/>
      <point x="427.36" y="485.3"/>
      <point x="367.64" y="541.98"/>
      <point x="263.23999999999995" y="541.98" type="curve" smooth="yes"/>
      <point x="131.26" y="541.98"/>
      <point x="34.38" y="366.73999999999995"/>
      <point x="34.38" y="170.68" type="curve" smooth="yes"/>
      <point x="34.38" y="50.160000000000004"/>
      <point x="92.36" y="-10.0"/>
    </contour>
    <contour>
      <point x="211.76000000000002" y="21.14" type="curve" smooth="yes"/>
      <point x="114.6" y="21.14"/>
      <point x="70.48" y="68.08"/>
      <point x="70.3" y="172.16000000000003" type="curve" smooth="yes"/>
      <point x="69.94" y="345.74"/>
      <point x="156.22" y="510.65999999999997"/>
      <point x="261.52000000000004" y="510.84" type="curve" smooth="yes"/>
      <point x="355.03999999999996" y="510.84"/>
      <point x="401.80000000000007" y="459.26"/>
      <point x="401.98" y="357.0" type="curve" smooth="yes"/>
      <point x="402.34000000000003" y="179.14"/>
      <point x="318.62" y="21.32"/>
    </contour>
  </outline>
</glyph>
<glyph name="uni0162" format="2">
  <advance width="455.628"/>
  <unicode hex="0162"/>
  <anchor x="183.840406" y="0.0" name="_bottom"/>
  <anchor x="140.776" y="-220.0" name="bottom"/>
  <outline>
    <contour>
      <point x="69.03800000000001" y="-198.954" type="line"/>
      <point x="92.56200000000001" y="-214.18"/>
      <point x="115.47" y="-220.0"/>
      <point x="144.052" y="-220.0" type="curve" smooth="yes"/>
      <point x="206.05800000000005" y="-220.0"/>
      <point x="239.98" y="-166.112"/>
      <point x="239.98" y="-102.842" type="curve" smooth="yes"/>
      <point x="239.98" y="-60.516000000000005"/>
      <point x="222.74800000000002" y="-23.212"/>
      <point x="197.112" y="2.6119999999999997" type="curve"/>
      <point x="168.97600000000003" y="0.738" type="line"/>
      <point x="195.97799999999998" y="-30.351999999999997"/>
      <point x="209.57" y="-62.02799999999999"/>
      <point x="209.57" y="-100.594" type="curve" smooth="yes"/>
      <point x="209.57" y="-157.90599999999998"/>
      <point x="182.512" y="-191.638"/>
      <point x="140.17" y="-191.638" type="curve" smooth="yes"/>
      <point x="117.26400000000001" y="-191.638"/>
      <point x="98.6" y="-184.814"/>
      <point x="78.842" y="-172.78599999999997" type="curve"/>
    </contour>
    <component base="T"/>
  </outline>
</glyph>
